<?xml version="1.0" encoding="utf-8" ?>
<svg baseProfile="full" height="200mm" version="1.1" viewBox="0,0,200,200" width="200mm" xmlns="http://www.w3.org/2000/svg" xmlns:ev="http://www.w3.org/2001/xml-events" xmlns:xlink="http://www.w3.org/1999/xlink"><defs /><rect fill="#1a1a1a" height="200" width="200" x="0" y="0" /><text alignment-baseline="middle" fill="#e1ed5e" style="dominant-baseline: central; font-size:9.0px; font-family:Arial;" text-anchor="middle" x="100.0" y="100.0">2021</text><line stroke="#e1ed5e" stroke-width="0.3" x1="100.0" x2="100.0" y1="15.0" y2="10.0" /><path d="M 100.0 14.0 a86.0,86.0 0 0,1 42.46469731375804,11.215312516191453" fill="none" id="id13" stroke="none" /><text fill="#e1ed5e" style="font-size:6.75px; font-family:Arial;" text-anchor="middle"><textPath startOffset="22.20632615414155" xlink:href="#id13">January</textPath></text><path d="M 100.0 79.0 l 0.0 -42.95569063424778 a63.95569063424778,63.95569063424778 0 0,0 1.1008920810796876,0.009475725705886956 l -0.7394116018071594 42.949326285150455" fill="#31ff3b" stroke="none" /><path d="M 101.44485096284872 79.0497635885617 l 0.9828984935223355 -14.251958393784566 a35.285811405262734,35.285811405262734 0 0,0 0.6055882193698516,0.04700530107283396 l -1.2280769022545284 14.232927830523268" fill="#ff5a08" stroke="none" /><path d="M 102.16513564639614 79.11191278185805 l 1.4760084525359856 -14.239751371977352 a35.31604414940414,35.31604414940414 0 0,0 0.6041285218469776,0.06788087853718403 l -1.7209036778926885 14.212234539969568" fill="#ff5a08" stroke="none" /><path d="M 102.88285421437855 79.19881850522331 l 5.27358878987936 -38.0514827978379 a59.41518035671439,59.41518035671439 0 0,0 1.0118434061422414,0.14911941568427126 l -5.927801176450257 37.95506889799266" fill="#59ff2a" stroke="none" /><path d="M 103.95276090670814 79.375362276772 l 2.1715999894567806 -11.33093149810871 a32.5371510837399,32.5371510837399 0 0,0 0.5491552040152641,0.11015536774152765 l -2.3663216029391703 11.291872174289972" fill="#ff2e04" stroke="none" /><path d="M 104.66035177308747 79.52364482259891 l 1.9457580565314032 -8.549147144836967 a29.767775733823882,29.767775733823882 0 0,0 0.4986475426176679,0.11801376268165199 l -2.0926292861115945 8.514387470014446" fill="#ff0000" stroke="none" /><path d="M 106.0581310904928 79.89281104454417 l 4.129927245446315 -13.707400228891283 a35.31604414940414,35.31604414940414 0 0,0 0.5805530961127796,0.1803806729499065 l -4.365265714269813 13.634279421058856" fill="#ff5a08" stroke="none" /><path d="M 107.4271985657038 80.35727306442388 l 5.092152601106983 -13.467226192080384 a35.39778453171239,35.39778453171239 0 0,0 0.5680785385191168,0.2204056473157971 l -5.323214304625767 13.377577840874041" fill="#ff5b08" stroke="none" /><path d="M 108.09893153111575 80.62456947434976 l 5.7396850736059175 -13.731301339627755 a35.88262816923938,35.88262816923938 0 0,0 0.5678276263718577,0.24311415589785895 l -5.9751964577680905 13.630467655767106" fill="#ff6309" stroke="none" /><path d="M 108.76106565485865 80.91482961587045 l 7.651830516760498 -16.6688043345353 a39.341198112453014,39.341198112453014 0 0,0 0.6130141531416073,0.2878183645223716 l -7.937622881201703 16.534620987372925" fill="#ff980e" stroke="none" /><path d="M 110.36928655335952 81.73862282372117 l 31.00488279476287 -54.60277870689606 a83.79145005198752,83.79145005198752 0 0,0 1.2481066365585682,0.7229839236037837 l -31.940186163786766 54.06099062590222" fill="#4dd4ff" stroke="none" /><line stroke="#e1ed5e" stroke-width="0.3" x1="143.23703022742887" x2="145.7803849466894" y1="26.81831364943548" y2="22.513508569990506" /><path d="M 143.74570117128098 25.957352633546492 a86.0,86.0 0 0,1 28.547481713284135,27.462654790039103" fill="none" id="id14" stroke="none" /><text fill="#e1ed5e" style="font-size:6.75px; font-family:Arial;" text-anchor="middle"><textPath startOffset="19.985693538727396" xlink:href="#id14">February</textPath></text><path d="M 111.2981086023043 82.29822771554956 l 6.271807228056732 -9.826609680525394 a32.65752219467328,32.65752219467328 0 0,0 0.4712526705317965,0.30651584565972356 l -6.440026924372808 9.717194910706143" fill="#ff3004" stroke="none" /><path d="M 112.19680574252982 82.90503203632743 l 36.590417227589455 -51.28490389101772 a84.0,84.0 0 0,0 1.1698187345848452,0.8499230607333006 l -37.46778127852809 50.647461595467746" fill="#4dd2ff" stroke="none" /><path d="M 113.06298171725822 83.55741782278167 l 9.133708976716859 -11.496744287259492 a35.683316004159,35.683316004159 0 0,0 0.4776408979389713,0.3862190551020306 l -9.330253273220322 11.337819134893332" fill="#ff6008" stroke="none" /><line stroke="#e1ed5e" stroke-width="0.3" x1="172.23445277983987" x2="176.4835382374775" y1="55.19839476539836" y2="52.563006222186495" /><path d="M 173.08426987136738 54.67131705675599 a86.0,86.0 0 0,1 12.851231095245387,41.99856678651699" fill="none" id="id15" stroke="none" /><text fill="#e1ed5e" style="font-size:6.75px; font-family:Arial;" text-anchor="middle"><textPath startOffset="22.20632615414155" xlink:href="#id15">March</textPath></text><line stroke="#e1ed5e" stroke-width="0.3" x1="184.98032266829074" x2="189.97916517819016" y1="98.17113171792111" y2="98.06355123074" /><path d="M 185.9800911702706 98.14961562048488 a86.0,86.0 0 0,1 -9.607161424134198,41.387399972396054" fill="none" id="id16" stroke="none" /><text fill="#e1ed5e" style="font-size:6.75px; font-family:Arial;" text-anchor="middle"><textPath startOffset="21.466115282336823" xlink:href="#id16">April</textPath></text><line stroke="#e1ed5e" stroke-width="0.3" x1="174.80103733775053" x2="179.2010983576182" y1="140.37084112569926" y2="142.7455964860345" /><path d="M 175.68104954172406 140.8457921977663 a86.0,86.0 0 0,1 -30.038265399797805,32.042727171017184" fill="none" id="id17" stroke="none" /><text fill="#e1ed5e" style="font-size:6.75px; font-family:Arial;" text-anchor="middle"><textPath startOffset="22.206326154141568" xlink:href="#id17">May</textPath></text><line stroke="#e1ed5e" stroke-width="0.3" x1="143.8653032363475" x2="146.44561519142675" y1="172.8068346515853" y2="177.08958963109032" /><path d="M 144.38136562736335 173.6633856474863 a86.0,86.0 0 0,1 -40.68145358897372,12.25698825130547" fill="none" id="id18" stroke="none" /><text fill="#e1ed5e" style="font-size:6.75px; font-family:Arial;" text-anchor="middle"><textPath startOffset="21.466115282336833" xlink:href="#id18">June</textPath></text><line stroke="#e1ed5e" stroke-width="0.3" x1="102.19456741930631" x2="102.32365962044197" y1="184.97166512339345" y2="189.96999836594603" /><path d="M 102.22038585953345 185.97133177190398 a86.0,86.0 0 0,1 -42.740103519485714,-10.115201625700543" fill="none" id="id19" stroke="none" /><text fill="#e1ed5e" style="font-size:6.75px; font-family:Arial;" text-anchor="middle"><textPath startOffset="22.20632615414155" xlink:href="#id19">July</textPath></text><line stroke="#e1ed5e" stroke-width="0.3" x1="58.666819895761336" x2="56.23545636021788" y1="174.27360380694188" y2="178.64263932499728" /><path d="M 58.180547188652646 175.14741091055294 a86.0,86.0 0 0,1 -31.652253787137756,-30.449443065178592" fill="none" id="id20" stroke="none" /><text fill="#e1ed5e" style="font-size:6.75px; font-family:Arial;" text-anchor="middle"><textPath startOffset="22.20632615414155" xlink:href="#id20">August</textPath></text><line stroke="#e1ed5e" stroke-width="0.3" x1="26.63291911575756" x2="22.317208475507996" y1="142.92168965132927" y2="145.44649492493687" /><path d="M 25.769776987707644 143.4266507060508 a86.0,86.0 0 0,1 -11.730757126820373,-40.83630448921669" fill="none" id="id21" stroke="none" /><text fill="#e1ed5e" style="font-size:6.75px; font-family:Arial;" text-anchor="middle"><textPath startOffset="21.46611528233685" xlink:href="#id21">September</textPath></text><line stroke="#e1ed5e" stroke-width="0.3" x1="15.007084014347285" x2="10.007500721073583" y1="101.09737516637583" y2="101.16192664675087" /><path d="M 14.007167355692545 101.11028546245083 a86.0,86.0 0 0,1 10.666146001902534,-42.60595125391555" fill="none" id="id22" stroke="none" /><text fill="#e1ed5e" style="font-size:6.75px; font-family:Arial;" text-anchor="middle"><textPath startOffset="22.20632615414155" xlink:href="#id22">October</textPath></text><line stroke="#e1ed5e" stroke-width="0.3" x1="26.266209847984243" x2="21.928928074336255" y1="57.711370442889674" y2="55.22380399835377" /><path d="M 25.398753493254645 57.213857153982495 a86.0,86.0 0 0,1 29.58750427330803,-30.492523968695096" fill="none" id="id23" stroke="none" /><text fill="#e1ed5e" style="font-size:6.75px; font-family:Arial;" text-anchor="middle"><textPath startOffset="21.46611528233685" xlink:href="#id23">November</textPath></text><line stroke="#e1ed5e" stroke-width="0.3" x1="56.762969772571076" x2="54.21961505331055" y1="26.818313649435495" y2="22.513508569990535" /><path d="M 56.25429882871897 25.957352633546506 a86.0,86.0 0 0,1 42.265352541879196,-11.944610805530505" fill="none" id="id24" stroke="none" /><text fill="#e1ed5e" style="font-size:6.75px; font-family:Arial;" text-anchor="middle"><textPath startOffset="22.20632615414155" xlink:href="#id24">December</textPath></text></svg>