<?xml version="1.0" encoding="utf-8" ?>
<svg baseProfile="full" height="200mm" version="1.1" viewBox="0,0,200,200" width="200mm" xmlns="http://www.w3.org/2000/svg" xmlns:ev="http://www.w3.org/2001/xml-events" xmlns:xlink="http://www.w3.org/1999/xlink"><defs /><rect fill="#1a1a1a" height="200" width="200" x="0" y="0" /><text alignment-baseline="middle" fill="#e1ed5e" style="dominant-baseline: central; font-size:9.0px; font-family:Arial;" text-anchor="middle" x="100.0" y="100.0">2021</text><line stroke="#e1ed5e" stroke-width="0.3" x1="100.0" x2="100.0" y1="15.0" y2="10.0" /><path d="M 100.0 14.0 a86.0,86.0 0 0,1 42.46469731375804,11.215312516191453" fill="none" id="id13" stroke="none" /><text fill="#e1ed5e" style="font-size:6.75px; font-family:Arial;" text-anchor="middle"><textPath startOffset="22.20632615414155" xlink:href="#id13">January</textPath></text><path d="M 100.0 79.0 l 0.0 -23.066103575391004 a44.066103575391004,44.066103575391004 0 0,0 0.7585255352431055,0.006528868756895424 l -0.39704505597057715 23.062686083242667" fill="#dfff1b" stroke="none" /><path d="M 101.44485096284872 79.0497635885617 l 0.5277912686522214 -7.652935934898041 a28.67111413335242,28.67111413335242 0 0,0 0.49206432455105953,0.03819366193548301 l -0.659445782565622 7.642717010774094" fill="#ff5808" stroke="none" /><path d="M 102.16513564639614 79.11191278185805 l 0.7925786628420214 -7.646381077434575 a28.68734834114742,28.68734834114742 0 0,0 0.49073574819786675,0.05513987920224556 l -0.9240811145496134 7.631605244761729" fill="#ff5808" stroke="none" /><path d="M 102.88285421437855 79.19881850522331 l 2.831781853471027 -20.43266981516913 a41.62796607136466,41.62796607136466 0 0,0 0.7089262832754032,0.10447730595814082 l -3.183077117175086 20.380898025050023" fill="#fdff18" stroke="none" /><path d="M 103.95276090670814 79.375362276772 l 1.1660934684447144 -6.0844194490184265 a27.195154074657314,27.195154074657314 0 0,0 0.45899410017978703,0.09206989850375825 l -1.2706539780916266 6.06344559443746" fill="#ff4306" stroke="none" /><path d="M 104.66035177308747 79.52364482259891 l 1.0448221458421159 -4.590672635277044 a25.708070577287856,25.708070577287856 0 0,0 0.4306423944278834,0.10191914126334632 l -1.1236882272325228 4.572007581872829" fill="#ff2e04" stroke="none" /><path d="M 106.0581310904928 79.89281104454417 l 2.217664951854921 -7.360522174374336 a28.68734834114742,28.68734834114742 0 0,0 0.4715853459765239,0.14652386255474378 l -2.3440356705421634 7.3212581769370715" fill="#ff5808" stroke="none" /><path d="M 107.4271985657038 80.35727306442388 l 2.7343552759732566 -7.231554879764407 a28.731240828889447,28.731240828889447 0 0,0 0.4610910404659364,0.17889616022167185 l -2.85842948143886 7.183416015652188" fill="#ff5808" stroke="none" /><path d="M 108.09893153111575 80.62456947434976 l 3.08206359723538 -7.373356457508285 a28.99158942056476,28.99158942056476 0 0,0 0.45877981199657775,0.19642557275556732 l -3.208527167022273 7.319211356789927" fill="#ff5c08" stroke="none" /><path d="M 108.76106565485865 80.91482961587045 l 4.10883663223463 -8.950720185878595 a30.848752728964605,30.848752728964605 0 0,0 0.48068495462610505,0.22568803147851116 l -4.262299798160333 8.87866717176008" fill="#ff760a" stroke="none" /><path d="M 110.36928655335952 81.73862282372117 l 16.648826437833442 -29.32029099197544 a54.71739737303604,54.71739737303604 0 0,0 0.8150371756799398,0.47212213916336937 l -17.15106034597871 29.02936469542202" fill="#68ff28" stroke="none" /><line stroke="#e1ed5e" stroke-width="0.3" x1="143.23703022742887" x2="145.7803849466894" y1="26.81831364943548" y2="22.513508569990506" /><path d="M 143.74570117128098 25.957352633546492 a86.0,86.0 0 0,1 28.547481713284135,27.462654790039103" fill="none" id="id14" stroke="none" /><text fill="#e1ed5e" style="font-size:6.75px; font-family:Arial;" text-anchor="middle"><textPath startOffset="19.985693538727396" xlink:href="#id14">February</textPath></text><path d="M 111.2981086023043 82.29822771554956 l 3.3677995392746127 -5.276637235701327 a27.259790272359613,27.259790272359613 0 0,0 0.3933626344157086,0.25585399951751014 l -3.4581291994746017 5.217884312024289" fill="#ff4406" stroke="none" /><path d="M 112.19680574252982 82.90503203632743 l 19.648115096663012 -27.538677356546778 a54.82938334347375,54.82938334347375 0 0,0 0.7635766647729745,0.5547709203500555 l -20.119237077789776 27.19638720138005" fill="#67ff28" stroke="none" /><path d="M 113.06298171725822 83.55741782278167 l 4.904567338429873 -6.1734566618348135 a28.88456390250886,28.88456390250886 0 0,0 0.3866358450924771,0.3126326313440419 l -5.0101065820868405 6.088117933226642" fill="#ff5b08" stroke="none" /><path d="M 114.16331599549186 84.49514656593476 l 11.857931036202746 -12.981104340685304 a38.58179735872016,38.58179735872016 0 0,0 0.4864836080768524,0.4521334948085038 l -12.079622528074445 12.77506625980216" fill="#ffdb14" stroke="none" /><path d="M 114.42810811169701 84.74124197986012 l 1.0962697656180065 -1.159383818644892 a22.595612182813785,22.595612182813785 0 0,0 0.28031121878373205,0.26965917037966264 l -1.1160642280141566 1.1403415615029275" fill="#ff0000" stroke="none" /><path d="M 115.19652480421416 85.50635884689758 l 5.522439195341242 -5.267010255193845 a28.631430514297982,28.631430514297982 0 0,0 0.33707739246983315,0.3595706602452982 l -5.612283909781539 5.171170178070492" fill="#ff5708" stroke="none" /><path d="M 116.15771136456269 86.58626213691792 l 39.32833555473379 -32.649424898103895 a72.11460577645752,72.11460577645752 0 0,0 0.7846807696778981,0.9619258419265164 l -39.8845148164881 31.96761488656928" fill="#3effb6" stroke="none" /><path d="M 116.82858285166822 87.43820079747576 l 6.103124288770061 -4.555714673025972 a28.6159478901972,28.6159478901972 0 0,0 0.29125228297604544,0.39726778666342705 l -6.180639184259733 4.449984442691051" fill="#ff5708" stroke="none" /><path d="M 117.45458315368197 88.32363383020206 l 5.638240782787731 -3.7717408289656165 a27.7834937904871,27.7834937904871 0 0,0 0.26249231664499245,0.39979380681303167 l -5.7023297347906485 3.674128958174911" fill="#ff4b07" stroke="none" /><line stroke="#e1ed5e" stroke-width="0.3" x1="172.23445277983987" x2="176.4835382374775" y1="55.19839476539836" y2="52.563006222186495" /><path d="M 173.08426987136738 54.67131705675599 a86.0,86.0 0 0,1 12.851231095245387,41.99856678651699" fill="none" id="id15" stroke="none" /><text fill="#e1ed5e" style="font-size:6.75px; font-family:Arial;" text-anchor="middle"><textPath startOffset="22.20632615414155" xlink:href="#id15">March</textPath></text><path d="M 118.03404312379186 89.2402003453031 l 6.515129669667509 -3.887175465246107 a28.586636126122904,28.586636126122904 0 0,0 0.2484863744886084,0.42474376204277303 l -6.581075718626445 3.7744522908494385" fill="#ff5608" stroke="none" /><path d="M 118.89224826269711 90.83032412892265 l 56.676744788091334 -27.509027613232025 a84.0,84.0 0 0,0 0.6201672246329752,1.3062303374378386 l -57.14187020656606 26.529354860153646" fill="#4dd2ff" stroke="none" /><path d="M 120.53481517161879 95.60439243477599 l 3.609265141112341 -0.7725861190657156 a24.69102752227909,24.69102752227909 0 0,0 0.08538475253571891,0.4163663771418201 l -3.622029189563057 0.7103440857604837" fill="#ff1f03" stroke="none" /><path d="M 120.83666639777658 97.38593545837742 l 4.54288695329356 -0.569928004532995 a25.57849754840557,25.57849754840557 0 0,0 0.05104694299772589,0.437339033761782 l -4.552024249294874 0.4916452324463602" fill="#ff2c04" stroke="none" /><path d="M 120.96714384426684 98.82574320788733 l 7.5204367123035505 -0.42117915318688454 a28.532221466661895,28.532221466661895 0 0,0 0.023242064684636198,0.49060325118973497 l -7.526572385221684 0.2916647953741498" fill="#ff5607" stroke="none" /><line stroke="#e1ed5e" stroke-width="0.3" x1="184.98032266829074" x2="189.97916517819016" y1="98.17113171792111" y2="98.06355123074" /><path d="M 185.9800911702706 98.14961562048488 a86.0,86.0 0 0,1 -9.607161424134198,41.387399972396054" fill="none" id="id16" stroke="none" /><text fill="#e1ed5e" style="font-size:6.75px; font-family:Arial;" text-anchor="middle"><textPath startOffset="21.466115282336823" xlink:href="#id16">April</textPath></text><path d="M 120.9764740272857 100.99374915477107 l 4.602346958837275 0.21803370739803632 a25.607508679002184,25.607508679002184 0 0,0 -0.024648628337233247,0.44011781697323854 l -4.597911979612513 -0.29722324070669814" fill="#ff2c04" stroke="none" /><path d="M 120.92983693683757 101.71520430193887 l 7.600839461654588 0.6228903064233104 a28.626319745177337,28.626319745177337 0 0,0 -0.04447358279942574,0.4907622802677801 l -7.588991282578086 -0.7536339752396611" fill="#ff5708" stroke="none" /><path d="M 120.81339534386255 102.79330883721812 l 7.489872499318893 1.0051952935278154 a28.55702372857092,28.55702372857092 0 0,0 -0.06957843901017927,0.4866314403824761 l -7.471460009292112 -1.133972205890701" fill="#ff5608" stroke="none" /><path d="M 120.76222939487914 103.15116336523771 l 6.190103280165394 0.9394957695779025 a27.260992806270355,27.260992806270355 0 0,0 -0.07440725152499778,0.46333402627342923 l -6.173014274279107 -1.0459090255445367" fill="#ff4406" stroke="none" /><path d="M 120.49622156327973 104.57218783832717 l 6.0113251661273654 1.3409743709073927 a27.159078057335098,27.159078057335098 0 0,0 -0.10571274620259578,0.45540774388116845 l -5.987351853994217 -1.444250772137126" fill="#ff4206" stroke="none" /><path d="M 120.32669344350535 105.2749913415812 l 3.554206846125396 0.9223541640753421 a24.67193729644608,24.67193729644608 0 0,0 -0.11021532848355518,0.41015223839588943 l -3.537803441300064 -0.9833973356467798" fill="#ff1f03" stroke="none" /><path d="M 120.23288151984713 105.62410040840565 l 5.5824533915323515 1.5517452800000318 a26.79410901542536,26.79410901542536 0 0,0 -0.1273452079912379,0.4433053751392774 l -5.554915546655014 -1.6476081306438912" fill="#ff3d05" stroke="none" /><path d="M 119.9155931802556 106.66101706037122 l 7.17006971967586 2.3981187150459284 a28.560481013564296,28.560481013564296 0 0,0 -0.15995116380318716,0.46489295349219245 l -7.127727724929442 -2.521184371627421" fill="#ff5608" stroke="none" /><path d="M 119.79798401119884 107.00284435728193 l 2.4323581659082847 0.8603616230513365 a23.58003650549372,23.58003650549372 0 0,0 -0.13864583014474133,0.3814937785436829 l -2.4171880747583163 -0.9021031986011505" fill="#ff0f01" stroke="none" /><path d="M 119.54520255179757 107.68017299344265 l 16.90942275811899 6.644458744156943 a39.16803264020615,39.16803264020615 0 0,0 -0.25197613401776064,0.625384100219735 l -16.792544009843834 -6.934542212219491" fill="#ffe315" stroke="none" /><path d="M 119.12269723197855 108.67885076344098 l 10.803731933880924 4.903282000698854 a32.864349880104506,32.864349880104506 0 0,0 -0.23822801203851196,0.5131219441720779 l -10.71772930500258 -5.088524012149763" fill="#ff910d" stroke="none" /><path d="M 118.81262510543309 109.33194174019688 l 5.363358829850719 2.6604767729880927 a26.986965391360368,26.986965391360368 0 0,0 -0.21001170393752533,0.4143730156842524 l -5.316768456126924 -2.7524040003750394" fill="#ff4006" stroke="none" /><line stroke="#e1ed5e" stroke-width="0.3" x1="174.80103733775053" x2="179.2010983576182" y1="140.37084112569926" y2="142.7455964860345" /><path d="M 175.68104954172406 140.8457921977663 a86.0,86.0 0 0,1 -30.038265399797805,32.042727171017184" fill="none" id="id17" stroke="none" /><text fill="#e1ed5e" style="font-size:6.75px; font-family:Arial;" text-anchor="middle"><textPath startOffset="22.206326154141568" xlink:href="#id17">May</textPath></text><path d="M 118.48025628344425 109.97397251340804 l 13.284407984833559 7.169723085297711 a36.09570881500304,36.09570881500304 0 0,0 -0.29980681594788705,0.5442364557218187 l -13.159024759434162 -7.397330059417335" fill="#ffbb11" stroke="none" /><path d="M 115.56566222782051 114.09645910891815 l 3.3593663922623835 3.0422843748827266 a25.53219999284206,25.53219999284206 0 0,0 -0.2978192428580126,0.3232239681075443 l -3.306500741408649 -3.099659597791606" fill="#ff2b04" stroke="none" /><path d="M 113.48314897796784 116.09983520530334 l 2.902681998936048 3.4660079713303253 a25.520926237428867,25.520926237428867 0 0,0 -0.3392215647654257,0.279156253715396 l -2.842590305625931 -3.5154593439029" fill="#ff2b04" stroke="none" /><path d="M 112.92097659922987 116.55440617244103 l 4.6589690791997835 5.969089556784255 a28.57205540245517,28.57205540245517 0 0,0 -0.39030961251698365,0.29927276722232604 l -4.555530738189306 -6.048401665833953" fill="#ff5608" stroke="none" /><path d="M 111.7513745106137 117.40417183066458 l 18.246699576538905 27.023961706417694 a53.60730825668373,53.60730825668373 0 0,0 -0.7692018242945159,0.509785025848926 l -17.778823053504425 -27.33404475335794" fill="#74ff27" stroke="none" /><path d="M 111.45004920935366 117.60387380957326 l 6.165348067525358 9.478912045561353 a32.30757667943166,32.30757667943166 0 0,0 -0.4687955498089062,0.2992075001818028 l -6.001270715669521 -9.583633974566967" fill="#ff890c" stroke="none" /><line stroke="#e1ed5e" stroke-width="0.3" x1="143.8653032363475" x2="146.44561519142675" y1="172.8068346515853" y2="177.08958963109032" /><path d="M 144.38136562736335 173.6633856474863 a86.0,86.0 0 0,1 -40.68145358897372,12.25698825130547" fill="none" id="id18" stroke="none" /><text fill="#e1ed5e" style="font-size:6.75px; font-family:Arial;" text-anchor="middle"><textPath startOffset="21.466115282336833" xlink:href="#id18">June</textPath></text><path d="M 110.21172684928248 118.3499491758327 l 2.9340303906817873 5.272302064478181 a27.0337138971404,27.0337138971404 0 0,0 -0.4085659095915169,0.22278270988342633 l -2.8428416692216216 -5.322025426121378" fill="#ff4106" stroke="none" /><path d="M 109.57404056367764 118.69057910512821 l 6.788210973082743 13.25204268050084 a35.88947424931105,35.88947424931105 0 0,0 -0.552263969475479,0.27691661910694637 l -6.559093095924503 -13.366927140517088" fill="#ffb911" stroke="none" /><path d="M 106.91757812671514 119.82793768551818 l 4.474824598027992 12.826243760177874 a34.584424322679936,34.584424322679936 0 0,0 -0.5637759625997755,0.19126341622304532 l -4.25337890249099 -12.901370163299044" fill="#ffa80f" stroke="none" /><path d="M 101.98527174616119 120.90594882070398 l 0.5833534265177556 6.143016391959622 a27.170652446225976,27.170652446225976 0 0,0 -0.46598404138942695,0.040207063849668344 l -0.4775250673867869 -6.152147708087954" fill="#ff4206" stroke="none" /><path d="M 101.62511606390274 120.93702456842531 l 0.4688239699615033 6.0400479666529145 a27.05821552557174,27.05821552557174 0 0,0 -0.46467619739956556,0.032046791169339256 l -0.36478501178300743 -6.047223102338539" fill="#ff4106" stroke="none" /><path d="M 100.90346689309514 120.98055641714683 l 0.26003006552709346 6.038489624401826 a27.04408575212054,27.04408575212054 0 0,0 -0.4652608471336503,0.01602452430455433 l -0.15604886671879087 -6.042070947132474" fill="#ff4106" stroke="none" /><line stroke="#e1ed5e" stroke-width="0.3" x1="102.19456741930631" x2="102.32365962044197" y1="184.97166512339345" y2="189.96999836594603" /><path d="M 102.22038585953345 185.97133177190398 a86.0,86.0 0 0,1 -42.740103519485714,-10.115201625700543" fill="none" id="id19" stroke="none" /><text fill="#e1ed5e" style="font-size:6.75px; font-family:Arial;" text-anchor="middle"><textPath startOffset="22.20632615414155" xlink:href="#id19">July</textPath></text><path d="M 100.54218724476979 120.99299961872073 l 0.23328352802771818 9.032527161385088 a30.03553917182635,30.03553917182635 0 0,0 -0.5169549805955159,0.00889984880616093 l -0.07776885753953425 -9.03520448747041" fill="#ff6a09" stroke="none" /><path d="M 99.45781275523022 120.99299961872073 l -0.13173863515056863 5.10080077346892 a26.102501700010738,26.102501700010738 0 0,0 -0.4490620302186625,-0.015466604296974442 l 0.21952101704387414 -5.097777370745852" fill="#ff3304" stroke="none" /><path d="M 96.58105272829116 120.7198165907248 l -0.9994862426102216 6.057177834592833 a27.13908593106904,27.13908593106904 0 0,0 -0.46026730322184084,-0.08002337040439797 l 1.1036025173041124 -6.03907588566743" fill="#ff4206" stroke="none" /><path d="M 95.51606077576429 120.51570834832081 l -1.6179476489296896 7.402718999598097 a28.577466805053504,28.577466805053504 0 0,0 -0.4796657728655089,-0.10917036824650574 l 1.7451335711880611 -7.373771897773905" fill="#ff5608" stroke="none" /><path d="M 94.81253420990036 120.34920634021253 l -1.861702586049288 7.303020704238044 a28.53658065208833,28.53658065208833 0 0,0 -0.47494322225645785,-0.12543682168970438 l 1.9871362511172352 -7.269892533244758" fill="#ff5607" stroke="none" /><path d="M 93.42475214034765 119.94407469862007 l -2.9140436722406164 8.838891843277345 a30.30686088543717,30.30686088543717 0 0,0 -0.4940455133688596,-0.16760706189184663 l 3.065758918546702 -8.787421794487376" fill="#ff6e0a" stroke="none" /><path d="M 92.06813273071674 119.44442032107085 l -3.337907795915909 8.182648545836416 a29.837271393293012,29.837271393293012 0 0,0 -0.4738848371611018,-0.19808390036653953 l 3.478264092574473 -8.123979602449904" fill="#ff6809" stroke="none" /><path d="M 91.07499286063937 119.00905698771935 l -3.9802062904232876 8.477300579835212 a30.365183780108083,30.365183780108083 0 0,0 -0.4712204156086547,-0.22621443550965534 l 4.125539374032185 -8.407531867825995" fill="#ff6f0a" stroke="none" /><path d="M 90.42595943632237 118.69057910512821 l -2.9017830398897817 5.664902408993551 a27.364861672810566,27.364861672810566 0 0,0 -0.41739114975739255,-0.21835932242906267 l 2.99886509217367 -5.614113667619771" fill="#ff4506" stroke="none" /><line stroke="#e1ed5e" stroke-width="0.3" x1="58.666819895761336" x2="56.23545636021788" y1="174.27360380694188" y2="178.64263932499728" /><path d="M 58.180547188652646 175.14741091055294 a86.0,86.0 0 0,1 -31.652253787137756,-30.449443065178592" fill="none" id="id20" stroke="none" /><text fill="#e1ed5e" style="font-size:6.75px; font-family:Arial;" text-anchor="middle"><textPath startOffset="22.20632615414155" xlink:href="#id20">August</textPath></text><path d="M 87.95078237400918 117.19931262002967 l -0.9009421804595406 1.2860242627596008 a22.570208653949393,22.570208653949393 0 0,0 -0.3162759815050412,-0.2256545151557112 l 0.9229454898134687 -1.2703254857596704" fill="#ff0000" stroke="none" /><path d="M 87.65650970185807 116.9893568818739 l -4.442083806802791 6.1140038409011295 a28.557324362048604,28.557324362048604 0 0,0 -0.3951994125830195,-0.2923590775453304 l 4.546668189804375 -6.036634814616033" fill="#ff5608" stroke="none" /><path d="M 85.18274418774928 114.88116024355367 l -3.4065741343093032 3.4212661383823066 a25.82802333488422,25.82802333488422 0 0,0 -0.31234612677039514,-0.31640497736134193 l 3.4649608861352315 -3.3621206670403" fill="#ff2f04" stroke="none" /><path d="M 84.9287848128048 114.62390073753433 l -5.420265100500593 5.259391350751045 a28.55251422640564,28.55251422640564 0 0,0 -0.33922215434034864,-0.35567307263355413 l 5.5099938062198985 -5.165311161534991" fill="#ff5607" stroke="none" /><path d="M 84.43433777217949 114.09645910891817 l -5.589510590050974 5.061930955349471 a28.540939837514763,28.540939837514763 0 0,0 -0.3266458244126603,-0.3669900464762367 l 5.675815264111972 -4.96496673913237" fill="#ff5607" stroke="none" /><path d="M 84.19399662182784 113.82643327865904 l -28.37353253783533 24.81998422548788 a58.69733366737053,58.69733366737053 0 0,0 -0.6586888736637703,-0.7662039703039609 l 28.796563921069882 -24.327903156022387" fill="#40ff2d" stroke="none" /><path d="M 83.28015986056508 112.70617746262583 l -4.815668211807613 3.659648321399653 a27.048444937546975,27.048444937546975 0 0,0 -0.27852007005537605,-0.3731231489385247 l 4.877949548558074 -3.5762122929518205" fill="#ff4106" stroke="none" /><line stroke="#e1ed5e" stroke-width="0.3" x1="26.63291911575756" x2="22.317208475507996" y1="142.92168965132927" y2="145.44649492493687" /><path d="M 25.769776987707644 143.4266507060508 a86.0,86.0 0 0,1 -11.730757126820373,-40.83630448921669" fill="none" id="id21" stroke="none" /><text fill="#e1ed5e" style="font-size:6.75px; font-family:Arial;" text-anchor="middle"><textPath startOffset="21.46611528233685" xlink:href="#id21">September</textPath></text><path d="M 80.32549172779594 107.34259656027581 l -4.416536658849656 1.6482672111006023 a25.714083246841557,25.714083246841557 0 0,0 -0.15119359197509238,-0.41601983005154836 l 4.444254511829973 -1.5719995840429366" fill="#ff2e04" stroke="none" /><path d="M 80.0844068197444 106.66101706037122 l -5.7306957220305295 1.9167022356173593 a27.042732901470956,27.042732901470956 0 0,0 -0.1438515627996254,-0.4427295866253411 l 5.762839535846404 -1.817773749014215" fill="#ff4106" stroke="none" /><path d="M 79.86692584326677 105.97154293290107 l -7.242315176598033 2.148096990751538 a28.55416771053291,28.55416771053291 0 0,0 -0.13571029452858288,-0.4724253387720336 l 7.2782181080127195 -2.023114176474908" fill="#ff5608" stroke="none" /><path d="M 79.67330655649465 105.27499134158121 l -5.880998883264636 1.526181239230611 a27.07580258401632,27.07580258401632 0 0,0 -0.11318805348844052,-0.45213000915174684 l 5.9063982510481345 -1.4247233906814725" fill="#ff4106" stroke="none" /><path d="M 79.58551787078972 104.9243191809786 l -31.09261305932762 7.500065390133689 a52.98439569092015,52.98439569092015 0 0,0 -0.20623402468034976,-0.8884507806770539 l 31.217107649938523 -6.963745952108061" fill="#7bff26" stroke="none" /><path d="M 79.29508885075956 103.50808413554451 l -4.831170635574531 0.8185571500696462 a25.900025052789807,25.900025052789807 0 0,0 -0.07069257133450141,-0.4402027091812763 l 4.844544961270323 -0.7352752111951563" fill="#ff3004" stroke="none" /><path d="M 79.10278846688536 102.07522291339032 l -6.027515378392956 0.5985697184637352 a27.057163308399844,27.057163308399844 0 0,0 -0.04203575602541185,-0.46386106495737117 l 6.036925730695443 -0.4947272649577978" fill="#ff4106" stroke="none" /><line stroke="#e1ed5e" stroke-width="0.3" x1="15.007084014347285" x2="10.007500721073583" y1="101.09737516637583" y2="101.16192664675087" /><path d="M 14.007167355692545 101.11028546245083 a86.0,86.0 0 0,1 10.666146001902534,-42.60595125391555" fill="none" id="id22" stroke="none" /><text fill="#e1ed5e" style="font-size:6.75px; font-family:Arial;" text-anchor="middle"><textPath startOffset="22.20632615414155" xlink:href="#id22">October</textPath></text><path d="M 79.00486145842228 99.54816195383935 l -16.27583475416019 -0.3502735340559789 a37.279603450127055,37.279603450127055 0 0,0 0.0193291291874939,-0.6414396961280514 l 16.26739393051705 0.6303833776090246" fill="#ffcb12" stroke="none" /><path d="M 79.46518482838121 95.60439243477599 l -1.640815588280882 -0.35122699438528043 a22.67798575569951,22.67798575569951 0 0,0 0.0849945128791138,-0.38101373548789774 l 1.6345266883997305 0.3794188994231374" fill="#ff0200" stroke="none" /><path d="M 79.71946130924805 94.55025226153421 l -4.381281544866574 -1.1773296338329762 a25.536709495007337,25.536709495007337 0 0,0 0.11772815787239709,-0.42353082214215326 l 4.360366616427816 1.252571759394072" fill="#ff2b04" stroke="none" /><path d="M 79.91906864156998 93.8553929516997 l -7.231751322467566 -2.212859023042017 a28.562735764646934,28.562735764646934 0 0,0 0.14790670871348346,-0.46890468577468236 l 7.192589129985878 2.3370138752431138" fill="#ff5608" stroke="none" /><path d="M 80.52162464483688 92.15188598940014 l -3.3646050898020565 -1.3556471658408473 a24.627443541748683,24.627443541748683 0 0,0 0.16181205315218275,-0.3918407215249335 l 3.340771349763674 1.413362457819092" fill="#ff1e03" stroke="none" /><path d="M 80.95270993114464 91.15688171328213 l -1.8802560920481306 -0.872949746194668 a23.07301814537776,23.07301814537776 0 0,0 0.17034678127530514,-0.3587937652112728 l 1.864951116931074 0.905185927046473" fill="#ff0701" stroke="none" /><path d="M 81.43458229118936 90.18545643968196 l -6.16357781577142 -3.258353994997396 a27.971840664256828,27.971840664256828 0 0,0 0.22869230914306185,-0.4237321164997207 l 6.106577407409887 3.363967094829589" fill="#ff4e07" stroke="none" /><line stroke="#e1ed5e" stroke-width="0.3" x1="26.266209847984243" x2="21.928928074336255" y1="57.711370442889674" y2="55.22380399835377" /><path d="M 25.398753493254645 57.213857153982495 a86.0,86.0 0 0,1 29.58750427330803,-30.492523968695096" fill="none" id="id23" stroke="none" /><text fill="#e1ed5e" style="font-size:6.75px; font-family:Arial;" text-anchor="middle"><textPath startOffset="21.46611528233685" xlink:href="#id23">November</textPath></text><path d="M 81.78341655067845 89.55222093294921 l -4.096172309344597 -2.3492826427997096 a25.722050034000215,25.722050034000215 0 0,0 0.22358625649985658,-0.3821813889081592 l 4.055126378374416 2.4194434440617605" fill="#ff2e04" stroke="none" /><path d="M 82.34701348167596 88.62581576622439 l -2.864811641268692 -1.8458573776755334 a24.407981103038544,24.407981103038544 0 0,0 0.230601217855388,-0.3512214754339384 l 2.8326137880553834 1.8948969170871388" fill="#ff1b02" stroke="none" /><path d="M 82.7489923806493 88.02491185347247 l -17.941887599525124 -12.454674547728777 a42.84102215382413,42.84102215382413 0 0,0 0.42573241324788436,-0.602168306595607 l 17.72484256647336 12.761669354656169" fill="#eeff19" stroke="none" /><path d="M 85.31137513191541 84.99185889309783 l -5.280776440531238 -5.3956472226138565 a28.549808525106474,28.549808525106474 0 0,0 0.35417635773557155,-0.3407173755280557 l 5.187116839183239 5.485747684904226" fill="#ff5607" stroke="none" /><path d="M 85.83668400450813 84.49514656593479 l -5.335232579927385 -5.840581345128064 a28.91056869832862,28.91056869832862 0 0,0 0.37031549153343996,-0.3324729046519154 l 5.233906100797974 5.9315532585492585" fill="#ff5b08" stroke="none" /><path d="M 86.37877921826538 84.01681056812374 l -4.889228999111444 -5.737038883725472 a28.53778318599907,28.53778318599907 0 0,0 0.3766205486616509,-0.315408878476986 l 4.789750913490683 5.82034891959627" fill="#ff5607" stroke="none" /><path d="M 87.51073957382395 83.11751280151077 l -4.491681764094265 -6.07167736874767 a28.55251422640564,28.55251422640564 0 0,0 0.39763411978036234,-0.2888980986064118 l 4.3865023279601205 6.14809470217075" fill="#ff5607" stroke="none" /><line stroke="#e1ed5e" stroke-width="0.3" x1="56.762969772571076" x2="54.21961505331055" y1="26.818313649435495" y2="22.513508569990535" /><path d="M 56.25429882871897 25.957352633546506 a86.0,86.0 0 0,1 42.265352541879196,-11.944610805530505" fill="none" id="id24" stroke="none" /><text fill="#e1ed5e" style="font-size:6.75px; font-family:Arial;" text-anchor="middle"><textPath startOffset="22.20632615414155" xlink:href="#id24">December</textPath></text><path d="M 91.56875222667455 80.76684994638697 l -1.852816562677531 -4.22659847389838 a25.614874199205467,25.614874199205467 0 0,0 0.40534470183590227,-0.1735474472493716 l 1.7797881030513205 4.257865449110538" fill="#ff2c04" stroke="none" /></svg>