<?xml version="1.0" encoding="utf-8" ?>
<svg baseProfile="full" height="200mm" version="1.1" viewBox="0,0,200,200" width="200mm" xmlns="http://www.w3.org/2000/svg" xmlns:ev="http://www.w3.org/2001/xml-events" xmlns:xlink="http://www.w3.org/1999/xlink"><defs /><rect fill="#1a1a1a" height="200" width="200" x="0" y="0" /><text alignment-baseline="middle" fill="#e1ed5e" style="dominant-baseline: central; font-size:9.0px; font-family:Arial;" text-anchor="middle" x="100.0" y="100.0">2021</text><line stroke="#e1ed5e" stroke-width="0.3" x1="100.0" x2="100.0" y1="15.0" y2="10.0" /><path d="M 100.0 14.0 a86.0,86.0 0 0,1 42.46469731375804,11.215312516191453" fill="none" id="id13" stroke="none" /><text fill="#e1ed5e" style="font-size:6.75px; font-family:Arial;" text-anchor="middle"><textPath startOffset="22.20632615414155" xlink:href="#id13">January</textPath></text><path d="M 100.0 79.0 l 0.0 -23.066103575391004 a44.066103575391004,44.066103575391004 0 0,0 0.7585255352431055,0.006528868756895424 l -0.39704505597057715 23.062686083242667" fill="#e0ff1b" stroke="none" /><path d="M 101.44485096284872 79.0497635885617 l 0.5277912686522214 -7.652935934898041 a28.67111413335242,28.67111413335242 0 0,0 0.49206432455105953,0.03819366193548301 l -0.659445782565622 7.642717010774094" fill="#ff5708" stroke="none" /><path d="M 102.16513564639614 79.11191278185805 l 0.7925786628420214 -7.646381077434575 a28.68734834114742,28.68734834114742 0 0,0 0.49073574819786675,0.05513987920224556 l -0.9240811145496134 7.631605244761729" fill="#ff5708" stroke="none" /><path d="M 102.88285421437855 79.19881850522331 l 2.831781853471027 -20.43266981516913 a41.62796607136466,41.62796607136466 0 0,0 0.7089262832754032,0.10447730595814082 l -3.183077117175086 20.380898025050023" fill="#fdff18" stroke="none" /><path d="M 103.95276090670814 79.375362276772 l 1.1660934684447144 -6.0844194490184265 a27.195154074657314,27.195154074657314 0 0,0 0.45899410017978703,0.09206989850375825 l -1.2706539780916266 6.06344559443746" fill="#ff4206" stroke="none" /><path d="M 104.66035177308747 79.52364482259891 l 1.0448221458421159 -4.590672635277044 a25.708070577287856,25.708070577287856 0 0,0 0.4306423944278834,0.10191914126334632 l -1.1236882272325228 4.572007581872829" fill="#ff2d04" stroke="none" /><path d="M 106.0581310904928 79.89281104454417 l 2.217664951854921 -7.360522174374336 a28.68734834114742,28.68734834114742 0 0,0 0.4715853459765239,0.14652386255474378 l -2.3440356705421634 7.3212581769370715" fill="#ff5708" stroke="none" /><path d="M 107.4271985657038 80.35727306442388 l 2.7343552759732566 -7.231554879764407 a28.731240828889447,28.731240828889447 0 0,0 0.4610910404659364,0.17889616022167185 l -2.85842948143886 7.183416015652188" fill="#ff5808" stroke="none" /><path d="M 108.09893153111575 80.62456947434976 l 3.08206359723538 -7.373356457508285 a28.99158942056476,28.99158942056476 0 0,0 0.45877981199657775,0.19642557275556732 l -3.208527167022273 7.319211356789927" fill="#ff5c08" stroke="none" /><path d="M 108.76106565485865 80.91482961587045 l 4.10883663223463 -8.950720185878595 a30.848752728964605,30.848752728964605 0 0,0 0.48068495462610505,0.22568803147851116 l -4.262299798160333 8.87866717176008" fill="#ff750a" stroke="none" /><path d="M 110.36928655335952 81.73862282372117 l 16.648826437833442 -29.32029099197544 a54.71739737303604,54.71739737303604 0 0,0 0.8150371756799398,0.47212213916336937 l -17.15106034597871 29.02936469542202" fill="#68ff28" stroke="none" /><line stroke="#e1ed5e" stroke-width="0.3" x1="143.23703022742887" x2="145.7803849466894" y1="26.81831364943548" y2="22.513508569990506" /><path d="M 143.74570117128098 25.957352633546492 a86.0,86.0 0 0,1 28.547481713284135,27.462654790039103" fill="none" id="id14" stroke="none" /><text fill="#e1ed5e" style="font-size:6.75px; font-family:Arial;" text-anchor="middle"><textPath startOffset="19.985693538727396" xlink:href="#id14">February</textPath></text><path d="M 111.2981086023043 82.29822771554956 l 3.3677995392746127 -5.276637235701327 a27.259790272359613,27.259790272359613 0 0,0 0.3933626344157086,0.25585399951751014 l -3.4581291994746017 5.217884312024289" fill="#ff4306" stroke="none" /><path d="M 112.19680574252982 82.90503203632743 l 19.648115096663012 -27.538677356546778 a54.82938334347375,54.82938334347375 0 0,0 0.7635766647729745,0.5547709203500555 l -20.119237077789776 27.19638720138005" fill="#67ff28" stroke="none" /><path d="M 113.06298171725822 83.55741782278167 l 4.904567338429873 -6.1734566618348135 a28.88456390250886,28.88456390250886 0 0,0 0.3866358450924771,0.3126326313440419 l -5.0101065820868405 6.088117933226642" fill="#ff5a08" stroke="none" /><path d="M 114.16331599549186 84.49514656593476 l 11.857931036202746 -12.981104340685304 a38.58179735872016,38.58179735872016 0 0,0 0.4864836080768524,0.4521334948085038 l -12.079622528074445 12.77506625980216" fill="#ffdb14" stroke="none" /><path d="M 114.42810811169701 84.74124197986012 l 1.0962697656180065 -1.159383818644892 a22.595612182813785,22.595612182813785 0 0,0 0.28031121878373205,0.26965917037966264 l -1.1160642280141566 1.1403415615029275" fill="#ff0000" stroke="none" /><path d="M 115.19652480421416 85.50635884689758 l 5.522439195341242 -5.267010255193845 a28.631430514297982,28.631430514297982 0 0,0 0.33707739246983315,0.3595706602452982 l -5.612283909781539 5.171170178070492" fill="#ff5708" stroke="none" /><path d="M 116.15771136456269 86.58626213691792 l 39.32833555473379 -32.649424898103895 a72.11460577645752,72.11460577645752 0 0,0 0.7846807696778981,0.9619258419265164 l -39.8845148164881 31.96761488656928" fill="#3effb6" stroke="none" /><path d="M 116.82858285166822 87.43820079747576 l 6.103124288770061 -4.555714673025972 a28.6159478901972,28.6159478901972 0 0,0 0.29125228297604544,0.39726778666342705 l -6.180639184259733 4.449984442691051" fill="#ff5608" stroke="none" /><path d="M 117.45458315368197 88.32363383020206 l 5.638240782787731 -3.7717408289656165 a27.7834937904871,27.7834937904871 0 0,0 0.26249231664499245,0.39979380681303167 l -5.7023297347906485 3.674128958174911" fill="#ff4b07" stroke="none" /><line stroke="#e1ed5e" stroke-width="0.3" x1="172.23445277983987" x2="176.4835382374775" y1="55.19839476539836" y2="52.563006222186495" /><path d="M 173.08426987136738 54.67131705675599 a86.0,86.0 0 0,1 12.851231095245387,41.99856678651699" fill="none" id="id15" stroke="none" /><text fill="#e1ed5e" style="font-size:6.75px; font-family:Arial;" text-anchor="middle"><textPath startOffset="22.20632615414155" xlink:href="#id15">March</textPath></text><path d="M 118.03404312379186 89.2402003453031 l 6.515129669667509 -3.887175465246107 a28.586636126122904,28.586636126122904 0 0,0 0.2484863744886084,0.42474376204277303 l -6.581075718626445 3.7744522908494385" fill="#ff5608" stroke="none" /><path d="M 118.89224826269711 90.83032412892265 l 56.676744788091334 -27.509027613232025 a84.0,84.0 0 0,0 0.6201672246329752,1.3062303374378386 l -57.14187020656606 26.529354860153646" fill="#4dd2ff" stroke="none" /><path d="M 120.53481517161879 95.60439243477599 l 3.609265141112341 -0.7725861190657156 a24.69102752227909,24.69102752227909 0 0,0 0.08538475253571891,0.4163663771418201 l -3.622029189563057 0.7103440857604837" fill="#ff1f03" stroke="none" /><path d="M 120.83666639777658 97.38593545837742 l 4.54288695329356 -0.569928004532995 a25.57849754840557,25.57849754840557 0 0,0 0.05104694299772589,0.437339033761782 l -4.552024249294874 0.4916452324463602" fill="#ff2b04" stroke="none" /><path d="M 120.96714384426684 98.82574320788733 l 7.5204367123035505 -0.42117915318688454 a28.532221466661895,28.532221466661895 0 0,0 0.023242064684636198,0.49060325118973497 l -7.526572385221684 0.2916647953741498" fill="#ff5507" stroke="none" /><line stroke="#e1ed5e" stroke-width="0.3" x1="184.98032266829074" x2="189.97916517819016" y1="98.17113171792111" y2="98.06355123074" /><path d="M 185.9800911702706 98.14961562048488 a86.0,86.0 0 0,1 -9.607161424134198,41.387399972396054" fill="none" id="id16" stroke="none" /><text fill="#e1ed5e" style="font-size:6.75px; font-family:Arial;" text-anchor="middle"><textPath startOffset="21.466115282336823" xlink:href="#id16">April</textPath></text><path d="M 120.9764740272857 100.99374915477107 l 4.602346958837275 0.21803370739803632 a25.607508679002184,25.607508679002184 0 0,0 -0.024648628337233247,0.44011781697323854 l -4.597911979612513 -0.29722324070669814" fill="#ff2c04" stroke="none" /><path d="M 120.92983693683757 101.71520430193887 l 7.600839461654588 0.6228903064233104 a28.626319745177337,28.626319745177337 0 0,0 -0.04447358279942574,0.4907622802677801 l -7.588991282578086 -0.7536339752396611" fill="#ff5708" stroke="none" /><path d="M 120.81339534386255 102.79330883721812 l 7.489872499318893 1.0051952935278154 a28.55702372857092,28.55702372857092 0 0,0 -0.06957843901017927,0.4866314403824761 l -7.471460009292112 -1.133972205890701" fill="#ff5607" stroke="none" /><path d="M 120.76222939487914 103.15116336523771 l 6.190103280165394 0.9394957695779025 a27.260992806270355,27.260992806270355 0 0,0 -0.07440725152499778,0.46333402627342923 l -6.173014274279107 -1.0459090255445367" fill="#ff4306" stroke="none" /><path d="M 120.49622156327973 104.57218783832717 l 6.0113251661273654 1.3409743709073927 a27.159078057335098,27.159078057335098 0 0,0 -0.10571274620259578,0.45540774388116845 l -5.987351853994217 -1.444250772137126" fill="#ff4206" stroke="none" /><path d="M 120.32669344350535 105.2749913415812 l 3.554206846125396 0.9223541640753421 a24.67193729644608,24.67193729644608 0 0,0 -0.11021532848355518,0.41015223839588943 l -3.537803441300064 -0.9833973356467798" fill="#ff1e03" stroke="none" /><path d="M 120.23288151984713 105.62410040840565 l 5.5824533915323515 1.5517452800000318 a26.79410901542536,26.79410901542536 0 0,0 -0.1273452079912379,0.4433053751392774 l -5.554915546655014 -1.6476081306438912" fill="#ff3d05" stroke="none" /><path d="M 119.9155931802556 106.66101706037122 l 7.17006971967586 2.3981187150459284 a28.560481013564296,28.560481013564296 0 0,0 -0.15995116380318716,0.46489295349219245 l -7.127727724929442 -2.521184371627421" fill="#ff5607" stroke="none" /><path d="M 119.79798401119884 107.00284435728193 l 2.4323581659082847 0.8603616230513365 a23.58003650549372,23.58003650549372 0 0,0 -0.13864583014474133,0.3814937785436829 l -2.4171880747583163 -0.9021031986011505" fill="#ff0e01" stroke="none" /><path d="M 119.54520255179757 107.68017299344265 l 16.90942275811899 6.644458744156943 a39.16803264020615,39.16803264020615 0 0,0 -0.25197613401776064,0.625384100219735 l -16.792544009843834 -6.934542212219491" fill="#ffe215" stroke="none" /><path d="M 119.12269723197855 108.67885076344098 l 10.803731933880924 4.903282000698854 a32.864349880104506,32.864349880104506 0 0,0 -0.23822801203851196,0.5131219441720779 l -10.71772930500258 -5.088524012149763" fill="#ff910d" stroke="none" /><path d="M 118.81262510543309 109.33194174019688 l 5.363358829850719 2.6604767729880927 a26.986965391360368,26.986965391360368 0 0,0 -0.21001170393752533,0.4143730156842524 l -5.316768456126924 -2.7524040003750394" fill="#ff4006" stroke="none" /><line stroke="#e1ed5e" stroke-width="0.3" x1="174.80103733775053" x2="179.2010983576182" y1="140.37084112569926" y2="142.7455964860345" /><path d="M 175.68104954172406 140.8457921977663 a86.0,86.0 0 0,1 -30.038265399797805,32.042727171017184" fill="none" id="id17" stroke="none" /><text fill="#e1ed5e" style="font-size:6.75px; font-family:Arial;" text-anchor="middle"><textPath startOffset="22.206326154141568" xlink:href="#id17">May</textPath></text><path d="M 118.48025628344425 109.97397251340804 l 13.284407984833559 7.169723085297711 a36.09570881500304,36.09570881500304 0 0,0 -0.29980681594788705,0.5442364557218187 l -13.159024759434162 -7.397330059417335" fill="#ffbb11" stroke="none" /><path d="M 115.56566222782051 114.09645910891815 l 3.3593663922623835 3.0422843748827266 a25.53219999284206,25.53219999284206 0 0,0 -0.2978192428580126,0.3232239681075443 l -3.306500741408649 -3.099659597791606" fill="#ff2b04" stroke="none" /><path d="M 113.48314897796784 116.09983520530334 l 2.902681998936048 3.4660079713303253 a25.520926237428867,25.520926237428867 0 0,0 -0.3392215647654257,0.279156253715396 l -2.842590305625931 -3.5154593439029" fill="#ff2b04" stroke="none" /><path d="M 112.92097659922987 116.55440617244103 l 4.6589690791997835 5.969089556784255 a28.57205540245517,28.57205540245517 0 0,0 -0.39030961251698365,0.29927276722232604 l -4.555530738189306 -6.048401665833953" fill="#ff5607" stroke="none" /><path d="M 111.7513745106137 117.40417183066458 l 18.246699576538905 27.023961706417694 a53.60730825668373,53.60730825668373 0 0,0 -0.7692018242945159,0.509785025848926 l -17.778823053504425 -27.33404475335794" fill="#74ff27" stroke="none" /><path d="M 111.45004920935366 117.60387380957326 l 6.165348067525358 9.478912045561353 a32.30757667943166,32.30757667943166 0 0,0 -0.4687955498089062,0.2992075001818028 l -6.001270715669521 -9.583633974566967" fill="#ff890c" stroke="none" /><line stroke="#e1ed5e" stroke-width="0.3" x1="143.8653032363475" x2="146.44561519142675" y1="172.8068346515853" y2="177.08958963109032" /><path d="M 144.38136562736335 173.6633856474863 a86.0,86.0 0 0,1 -40.68145358897372,12.25698825130547" fill="none" id="id18" stroke="none" /><text fill="#e1ed5e" style="font-size:6.75px; font-family:Arial;" text-anchor="middle"><textPath startOffset="21.466115282336833" xlink:href="#id18">June</textPath></text><path d="M 110.21172684928248 118.3499491758327 l 2.9340303906817873 5.272302064478181 a27.0337138971404,27.0337138971404 0 0,0 -0.4085659095915169,0.22278270988342633 l -2.8428416692216216 -5.322025426121378" fill="#ff4006" stroke="none" /><path d="M 109.57404056367764 118.69057910512821 l 6.788210973082743 13.25204268050084 a35.88947424931105,35.88947424931105 0 0,0 -0.552263969475479,0.27691661910694637 l -6.559093095924503 -13.366927140517088" fill="#ffb911" stroke="none" /><path d="M 106.91757812671514 119.82793768551818 l 4.474824598027992 12.826243760177874 a34.584424322679936,34.584424322679936 0 0,0 -0.5637759625997755,0.19126341622304532 l -4.25337890249099 -12.901370163299044" fill="#ffa70f" stroke="none" /><line stroke="#e1ed5e" stroke-width="0.3" x1="102.19456741930631" x2="102.32365962044197" y1="184.97166512339345" y2="189.96999836594603" /><path d="M 102.22038585953345 185.97133177190398 a86.0,86.0 0 0,1 -42.740103519485714,-10.115201625700543" fill="none" id="id19" stroke="none" /><text fill="#e1ed5e" style="font-size:6.75px; font-family:Arial;" text-anchor="middle"><textPath startOffset="22.20632615414155" xlink:href="#id19">July</textPath></text><line stroke="#e1ed5e" stroke-width="0.3" x1="58.666819895761336" x2="56.23545636021788" y1="174.27360380694188" y2="178.64263932499728" /><path d="M 58.180547188652646 175.14741091055294 a86.0,86.0 0 0,1 -31.652253787137756,-30.449443065178592" fill="none" id="id20" stroke="none" /><text fill="#e1ed5e" style="font-size:6.75px; font-family:Arial;" text-anchor="middle"><textPath startOffset="22.20632615414155" xlink:href="#id20">August</textPath></text><line stroke="#e1ed5e" stroke-width="0.3" x1="26.63291911575756" x2="22.317208475507996" y1="142.92168965132927" y2="145.44649492493687" /><path d="M 25.769776987707644 143.4266507060508 a86.0,86.0 0 0,1 -11.730757126820373,-40.83630448921669" fill="none" id="id21" stroke="none" /><text fill="#e1ed5e" style="font-size:6.75px; font-family:Arial;" text-anchor="middle"><textPath startOffset="21.46611528233685" xlink:href="#id21">September</textPath></text><line stroke="#e1ed5e" stroke-width="0.3" x1="15.007084014347285" x2="10.007500721073583" y1="101.09737516637583" y2="101.16192664675087" /><path d="M 14.007167355692545 101.11028546245083 a86.0,86.0 0 0,1 10.666146001902534,-42.60595125391555" fill="none" id="id22" stroke="none" /><text fill="#e1ed5e" style="font-size:6.75px; font-family:Arial;" text-anchor="middle"><textPath startOffset="22.20632615414155" xlink:href="#id22">October</textPath></text><line stroke="#e1ed5e" stroke-width="0.3" x1="26.266209847984243" x2="21.928928074336255" y1="57.711370442889674" y2="55.22380399835377" /><path d="M 25.398753493254645 57.213857153982495 a86.0,86.0 0 0,1 29.58750427330803,-30.492523968695096" fill="none" id="id23" stroke="none" /><text fill="#e1ed5e" style="font-size:6.75px; font-family:Arial;" text-anchor="middle"><textPath startOffset="21.46611528233685" xlink:href="#id23">November</textPath></text><line stroke="#e1ed5e" stroke-width="0.3" x1="56.762969772571076" x2="54.21961505331055" y1="26.818313649435495" y2="22.513508569990535" /><path d="M 56.25429882871897 25.957352633546506 a86.0,86.0 0 0,1 42.265352541879196,-11.944610805530505" fill="none" id="id24" stroke="none" /><text fill="#e1ed5e" style="font-size:6.75px; font-family:Arial;" text-anchor="middle"><textPath startOffset="22.20632615414155" xlink:href="#id24">December</textPath></text></svg>