<?xml version="1.0" encoding="utf-8" ?>
<svg baseProfile="full" height="200mm" version="1.1" viewBox="0,0,200,200" width="200mm" xmlns="http://www.w3.org/2000/svg" xmlns:ev="http://www.w3.org/2001/xml-events" xmlns:xlink="http://www.w3.org/1999/xlink"><defs /><rect fill="#1a1a1a" height="200" width="200" x="0" y="0" /><text alignment-baseline="middle" fill="#e1ed5e" style="dominant-baseline: central; font-size:9.0px; font-family:Arial;" text-anchor="middle" x="100.0" y="100.0">2022</text><line stroke="#e1ed5e" stroke-width="0.3" x1="100.0" x2="100.0" y1="15.0" y2="10.0" /><path d="M 100.0 14.0 a86.0,86.0 0 0,1 42.46469731375804,11.215312516191453" fill="none" id="id265" stroke="none" /><text fill="#e1ed5e" style="font-size:6.75px; font-family:Arial;" text-anchor="middle"><textPath startOffset="22.20632615414155" xlink:href="#id265">January</textPath></text><path d="M 105.36241919743992 79.69619591428918 l 0.9968967946588614 -3.774564514107696 a24.903990329183998,24.903990329183998 0 0,0 0.41352733307327394,0.1130326412144313 l -1.0617220169558461 3.7568453320669706" fill="#ff1702" stroke="none" /><path d="M 106.0581310904928 79.89281104454417 l 1.366990283913641 -4.537097584774771 a25.738556418370827,25.738556418370827 0 0,0 0.42311076956819216,0.13146257570252806 l -1.4448864261925514 4.512894874189723" fill="#ff2303" stroke="none" /><path d="M 106.74666289553966 80.11325718540242 l 0.7656446314799674 -2.256845807975046 a23.383183732465593,23.383183732465593 0 0,0 0.38005244810406746,0.1325928366180724 l -0.8043790836473085 2.2433321181847665" fill="#ff0000" stroke="none" /><path d="M 107.4271985657038 80.35727306442388 l 16.9246132334741 -44.76055854632547 a68.85342343533759,68.85342343533759 0 0,0 1.1049887069102489,0.4287184512516191 l -17.692585105384016 44.46259739118331" fill="#3aff91" stroke="none" /><line stroke="#e1ed5e" stroke-width="0.3" x1="143.23703022742887" x2="145.7803849466894" y1="26.81831364943548" y2="22.513508569990506" /><path d="M 143.74570117128098 25.957352633546492 a86.0,86.0 0 0,1 28.547481713284135,27.462654790039103" fill="none" id="id266" stroke="none" /><text fill="#e1ed5e" style="font-size:6.75px; font-family:Arial;" text-anchor="middle"><textPath startOffset="19.985693538727396" xlink:href="#id266">February</textPath></text><line stroke="#e1ed5e" stroke-width="0.3" x1="172.23445277983987" x2="176.4835382374775" y1="55.19839476539836" y2="52.563006222186495" /><path d="M 173.08426987136738 54.67131705675599 a86.0,86.0 0 0,1 12.851231095245387,41.99856678651699" fill="none" id="id267" stroke="none" /><text fill="#e1ed5e" style="font-size:6.75px; font-family:Arial;" text-anchor="middle"><textPath startOffset="22.20632615414155" xlink:href="#id267">March</textPath></text><path d="M 119.196687751892 91.48605970444005 l 3.232349878059216 -1.433582409207249 a24.53599268355831,24.53599268355831 0 0,0 0.1679071472313973,0.38755284578824506 l -3.256547735133294 1.377730418832401" fill="#ff1101" stroke="none" /><path d="M 119.85752413597 93.16781622104841 l 4.486420899536047 -1.5435988840036863 a25.744541073959763,25.744541073959763 0 0,0 0.1405685119116213,0.4202819587178411 l -4.512326705219438 1.466143822363531" fill="#ff2303" stroke="none" /><path d="M 120.08093135843002 93.85539295169968 l 5.627693795847475 -1.7220300366757444 a26.885263367686584,26.885263367686584 0 0,0 0.13160221565699792,0.44369724822953305 l -5.656501908616175 1.6249034016996815" fill="#ff3404" stroke="none" /><path d="M 120.45610955862082 95.25157060432595 l 5.772273631703784 -1.3399045265234895 a26.925747802552934,26.925747802552934 0 0,0 0.10091464220135563,0.4523805536158459 l -5.7944826609071765 1.2403458033576797" fill="#ff3405" stroke="none" /><path d="M 120.6074358757038 95.95851677861258 l 3.813853236444986 -0.7479641793814459 a24.886505747169256,24.886505747169256 0 0,0 0.07882418638981378,0.42108195558681716 l -3.8261631467446593 0.6822041463320659" fill="#ff1602" stroke="none" /><path d="M 120.73433829027371 96.67025291283417 l 4.01124768398243 -0.6441700769349635 a25.06264237538487,25.06264237538487 0 0,0 0.06473812589062357,0.4265433633696365 l -4.021741703312354 0.5750276011732449" fill="#ff1902" stroke="none" /><path d="M 120.83666639777658 97.38593545837742 l 3.5116341773023123 -0.44055215987023133 a24.539161030634805,24.539161030634805 0 0,0 0.04897274173247581,0.4195685440144851 l -3.518697272038377 0.38003987753089347" fill="#ff1101" stroke="none" /><path d="M 120.96714384426684 98.82574320788733 l 5.878398660940674 -0.32921744638304923 a26.887610291446954,26.887610291446954 0 0,0 0.02190238072907446,0.4623246402709821 l -5.8831946499032455 0.22798169948906738" fill="#ff3404" stroke="none" /><line stroke="#e1ed5e" stroke-width="0.3" x1="184.98032266829074" x2="189.97916517819016" y1="98.17113171792111" y2="98.06355123074" /><path d="M 185.9800911702706 98.14961562048488 a86.0,86.0 0 0,1 -9.607161424134198,41.387399972396054" fill="none" id="id268" stroke="none" /><text fill="#e1ed5e" style="font-size:6.75px; font-family:Arial;" text-anchor="middle"><textPath startOffset="21.466115282336823" xlink:href="#id268">April</textPath></text><path d="M 120.99513854157772 99.54816195383933 l 2.733885183838927 -0.058836160449577644 a23.73451821939267,23.73451821939267 0 0,0 0.005274706075921722,0.40853179851018084 l -2.7344928970325646 0.011768103878934092" fill="#ff0500" stroke="none" /><path d="M 120.99824983174949 100.27111621757518 l 11.766260344410178 0.15191856583961802 a32.76724104210865,32.76724104210865 0 0,0 -0.012136264133846289,0.5639245057656285 l -11.761902017591325 -0.3544328873953613" fill="#ff860c" stroke="none" /><path d="M 120.81339534386255 102.79330883721812 l 3.5740052428613267 0.47965746406159 a24.606048357805292,24.606048357805292 0 0,0 -0.05995199118850028,0.4193040867385541 l -3.5652192006562253 -0.5411070227805534" fill="#ff1202" stroke="none" /><path d="M 120.70491114924044 103.5080841355445 l 2.356637427467271 0.39929088866588164 a23.390224503746698,23.390224503746698 0 0,0 -0.07067585520227677,0.3963877293820887 l -2.3494151299258057 -0.43979736878118864" fill="#ff0000" stroke="none" /><path d="M 119.67450827220406 107.3425965602758 l 4.013999427386602 1.498038882634605 a25.284426670739634,25.284426670739634 0 0,0 -0.15568671455834,0.406448884294153 l -3.9876184332347555 -1.5669113337619018" fill="#ff1c02" stroke="none" /><line stroke="#e1ed5e" stroke-width="0.3" x1="174.80103733775053" x2="179.2010983576182" y1="140.37084112569926" y2="142.7455964860345" /><path d="M 175.68104954172406 140.8457921977663 a86.0,86.0 0 0,1 -30.038265399797805,32.042727171017184" fill="none" id="id269" stroke="none" /><text fill="#e1ed5e" style="font-size:6.75px; font-family:Arial;" text-anchor="middle"><textPath startOffset="22.206326154141568" xlink:href="#id269">May</textPath></text><path d="M 111.7513745106137 117.40417183066458 l 2.581842687236887 3.8237938658010555 a25.61381742050727,25.61381742050727 0 0,0 -0.36752815479304324,0.24357762029909352 l -2.5156398337038794 -3.8676695071914673" fill="#ff2103" stroke="none" /><line stroke="#e1ed5e" stroke-width="0.3" x1="143.8653032363475" x2="146.44561519142675" y1="172.8068346515853" y2="177.08958963109032" /><path d="M 144.38136562736335 173.6633856474863 a86.0,86.0 0 0,1 -40.68145358897372,12.25698825130547" fill="none" id="id270" stroke="none" /><text fill="#e1ed5e" style="font-size:6.75px; font-family:Arial;" text-anchor="middle"><textPath startOffset="21.466115282336833" xlink:href="#id270">June</textPath></text><path d="M 109.57404056367764 118.69057910512821 l 2.6802420211093825 5.232406859282278 a26.87892667353359,26.87892667353359 0 0,0 -0.41361048191590466,0.2073928820453904 l -2.5897776315107173 -5.2777675822369705" fill="#ff3304" stroke="none" /><path d="M 108.2653958097858 119.30500536409082 l 1.4012929065285522 3.2729185268015817 a24.560283344478115,24.560283344478115 0 0,0 -0.39007406943869527,0.16305099266131837 l -1.3447473775923957 -3.2965545624828736" fill="#ff1201" stroke="none" /><path d="M 107.2578585660854 119.70592522655815 l 4.065362251395028 11.037928586705917 a32.76278188696396,32.76278188696396 0 0,0 -0.5308825626422982,0.19035559906666322 l -3.8747601281229946 -11.10627172681254" fill="#ff860c" stroke="none" /><path d="M 105.88484417918355 120.15858648285463 l 1.6497245872745347 5.651146360527636 a26.88702356050686,26.88702356050686 0 0,0 -0.4453884513874984,0.1258712252270999 l -1.5522049677824306 -5.678706379093255" fill="#ff3404" stroke="none" /><path d="M 105.53697534728816 120.25689768951611 l 1.552947531154037 5.681423030207474 a26.8898398690193,26.8898398690193 0 0,0 -0.4475360012138418,0.11819832551199352 l -1.454921087128698 -5.707312705023051" fill="#ff3404" stroke="none" /><path d="M 102.70371172650421 120.8252237178851 l 0.8715263087645779 6.7128940478842445 a27.76923220202916,27.76923220202916 0 0,0 -0.4745531390584189,0.05746177633533982 l -0.7558457466547787 -6.726901352944935" fill="#ff4006" stroke="none" /><path d="M 101.98527174616119 120.90594882070398 l 0.2748310433160023 2.894114489371531 a23.90713446196773,23.90713446196773 0 0,0 -0.41001382490450894,0.035377718060961 l -0.2249729006699516 -2.898416459711155" fill="#ff0801" stroke="none" /><path d="M 101.26447882468166 120.96189622390904 l 0.30090409777299265 4.988237325725395 a25.997304762951387,25.997304762951387 0 0,0 -0.446920819453168,0.023100701454219143 l -0.2149952099063451 -4.9926778339418165" fill="#ff2703" stroke="none" /><line stroke="#e1ed5e" stroke-width="0.3" x1="102.19456741930631" x2="102.32365962044197" y1="184.97166512339345" y2="189.96999836594603" /><path d="M 102.22038585953345 185.97133177190398 a86.0,86.0 0 0,1 -42.740103519485714,-10.115201625700543" fill="none" id="id271" stroke="none" /><text fill="#e1ed5e" style="font-size:6.75px; font-family:Arial;" text-anchor="middle"><textPath startOffset="22.20632615414155" xlink:href="#id271">July</textPath></text><path d="M 98.01472825383883 120.90594882070398 l -0.3195379580073492 3.36490166109056 a24.38003959968186,24.38003959968186 0 0,0 -0.41744131111954363,-0.043269498712081196 l 0.3774118657324862 -3.3589027939227183" fill="#ff0f01" stroke="none" /><path d="M 97.2962882734958 120.8252237178851 l -0.7600435810251949 5.854203114567012 a26.903334680641418,26.903334680641418 0 0,0 -0.4587292833747362,-0.0635756987249858 l 0.860701455586762 -5.8402528503494215" fill="#ff3404" stroke="none" /><path d="M 95.51606077576429 120.51570834832081 l -1.2994222401280475 5.945345457783867 a27.085690656822006,27.085690656822006 0 0,0 -0.45462667601465506,-0.10347155132355203 l 1.4015690655355653 -5.922097172882629" fill="#ff3605" stroke="none" /><path d="M 90.7491055286396 118.85261126421891 l -1.111765654422263 2.2656928759290706 a23.52376446571163,23.52376446571163 0 0,0 -0.36198155065170706,-0.18150506411049014 l 1.1506011127567304 -2.2462199709092783" fill="#ff0200" stroke="none" /><line stroke="#e1ed5e" stroke-width="0.3" x1="58.666819895761336" x2="56.23545636021788" y1="174.27360380694188" y2="178.64263932499728" /><path d="M 58.180547188652646 175.14741091055294 a86.0,86.0 0 0,1 -31.652253787137756,-30.449443065178592" fill="none" id="id272" stroke="none" /><text fill="#e1ed5e" style="font-size:6.75px; font-family:Arial;" text-anchor="middle"><textPath startOffset="22.20632615414155" xlink:href="#id272">August</textPath></text><path d="M 86.51685102203217 116.09983520530335 l -2.2736911887380065 2.7149483778788137 a24.541273262019136,24.541273262019136 0 0,0 -0.3215310249113266,-0.27401571489605303 l 2.3200876902263894 -2.6754082727598094" fill="#ff1101" stroke="none" /><path d="M 85.97065885151581 115.62618273729859 l -2.556609515850301 2.8476068162979766 a24.82689388365591,24.82689388365591 0 0,0 -0.31553853156601686,-0.28823696723918124 l 2.6052475968831725 -2.8031770824722195" fill="#ff1502" stroke="none" /><path d="M 84.19399662182784 113.82643327865904 l -2.6735245891892765 2.3386879318479914 a24.55206911131683,24.55206911131683 0 0,0 -0.27551804721989165,-0.3204897336371789 l 2.713385145979947 -2.2923210990492824" fill="#ff1101" stroke="none" /><path d="M 83.50135304334701 112.99209946851258 l -3.7670066178528705 2.9663841408494616 a25.794765242431637,25.794765242431637 0 0,0 -0.2716964868136284,-0.3512043342616097 l 3.817509921884567 -2.901101812474599" fill="#ff2403" stroke="none" /><line stroke="#e1ed5e" stroke-width="0.3" x1="26.63291911575756" x2="22.317208475507996" y1="142.92168965132927" y2="145.44649492493687" /><path d="M 25.769776987707644 143.4266507060508 a86.0,86.0 0 0,1 -11.730757126820373,-40.83630448921669" fill="none" id="id273" stroke="none" /><text fill="#e1ed5e" style="font-size:6.75px; font-family:Arial;" text-anchor="middle"><textPath startOffset="21.46611528233685" xlink:href="#id273">September</textPath></text><path d="M 81.69416730710424 110.29060199501025 l -5.206121493751389 2.9266149827019428 a26.972334239196236,26.972334239196236 0 0,0 -0.22402911349878118,-0.40667791465511266 l 5.2557270167016865 -2.8365665496490076" fill="#ff3505" stroke="none" /><path d="M 81.51974371655577 109.97397251340807 l -10.344266253856459 5.582900242556059 a32.75468499999069,32.75468499999069 0 0,0 -0.2635153273634464,-0.498471691027653 l 10.438834089444791 -5.40401353644228" fill="#ff860c" stroke="none" /><path d="M 80.73074385275274 108.34839909993369 l -3.9220597152221193 1.6992311247636853 a25.274334898570054,25.274334898570054 0 0,0 -0.16951739388003026,-0.4006890445037519 l 3.950728090294456 -1.6314675545937745" fill="#ff1c02" stroke="none" /><path d="M 80.45479744820244 107.68017299344265 l -9.299054976881123 3.6540092490068656 a30.99120648645024,30.99120648645024 0 0,0 -0.19082572766651248,-0.4981857592968083 l 9.360574984141145 -3.4933999228768995" fill="#ff6e0a" stroke="none" /><path d="M 80.20201598880116 107.00284435728193 l -7.48363817749201 2.6470752453151483 a28.938000234692375,28.938000234692375 0 0,0 -0.16206543627461095,-0.4710380189631518 l 7.52809444470985 -2.5178645232626997" fill="#ff5107" stroke="none" /><path d="M 79.67330655649465 105.27499134158121 l -10.390874021968452 2.696541405009373 a31.73506397229885,31.73506397229885 0 0,0 -0.132665693185255,-0.5299334976203822 l 10.435751029448765 -2.517280067991599" fill="#ff780b" stroke="none" /><path d="M 79.50377843672027 104.57218783832718 l -5.764694741277131 1.285957370550513 a26.906385681529898,26.906385681529898 0 0,0 -0.09694750176399539,-0.4529064527561725 l 5.785976281765567 -1.1865370983781767" fill="#ff3404" stroke="none" /><path d="M 79.10278846688536 102.07522291339032 l -7.299990010631911 0.7249343537331668 a28.33589694396999,28.33589694396999 0 0,0 -0.04402238464991467,-0.4857833462856668 l 7.3113869915589005 -0.5991696188989338" fill="#ff4806" stroke="none" /><line stroke="#e1ed5e" stroke-width="0.3" x1="15.007084014347285" x2="10.007500721073583" y1="101.09737516637583" y2="101.16192664675087" /><path d="M 14.007167355692545 101.11028546245083 a86.0,86.0 0 0,1 10.666146001902534,-42.60595125391555" fill="none" id="id274" stroke="none" /><text fill="#e1ed5e" style="font-size:6.75px; font-family:Arial;" text-anchor="middle"><textPath startOffset="22.20632615414155" xlink:href="#id274">October</textPath></text><path d="M 79.00175016825051 100.2711162175752 l -7.467406356116081 0.09641446228085737 a28.468028751678702,28.468028751678702 0 0,0 -0.002108942356737748,-0.49004393180748124 l 7.467959595762322 0.03213894773029923" fill="#ff4a06" stroke="none" /><path d="M 79.00486145842228 99.54816195383935 l -6.124170299170744 -0.13179875602404295 a27.12558836074826,27.12558836074826 0 0,0 0.014064366387725001,-0.4667278496856884 l 6.120994238327373 0.23719675313472577" fill="#ff3705" stroke="none" /><path d="M 79.01574976396665 99.18683210126434 l -7.39664597524359 -0.28662997237099863 a28.402197540200383,28.402197540200383 0 0,0 0.023136148483439253,-0.48836752758407853 l 7.390616218526652 0.41390860657808626" fill="#ff4906" stroke="none" /><path d="M 79.16333360222342 97.38593545837743 l -14.308279203591733 -1.7950455511317207 a35.420438353204574,35.420438353204574 0 0,0 0.0811026852927346,-0.6043092084753647 l 14.275260519241165 2.0410731016717447" fill="#ffaa0f" stroke="none" /><path d="M 79.32604984820605 96.31383870115002 l -5.9411811084174015 -1.0593114383322886 a27.03487975741004,27.03487975741004 0 0,0 0.08562883124990783,-0.4574326405224339 l 5.922066553257633 1.161422156317295" fill="#ff3605" stroke="none" /><path d="M 79.54389044137918 95.25157060432595 l -30.86837002840395 -7.165403334362049 a52.68910338199164,52.68910338199164 0 0,0 0.21268132145046978,-0.881701383764604 l 30.740455906692667 7.69568994978605" fill="#82ff25" stroke="none" /><path d="M 79.71946130924805 94.55025226153421 l -5.811805471032384 -1.5617372992466343 a27.01798190633539,27.01798190633539 0 0,0 0.12455705148247437,-0.4480979858289593 l 5.78406164898355 1.6615465884945362" fill="#ff3505" stroke="none" /><path d="M 80.14247586403 93.16781622104843 l -6.783669907329254 -2.3339908432322223 a28.173959204504605,28.173959204504605 0 0,0 0.1617278087377685,-0.457226293802619 l 6.742489017781676 2.4504147634614526" fill="#ff4606" stroke="none" /><path d="M 81.26839172434947 90.50648371742162 l -30.437794935446945 -15.426422417826908 a55.12380209099731,55.12380209099731 0 0,0 0.43624075789869216,-0.842678291615852 l 30.167744744388138 15.948073431703095" fill="#68ff28" stroke="none" /><line stroke="#e1ed5e" stroke-width="0.3" x1="26.266209847984243" x2="21.928928074336255" y1="57.711370442889674" y2="55.22380399835377" /><path d="M 25.398753493254645 57.213857153982495 a86.0,86.0 0 0,1 29.58750427330803,-30.492523968695096" fill="none" id="id275" stroke="none" /><text fill="#e1ed5e" style="font-size:6.75px; font-family:Arial;" text-anchor="middle"><textPath startOffset="21.46611528233685" xlink:href="#id275">November</textPath></text><path d="M 82.54541684631803 88.32363383020206 l -52.36374946104589 -35.02909850939381 a84.0,84.0 0 0,0 0.8143021373250385,-1.194887906918337 l 51.75302285805211 35.92526443958256" fill="#4dd2ff" stroke="none" /><path d="M 84.31358615837235 86.03803664274999 l -21.098922446255408 -18.779460050348348 a49.24593153315588,49.24593153315588 0 0,0 0.5690399266812913,-0.6283480996487333 l 20.77253887895807 19.139860937266636" fill="#a9ff21" stroke="none" /><path d="M 86.65592168130627 83.78471172551755 l -4.505549291892587 -5.474996388516429 a28.09052606482352,28.09052606482352 0 0,0 0.37600720996939085,-0.3040383475798713 l 4.410638683358695 5.551740833360435" fill="#ff4506" stroke="none" /><path d="M 87.80319425747018 82.90503203632743 l -28.134940918469006 -39.43376026593071 a69.4416798758738,69.4416798758738 0 0,0 0.9790247155355347,-0.6858693785804918 l 27.45198506334981 39.91221448727514" fill="#3bff97" stroke="none" /><line stroke="#e1ed5e" stroke-width="0.3" x1="56.762969772571076" x2="54.21961505331055" y1="26.818313649435495" y2="22.513508569990535" /><path d="M 56.25429882871897 25.957352633546506 a86.0,86.0 0 0,1 42.265352541879196,-11.944610805530505" fill="none" id="id276" stroke="none" /><text fill="#e1ed5e" style="font-size:6.75px; font-family:Arial;" text-anchor="middle"><textPath startOffset="22.20632615414155" xlink:href="#id276">December</textPath></text><path d="M 94.63758080256005 79.69619591428918 l -1.8833136084975308 -7.130817105298707 a28.37532526314417,28.37532526314417 0 0,0 0.4733154390643516,-0.12065864422536848 l 1.7602892807481798 7.162178745692938" fill="#ff4906" stroke="none" /></svg>