<?xml version="1.0" encoding="utf-8" ?>
<svg baseProfile="full" height="200mm" version="1.1" viewBox="0,0,200,200" width="200mm" xmlns="http://www.w3.org/2000/svg" xmlns:ev="http://www.w3.org/2001/xml-events" xmlns:xlink="http://www.w3.org/1999/xlink"><defs /><rect fill="#1a1a1a" height="200" width="200" x="0" y="0" /><text alignment-baseline="middle" fill="#e1ed5e" style="dominant-baseline: central; font-size:9.0px; font-family:Arial;" text-anchor="middle" x="100.0" y="100.0">2022</text><line stroke="#e1ed5e" stroke-width="0.3" x1="100.0" x2="100.0" y1="15.0" y2="10.0" /><path d="M 100.0 14.0 a86.0,86.0 0 0,1 42.46469731375804,11.215312516191453" fill="none" id="id265" stroke="none" /><text fill="#e1ed5e" style="font-size:6.75px; font-family:Arial;" text-anchor="middle"><textPath startOffset="22.20632615414155" xlink:href="#id265">January</textPath></text><path d="M 105.36241919743992 79.69619591428918 l 1.312434796820199 -4.969290540103386 a26.13968224386153,26.13968224386153 0 0,0 0.43404582730742863,0.11864112077923587 l -1.3977785133513385 4.945962878497856" fill="#ff1e03" stroke="none" /><path d="M 106.0581310904928 79.89281104454417 l 1.7996703622036654 -5.973180753244349 a27.2384053830705,27.2384053830705 0 0,0 0.44776647439385947,0.13912322320968415 l -1.902222209308243 5.941317395152144" fill="#ff2e04" stroke="none" /><path d="M 106.74666289553966 80.11325718540242 l 1.0079866458962292 -2.9711831608986516 a24.137509594234388,24.137509594234388 0 0,0 0.39231268579083745,0.13687019281090892 l -1.0589813357503404 2.953392114915535" fill="#ff0000" stroke="none" /><path d="M 107.4271985657038 80.35727306442388 l 22.28159569711141 -58.92818080672834 a84.0,84.0 0 0,0 1.3480673400013319,0.5230291844378128 l -23.292646202112408 58.53590891839998" fill="#4dd2ff" stroke="none" /><line stroke="#e1ed5e" stroke-width="0.3" x1="143.23703022742887" x2="145.7803849466894" y1="26.81831364943548" y2="22.513508569990506" /><path d="M 143.74570117128098 25.957352633546492 a86.0,86.0 0 0,1 28.547481713284135,27.462654790039103" fill="none" id="id266" stroke="none" /><text fill="#e1ed5e" style="font-size:6.75px; font-family:Arial;" text-anchor="middle"><textPath startOffset="19.985693538727396" xlink:href="#id266">February</textPath></text><line stroke="#e1ed5e" stroke-width="0.3" x1="172.23445277983987" x2="176.4835382374775" y1="55.19839476539836" y2="52.563006222186495" /><path d="M 173.08426987136738 54.67131705675599 a86.0,86.0 0 0,1 12.851231095245387,41.99856678651699" fill="none" id="id267" stroke="none" /><text fill="#e1ed5e" style="font-size:6.75px; font-family:Arial;" text-anchor="middle"><textPath startOffset="22.20632615414155" xlink:href="#id267">March</textPath></text><path d="M 119.196687751892 91.48605970444005 l 4.255454003053691 -1.8873402422732968 a25.65520589901348,25.65520589901348 0 0,0 0.17556625850414748,0.40523113059569554 l -4.28731097140052 1.8138099670909984" fill="#ff1702" stroke="none" /><path d="M 119.85752413597 93.16781622104841 l 5.906463871967219 -2.032179156913148 a27.246284303219493,27.246284303219493 0 0,0 0.14876822347004234,0.44479805259853333 l -5.940569389209032 1.9302080013923006" fill="#ff2e04" stroke="none" /><path d="M 120.08093135843002 93.85539295169968 l 7.408972727258961 -2.2670873789660475 a28.748068279070225,28.748068279070225 0 0,0 0.14072056611993106,0.4744397930157142 l -7.446899190490594 2.1392181992038033" fill="#ff4406" stroke="none" /><path d="M 120.45610955862082 95.25157060432595 l 7.599315005931149 -1.764011414670155 a28.801366856548725,28.801366856548725 0 0,0 0.10794424922018406,0.48389290351383446 l -7.62855364215337 1.6329403416063568" fill="#ff4506" stroke="none" /><path d="M 120.6074358757038 95.95851677861258 l 5.021014937848807 -0.9847099730430953 a26.116663437936033,26.116663437936033 0 0,0 0.0827205220221029,0.4418963363347917 l -5.037221183780768 0.8981355592457407" fill="#ff1e03" stroke="none" /><path d="M 120.73433829027371 96.67025291283417 l 5.280888721208589 -0.8480629374769915 a26.348550872125102,26.348550872125102 0 0,0 0.06805969529655152,0.44842835566094713 l -5.29470430994444 0.7570354694239622" fill="#ff2103" stroke="none" /><path d="M 120.83666639777658 97.38593545837742 l 4.623137432768817 -0.579995830587304 a25.659377092033537,25.659377092033537 0 0,0 0.05120835409880585,0.4387219055037368 l -4.632436139871212 0.5003301867587144" fill="#ff1702" stroke="none" /><path d="M 120.96714384426684 98.82574320788733 l 7.739030753770141 -0.43342142804387174 a28.751158051677674,28.751158051677674 0 0,0 0.023420408255840977,0.4943678021041677 l -7.745344770259479 0.3001425193167043" fill="#ff4406" stroke="none" /><line stroke="#e1ed5e" stroke-width="0.3" x1="184.98032266829074" x2="189.97916517819016" y1="98.17113171792111" y2="98.06355123074" /><path d="M 185.9800911702706 98.14961562048488 a86.0,86.0 0 0,1 -9.607161424134198,41.387399972396054" fill="none" id="id268" stroke="none" /><text fill="#e1ed5e" style="font-size:6.75px; font-family:Arial;" text-anchor="middle"><textPath startOffset="21.466115282336823" xlink:href="#id268">April</textPath></text><path d="M 120.99513854157772 99.54816195383933 l 3.5992151494570988 -0.07745899545373336 a24.600048553569547,24.600048553569547 0 0,0 0.0054670595953981395,0.42342979057464525 l -3.6000152161702124 0.015492946818625402" fill="#ff0701" stroke="none" /><path d="M 120.99824983174949 100.27111621757518 l 15.490519768131028 0.20000386515352808 a36.49181087649002,36.49181087649002 0 0,0 -0.013515762738471548,0.6280243852868833 l -15.48478194270755 -0.4666180662305262" fill="#ffb010" stroke="none" /><path d="M 120.81339534386255 102.79330883721812 l 4.705250202308229 0.6314787546331582 a25.747435611345843,25.747435611345843 0 0,0 -0.06273295128302206,0.4387541151625223 l -4.693683200008606 -0.7123783417760897" fill="#ff1802" stroke="none" /><path d="M 120.70491114924044 103.5080841355445 l 3.102560846687533 0.5256745323548673 a24.146778912056735,24.146778912056735 0 0,0 -0.07296185847709781,0.4092088497615014 l -3.0930525458712466 -0.579002132849587" fill="#ff0000" stroke="none" /><path d="M 119.67450827220406 107.3425965602758 l 5.284511447066376 1.9721984934579904 a26.640534383529058,26.640534383529058 0 0,0 -0.16403683287981802,0.42824840832622524 l -5.249780334593051 -2.0628704686173593" fill="#ff2503" stroke="none" /><line stroke="#e1ed5e" stroke-width="0.3" x1="174.80103733775053" x2="179.2010983576182" y1="140.37084112569926" y2="142.7455964860345" /><path d="M 175.68104954172406 140.8457921977663 a86.0,86.0 0 0,1 -30.038265399797805,32.042727171017184" fill="none" id="id269" stroke="none" /><text fill="#e1ed5e" style="font-size:6.75px; font-family:Arial;" text-anchor="middle"><textPath startOffset="22.206326154141568" xlink:href="#id269">May</textPath></text><path d="M 111.7513745106137 117.40417183066458 l 3.399048126947794 5.034101977489316 a27.07418396898457,27.07418396898457 0 0,0 -0.38848269718209094,0.257465148378282 l -3.311890731025739 -5.0918651469589165" fill="#ff2c04" stroke="none" /><line stroke="#e1ed5e" stroke-width="0.3" x1="143.8653032363475" x2="146.44561519142675" y1="172.8068346515853" y2="177.08958963109032" /><path d="M 144.38136562736335 173.6633856474863 a86.0,86.0 0 0,1 -40.68145358897372,12.25698825130547" fill="none" id="id270" stroke="none" /><text fill="#e1ed5e" style="font-size:6.75px; font-family:Arial;" text-anchor="middle"><textPath startOffset="21.466115282336833" xlink:href="#id270">June</textPath></text><path d="M 109.57404056367764 118.69057910512821 l 3.528592840553162 6.888569478842304 a28.739725893030112,28.739725893030112 0 0,0 -0.442244291266727,0.22175046848202404 l -3.409494641603674 -6.94828778823363" fill="#ff4406" stroke="none" /><path d="M 108.2653958097858 119.30500536409082 l 1.844830458798627 4.30886344980357 a25.68718504550058,25.68718504550058 0 0,0 -0.4079718732306882,0.17053227609792626 l -1.7703871260704778 -4.33998076892147" fill="#ff1702" stroke="none" /><path d="M 107.2578585660854 119.70592522655815 l 5.352131643914013 14.531656275378598 a36.48594030853587,36.48594030853587 0 0,0 -0.5912119904298025,0.21198758545303317 l -5.101200092854476 -14.621631401871593" fill="#ffb010" stroke="none" /><path d="M 105.88484417918355 120.15858648285463 l 2.17189579213148 7.439848503092356 a28.75038560852581,28.75038560852581 0 0,0 -0.4762553837228584,0.13459452862652616 l -2.043509240304016 -7.476131825057401" fill="#ff4406" stroke="none" /><path d="M 105.53697534728816 120.25689768951611 l 2.044486840004369 7.479708351205572 a28.75409333565475,28.75409333565475 0 0,0 -0.4785633537667412,0.12639293132443327 l -1.9154330434261306 -7.5137926318335895" fill="#ff4406" stroke="none" /><path d="M 102.70371172650421 120.8252237178851 l 1.147382015967173 8.837660812045597 a29.911831131666002,29.911831131666002 0 0,0 -0.5111683771177583,0.06189537174681592 l -0.9950862157980344 -8.856101712517765" fill="#ff5507" stroke="none" /><path d="M 101.98527174616119 120.90594882070398 l 0.3618206282002859 3.8101602715379483 a24.82730132884744,24.82730132884744 0 0,0 -0.4257949356536847,0.03673937869985084 l -0.2961813748050595 -3.815823902516463" fill="#ff0a01" stroke="none" /><path d="M 101.26447882468166 120.96189622390904 l 0.3961463318358887 6.567115348504698 a27.579052813041784,27.579052813041784 0 0,0 -0.474112720350613,0.024506212133657102 l -0.2830455430717961 -6.572961367400557" fill="#ff3304" stroke="none" /><line stroke="#e1ed5e" stroke-width="0.3" x1="102.19456741930631" x2="102.32365962044197" y1="184.97166512339345" y2="189.96999836594603" /><path d="M 102.22038585953345 185.97133177190398 a86.0,86.0 0 0,1 -42.740103519485714,-10.115201625700543" fill="none" id="id271" stroke="none" /><text fill="#e1ed5e" style="font-size:6.75px; font-family:Arial;" text-anchor="middle"><textPath startOffset="22.20632615414155" xlink:href="#id271">July</textPath></text><path d="M 98.01472825383883 120.90594882070398 l -0.4206781857867509 4.4299611068611915 a25.449890509248476,25.449890509248476 0 0,0 -0.4357595736705918,-0.04516826152435389 l 0.49687035606293606 -4.4220634768810765" fill="#ff1402" stroke="none" /><path d="M 97.2962882734958 120.8252237178851 l -1.000612749666475 7.707176827507156 a28.771859528147584,28.771859528147584 0 0,0 -0.4905895369246859,-0.06799123955571712 l 1.1331308777779918 -7.688811022458834" fill="#ff4506" stroke="none" /><path d="M 95.51606077576429 120.51570834832081 l -1.7107156656970635 7.827167566109606 a29.011934859746397,29.011934859746397 0 0,0 -0.4869582126279719,-0.1108301037942968 l 1.845194027717898 -7.796560728737622" fill="#ff4806" stroke="none" /><path d="M 90.7491055286396 118.85261126421891 l -1.4636619744300319 2.9828305048312473 a24.3225869734206,24.3225869734206 0 0,0 -0.37427375883366953,-0.18766863247498203 l 1.5147896409464618 -2.957194031446963" fill="#ff0300" stroke="none" /><line stroke="#e1ed5e" stroke-width="0.3" x1="58.666819895761336" x2="56.23545636021788" y1="174.27360380694188" y2="178.64263932499728" /><path d="M 58.180547188652646 175.14741091055294 a86.0,86.0 0 0,1 -31.652253787137756,-30.449443065178592" fill="none" id="id272" stroke="none" /><text fill="#e1ed5e" style="font-size:6.75px; font-family:Arial;" text-anchor="middle"><textPath startOffset="22.20632615414155" xlink:href="#id272">August</textPath></text><path d="M 86.51685102203217 116.09983520530335 l -2.993360445445505 3.5742844613298614 a25.662157887380243,25.662157887380243 0 0,0 -0.33621645620708057,-0.28653095803992273 l 3.054442378229642 -3.522229113066987" fill="#ff1702" stroke="none" /><path d="M 85.97065885151581 115.62618273729859 l -3.3658281463647337 3.7489319791130002 a26.03818321370682,26.03818321370682 0 0,0 -0.330933468133473,-0.3022998767831294 l 3.4298611639650614 -3.690439335743295" fill="#ff1d02" stroke="none" /><path d="M 84.19399662182784 113.82643327865904 l -3.5197492055405366 3.078929972596725 a25.676370841374506,25.676370841374506 0 0,0 -0.2881347198003975,-0.3351657741924704 l 3.572226434911713 -3.0178870992427242" fill="#ff1702" stroke="none" /><path d="M 83.50135304334701 112.99209946851258 l -4.959340416791992 3.905304729682349 a27.31240543701891,27.31240543701891 0 0,0 -0.2876818041926069,-0.37186751181640715 l 5.025829038202668 -3.819359223752689" fill="#ff2f04" stroke="none" /><line stroke="#e1ed5e" stroke-width="0.3" x1="26.63291911575756" x2="22.317208475507996" y1="142.92168965132927" y2="145.44649492493687" /><path d="M 25.769776987707644 143.4266507060508 a86.0,86.0 0 0,1 -11.730757126820373,-40.83630448921669" fill="none" id="id273" stroke="none" /><text fill="#e1ed5e" style="font-size:6.75px; font-family:Arial;" text-anchor="middle"><textPath startOffset="21.46611528233685" xlink:href="#id273">September</textPath></text><path d="M 81.69416730710424 110.29060199501025 l -6.85396426338298 3.852947828473824 a28.862698842806594,28.862698842806594 0 0,0 -0.23973026500389924,-0.43518006534464854 l 6.919270937838395 -3.734397244731353" fill="#ff4606" stroke="none" /><path d="M 81.51974371655577 109.97397251340807 l -13.618435781790154 7.350001108202855 a36.47528059304017,36.47528059304017 0 0,0 -0.29344796038036314,-0.5550929522883836 l 13.742936250395404 -7.114493140828346" fill="#ffb010" stroke="none" /><path d="M 80.73074385275274 108.34839909993369 l -5.163470956114059 2.237072150224877 a26.62724836131703,26.62724836131703 0 0,0 -0.17859151453525074,-0.42213758528078416 l 5.201213451841617 -2.147860039277934" fill="#ff2503" stroke="none" /><path d="M 80.45479744820244 107.68017299344265 l -12.242393991625978 4.810577094834104 a34.15362545580276,34.15362545580276 0 0,0 -0.21029805447885916,-0.5490218600517219 l 12.323386325698346 -4.599131667949224" fill="#ff910d" stroke="none" /><path d="M 80.20201598880116 107.00284435728193 l -9.852361050387007 3.4849281092751547 a31.450537890175752,31.450537890175752 0 0,0 -0.17613674417390854,-0.5119358263517345 l 9.910888625504143 -3.3148195798341233" fill="#ff6b09" stroke="none" /><path d="M 79.67330655649465 105.27499134158121 l -13.67979585135808 3.5500513091847115 a35.132928883733825,35.132928883733825 0 0,0 -0.14687017388896043,-0.5866733371407961 l 13.738877339542098 -3.3140501326465235" fill="#ff9e0e" stroke="none" /><path d="M 79.50377843672027 104.57218783832718 l -7.589337243367844 1.6929888925116308 a28.775876232537268,28.775876232537268 0 0,0 -0.10368353984197384,-0.48437498011394237 l 7.617354821934258 -1.5621000929815245" fill="#ff4506" stroke="none" /><path d="M 79.10278846688536 102.07522291339032 l -9.610584523618336 0.9543907416969386 a30.657856727734632,30.657856727734632 0 0,0 -0.047629759667710686,-0.5255904290093343 l 9.625588879563121 -0.7888189241390381" fill="#ff6008" stroke="none" /><line stroke="#e1ed5e" stroke-width="0.3" x1="15.007084014347285" x2="10.007500721073583" y1="101.09737516637583" y2="101.16192664675087" /><path d="M 14.007167355692545 101.11028546245083 a86.0,86.0 0 0,1 10.666146001902534,-42.60595125391555" fill="none" id="id274" stroke="none" /><text fill="#e1ed5e" style="font-size:6.75px; font-family:Arial;" text-anchor="middle"><textPath startOffset="22.20632615414155" xlink:href="#id274">October</textPath></text><path d="M 79.00175016825051 100.2711162175752 l -9.830991529185132 0.12693159000215976 a30.83181092553403,30.83181092553403 0 0,0 -0.0022840538964944714,-0.5307336866379485 l 9.83171988037113 0.0423115748394641" fill="#ff6209" stroke="none" /><path d="M 79.00486145842228 99.54816195383935 l -8.062594087319654 -0.17351572851908179 a29.06446099407303,29.06446099407303 0 0,0 0.01506965389454539,-0.5000884479124004 l 8.058412738969464 0.3122743238564766" fill="#ff4906" stroke="none" /><line stroke="#e1ed5e" stroke-width="0.3" x1="26.266209847984243" x2="21.928928074336255" y1="57.711370442889674" y2="55.22380399835377" /><path d="M 25.398753493254645 57.213857153982495 a86.0,86.0 0 0,1 29.58750427330803,-30.492523968695096" fill="none" id="id275" stroke="none" /><text fill="#e1ed5e" style="font-size:6.75px; font-family:Arial;" text-anchor="middle"><textPath startOffset="21.46611528233685" xlink:href="#id275">November</textPath></text><line stroke="#e1ed5e" stroke-width="0.3" x1="56.762969772571076" x2="54.21961505331055" y1="26.818313649435495" y2="22.513508569990535" /><path d="M 56.25429882871897 25.957352633546506 a86.0,86.0 0 0,1 42.265352541879196,-11.944610805530505" fill="none" id="id276" stroke="none" /><text fill="#e1ed5e" style="font-size:6.75px; font-family:Arial;" text-anchor="middle"><textPath startOffset="22.20632615414155" xlink:href="#id276">December</textPath></text></svg>