<?xml version="1.0" encoding="utf-8" ?>
<svg baseProfile="full" height="200mm" version="1.1" viewBox="0,0,200,200" width="200mm" xmlns="http://www.w3.org/2000/svg" xmlns:ev="http://www.w3.org/2001/xml-events" xmlns:xlink="http://www.w3.org/1999/xlink"><defs /><rect fill="#1a1a1a" height="200" width="200" x="0" y="0" /><text alignment-baseline="middle" fill="#e1ed5e" style="dominant-baseline: central; font-size:9.0px; font-family:Arial;" text-anchor="middle" x="100.0" y="100.0">2020</text><line stroke="#e1ed5e" stroke-width="0.3" x1="100.0" x2="100.0" y1="15.0" y2="10.0" /><path d="M 100.0 14.0 a86.0,86.0 0 0,1 42.35913384403234,11.155469271406648" fill="none" id="id1" stroke="none" /><text fill="#e1ed5e" style="font-size:6.75px; font-family:Arial;" text-anchor="middle"><textPath startOffset="22.145653131862478" xlink:href="#id1">January</textPath></text><line stroke="#e1ed5e" stroke-width="0.3" x1="143.13028292997686" x2="145.6673583964461" y1="26.7553504044142" y2="22.446841604673864" /><path d="M 143.63769802327073 25.89364864446614 a86.0,86.0 0 0,1 29.32050498858742,28.57503671076993" fill="none" id="id2" stroke="none" /><text fill="#e1ed5e" style="font-size:6.75px; font-family:Arial;" text-anchor="middle"><textPath startOffset="20.669276256404974" xlink:href="#id2">February</textPath></text><line stroke="#e1ed5e" stroke-width="0.3" x1="172.87174338648825" x2="177.1583165268699" y1="56.24261187166439" y2="53.66864786411523" /><path d="M 173.72905801456457 55.72781907015455 a86.0,86.0 0 0,1 12.242430191666344,42.057860355516425" fill="none" id="id3" stroke="none" /><text fill="#e1ed5e" style="font-size:6.75px; font-family:Arial;" text-anchor="middle"><textPath startOffset="22.145653131862474" xlink:href="#id3">March</textPath></text><line stroke="#e1ed5e" stroke-width="0.3" x1="184.99686870605535" x2="189.99668451229388" y1="99.2704041080226" y2="99.22748670261217" /><path d="M 185.99683186730306 99.26182062694052 a86.0,86.0 0 0,1 -10.086455211305974,41.156179273409016" fill="none" id="id4" stroke="none" /><text fill="#e1ed5e" style="font-size:6.75px; font-family:Arial;" text-anchor="middle"><textPath startOffset="21.40746469413373" xlink:href="#id4">April</textPath></text><path d="M 118.5362547648365 109.86951160357373 l 12.964853421196658 6.9030541985141705 a35.688076167447484,35.688076167447484 0 0,0 -0.292565155976575,0.5382869346966282 l -12.844442915604743 -7.124595966685402" fill="#ffb610" stroke="none" /><line stroke="#e1ed5e" stroke-width="0.3" x1="174.33088141563837" x2="178.70328620479359" y1="141.23008692659167" y2="143.65538615756765" /><path d="M 175.20536237346943 141.71514677278685 a86.0,86.0 0 0,1 -30.301960400862466,31.631185727798858" fill="none" id="id5" stroke="none" /><text fill="#e1ed5e" style="font-size:6.75px; font-family:Arial;" text-anchor="middle"><textPath startOffset="22.145653131862474" xlink:href="#id5">May</textPath></text><line stroke="#e1ed5e" stroke-width="0.3" x1="143.1302829299769" x2="145.66735839644613" y1="173.24464959558577" y2="177.55315839532614" /><path d="M 143.63769802327073 174.10635135553383 a86.0,86.0 0 0,1 -40.68552437913181,11.842963189579606" fill="none" id="id6" stroke="none" /><text fill="#e1ed5e" style="font-size:6.75px; font-family:Arial;" text-anchor="middle"><textPath startOffset="21.407464694133747" xlink:href="#id6">June</textPath></text><path d="M 101.44090949804482 120.95050786540614 l 1.1708471984335753 17.02386129958622 a38.064077376454584,38.064077376454584 0 0,0 -0.6522653916563829,0.03923866624419706 l -0.8784374546447272 -17.041451943655108" fill="#ffd513" stroke="none" /><line stroke="#e1ed5e" stroke-width="0.3" x1="101.45913802915013" x2="101.54496967792366" y1="184.9874750549273" y2="189.98673829345242" /><path d="M 101.47630435890484 185.9873277026323 a86.0,86.0 0 0,1 -42.54439059252881,-10.42667462771756" fill="none" id="id7" stroke="none" /><text fill="#e1ed5e" style="font-size:6.75px; font-family:Arial;" text-anchor="middle"><textPath startOffset="22.145653131862474" xlink:href="#id7">July</textPath></text><path d="M 96.76829788921471 120.74984581791261 l -0.8833649350083675 5.671836566000815 a26.74021459876077,26.74021459876077 0 0,0 -0.45295694790324303,-0.0745338934071435 l 0.9805993859646741 -5.655836674098003" fill="#ff3c05" stroke="none" /><path d="M 94.30408787586889 120.21278271476187 l -3.933691018835802 13.959281691493322 a35.50294695481336,35.50294695481336 0 0,0 -0.5851899818740747,-0.17034027507336444 l 4.172741013091484 -13.88969772211744" fill="#ffb410" stroke="none" /><path d="M 92.59220618246901 119.65005319985036 l -0.8652741600088194 2.2952425101777627 a23.45292428593018,23.45292428593018 0 0,0 -0.37550112716994716,-0.14525190267229257 l 0.9045475496722947 -2.2800507193674293" fill="#ff0d01" stroke="none" /><path d="M 91.92203290615298 119.3841803445677 l -4.886647768077755 11.726175721729463 a33.70364213389754,33.70364213389754 0 0,0 -0.5321402652670679,-0.22713903622637738 l 5.087223108515254 -11.640562035843681" fill="#ff9c0e" stroke="none" /><path d="M 91.26138138417905 119.09545874513695 l -3.691793906329073 8.067235948050582 a29.871845247090825,29.871845247090825 0 0,0 -0.4644521243171165,-0.217387045742975 l 3.8297347445176793 -8.00267267073708" fill="#ff6809" stroke="none" /><line stroke="#e1ed5e" stroke-width="0.3" x1="58.13341422392154" x2="55.67067388415222" y1="173.97424548756322" y2="178.32567169271397" /><path d="M 57.64086615596768 174.84453072859336 a86.0,86.0 0 0,1 -31.369924170532247,-30.572349798747897" fill="none" id="id8" stroke="none" /><text fill="#e1ed5e" style="font-size:6.75px; font-family:Arial;" text-anchor="middle"><textPath startOffset="22.145653131862474" xlink:href="#id8">August</textPath></text><path d="M 88.72937992617639 117.7192867562869 l -0.8577243843828274 1.348485196483328 a22.59815626416805,22.59815626416805 0 0,0 -0.32553652163867114,-0.21100884030551334 l 0.8807465382785082 -1.3335625144739198" fill="#ff0000" stroke="none" /><path d="M 87.83215693770417 117.11559508785305 l -1.202624960365948 1.6916426156046398 a23.075562943932297,23.075562943932297 0 0,0 -0.32088107504473046,-0.23229315268950304 l 1.2314870457846323 -1.6707486915420713" fill="#ff0701" stroke="none" /><path d="M 87.2517909369889 116.68781488649013 l -8.949076342037333 11.714628200936737 a35.741725857639416,35.741725857639416 0 0,0 -0.48436855907895676,-0.37664792121683366 l 9.148854845751519 -11.55927922809911" fill="#ffb711" stroke="none" /><path d="M 86.96720088162412 116.46651593811092 l -2.997627270467925 3.7874041314792564 a25.8301345020402,25.8301345020402 0 0,0 -0.34532335062227415,-0.27816804710390874 l 3.062201391445461 -3.735387790581937" fill="#ff2f04" stroke="none" /><path d="M 86.68645165197938 116.24036423190432 l -1.7316801085380702 2.1123681651693604 a23.73144929726462,23.73144929726462 0 0,0 -0.3128321072865982,-0.26097567015792733 l 1.7676865499865613 -2.0823303110995632" fill="#ff1101" stroke="none" /><path d="M 86.40962598614128 116.0094264158162 l -3.693324509634974 4.350726985617617 a26.70696690343056,26.70696690343056 0 0,0 -0.3469623145023779,-0.29969778356494653 l 3.7674663039002145 -4.286685069587948" fill="#ff3c05" stroke="none" /><path d="M 86.13680546590413 115.77377054828092 l -1.0395625052734228 1.1828313011441478 a22.57473175154904,22.57473175154904 0 0,0 -0.2888866634153395,-0.2583242357895608 l 1.059714195512133 -1.1648115354712045" fill="#ff0000" stroke="none" /><path d="M 85.60350026404147 115.28858382429668 l -7.371941958390934 7.8287468930520285 a31.75336255100499,31.75336255100499 0 0,0 -0.39363209230097845,-0.3770906401061728 l 7.505246536557227 -7.701044122640273" fill="#ff820c" stroke="none" /><path d="M 85.34317274990678 115.03919595460226 l -6.146064372688538 6.306403485097687 a29.805954359981865,29.805954359981865 0 0,0 -0.3633602449710919,-0.36025462051312573 l 6.253416537789592 -6.199968854355902" fill="#ff6709" stroke="none" /><path d="M 84.83555147118756 114.52719865689866 l -1.4644223379040582 1.4028834731386202 a23.02795828925495,23.02795828925495 0 0,0 -0.27101074057877417,-0.28780401490747765 l 1.4882889122190854 -1.3775379982866525" fill="#ff0701" stroke="none" /><path d="M 84.58840730492382 114.26474011684316 l -4.58564672215592 4.244406146297035 a27.24845095964939,27.24845095964939 0 0,0 -0.31478746910991556,-0.34600657119990136 l 4.657831892107715 -4.16506199953946" fill="#ff4406" stroke="none" /><path d="M 84.3458050057657 113.99807769240083 l -3.4774332425284427 3.1095422483863993 a25.664953906604204,25.664953906604204 0 0,0 -0.2908559558944999,-0.3309406861165393 l 3.5303002623815347 -3.04938928445856" fill="#ff2d04" stroke="none" /><path d="M 83.8745106332314 113.45245675266167 l -11.151615436350781 9.30307421795071 a35.52259332023576,35.52259332023576 0 0,0 -0.3866096043920229,-0.47160085551590497 l 11.309671859981433 -9.11027108073631" fill="#ffb410" stroke="none" /><path d="M 83.4222238831116 112.89097897827486 l -5.7539105055342885 4.4742756113200235 a28.288801571709236,28.288801571709236 0 0,0 -0.2948070612850131,-0.3859119066558807 l 5.829869544173597 -4.374842791423272" fill="#ff5207" stroke="none" /><path d="M 82.98947788004972 112.3143062007846 l -7.774133132908473 5.627872864174004 a30.59740063472873,30.59740063472873 0 0,0 -0.30434928651545856,-0.4281053861893513 l 7.869597517953892 -5.493590251275149" fill="#ff720a" stroke="none" /><path d="M 82.78059297857968 112.02048342749411 l -5.562846064599694 3.883298585487871 a27.784192232129364,27.784192232129364 0 0,0 -0.26965254910494707,-0.3934311278081799 l 5.628688350519966 -3.78723272260964" fill="#ff4b07" stroke="none" /><path d="M 82.37810715431573 111.42229804090323 l -27.191639442984354 17.62529216687485 a53.40426175003779,53.40426175003779 0 0,0 -0.49203713525773823,-0.7735641018210644 l 27.49019426986798 -17.155914390375113" fill="#76ff27" stroke="none" /><line stroke="#e1ed5e" stroke-width="0.3" x1="26.387840678322732" x2="22.057713659400548" y1="142.50000000000003" y2="145.00000000000006" /><path d="M 25.521815274538298 143.00000000000003 a86.0,86.0 0 0,1 -11.493303480769221,-40.785679425670985" fill="none" id="id9" stroke="none" /><text fill="#e1ed5e" style="font-size:6.75px; font-family:Arial;" text-anchor="middle"><textPath startOffset="21.40746469413373" xlink:href="#id9">September</textPath></text><path d="M 81.81346652052679 110.50000000000001 l -6.688433162309193 3.861568686716037 a28.723137373432067,28.723137373432067 0 0,0 -0.24287004044900087,-0.42912809011558145 l 6.753736567779572 -3.746183826501334" fill="#ff5808" stroke="none" /><path d="M 81.4637452351635 109.86951160357371 l -6.63122952146914 3.5307562146941365 a28.512619011636694,28.512619011636694 0 0,0 -0.22632492960149023,-0.4340078945714117 l 6.690862520045579 -3.416402077018222" fill="#ff5507" stroke="none" /><path d="M 81.29705330413844 109.54985784667822 l -4.0642369828668965 2.075228362286863 a25.563397309959196,25.563397309959196 0 0,0 -0.1962052665248606,-0.3925419657471932 l 4.099262162603495 -2.0051545403759166" fill="#ff2c04" stroke="none" /><path d="M 81.1358732173502 109.22738970284198 l -6.85834959778542 3.354762464557932 a28.63487985491915,28.63487985491915 0 0,0 -0.2121991072024422,-0.44341452065178555 l 6.9149279629477745 -3.236535441841042" fill="#ff5708" stroke="none" /><path d="M 80.68587082218212 108.24405325689762 l -7.17137312211341 3.061032749624937 a28.79734018437358,28.79734018437358 0 0,0 -0.1901641347458826,-0.45632469656760694 l 7.222863101395778 -2.937475543616049" fill="#ff5908" stroke="none" /><path d="M 80.16572619554312 106.89939002012753 l -15.604555001895866 5.428074257219296 a37.52168656490856,37.52168656490856 0 0,0 -0.20639532406853248,-0.6101711015629343 l 15.695435747536767 -5.159401481182201" fill="#ffce13" stroke="none" /><path d="M 79.94057633289273 106.21446072829308 l -7.315726970225768 2.266430915955561 a28.658757745201754,28.658757745201754 0 0,0 -0.14155199130746698,-0.4711805417724415 l 7.353555281536865 -2.140512770592396" fill="#ff5708" stroke="none" /><path d="M 79.73907114497094 105.5222062557868 l -7.359325993651862 2.005817025038877 a28.627776938189513,28.627776938189513 0 0,0 -0.12515862210007053,-0.4752476741485495 l 7.392674096556665 -1.8791888465175253" fill="#ff5708" stroke="none" /><path d="M 79.64726062577567 105.17358676015961 l -3.0484363119218973 0.774900589673078 a24.145383104125738,24.145383104125738 0 0,0 -0.09866547844651066,-0.4025888217388396 l 3.0612893168847015 -0.7224559433261388" fill="#ff1702" stroke="none" /><path d="M 79.56144815229197 104.8234425847677 l -4.475074591179406 1.0561054185219698 a25.598005138280186,25.598005138280186 0 0,0 -0.09725917980122879,-0.4285418917272239 l 4.492544632538301 -0.9791291928557196" fill="#ff2c04" stroke="none" /><path d="M 79.48165901384964 104.47187691870673 l -15.216769170648137 3.3164240168072463 a36.57397612210971,36.57397612210971 0 0,0 -0.1284308915952056,-0.6145883087891804 l 15.27145777306771 -3.054719256732657" fill="#ffc212" stroke="none" /><path d="M 79.2786578344484 103.40968896794605 l -7.674040966080276 1.2627605206534356 a28.777240441287592,28.777240441287592 0 0,0 -0.07602468381242568,-0.488133006504136 l 7.694587142030969 -1.1308393322178496" fill="#ff5908" stroke="none" /><path d="M 79.22317932658666 103.0534771498775 l -1.5937313813475604 0.23422362990381382 a22.61085083874868,22.61085083874868 0 0,0 -0.05314140353544853,-0.3845047236219549 l 1.5975173014382213 -0.20683059808177326" fill="#ff0100" stroke="none" /><path d="M 79.17382384314188 102.69636545807758 l -4.558447201730321 0.5901822535563497 a25.596493879401542,25.596493879401542 0 0,0 -0.05267747926357537,-0.4362450956204439 l 4.567906767253557 -0.5118434810125065" fill="#ff2c04" stroke="none" /><line stroke="#e1ed5e" stroke-width="0.3" x1="15.003131293944662" x2="10.003315487706104" y1="100.72959589197737" y2="100.7725132973878" /><path d="M 14.003168132696942 100.73817937305945 a86.0,86.0 0 0,1 10.791469493833604,-42.45332614584628" fill="none" id="id10" stroke="none" /><text fill="#e1ed5e" style="font-size:6.75px; font-family:Arial;" text-anchor="middle"><textPath startOffset="22.145653131862435" xlink:href="#id10">October</textPath></text><path d="M 79.00696218219943 99.45929381324524 l -13.878123736255077 -0.3574512383519067 a34.88272631101708,34.88272631101708 0 0,0 0.02055641221438267,-0.5984775126087215 l 13.869942637043843 0.5956350155247667" fill="#ffac0f" stroke="none" /><path d="M 79.01933749520258 99.09900007780938 l -1.7283450541708294 -0.07422257323716006 a22.729938038385974,22.729938038385974 0 0,0 0.02008721532109929,-0.38968661088659806 l 1.7268162493931596 0.10388097750047011" fill="#ff0200" stroke="none" /><path d="M 79.06263194458094 98.37931529534042 l -5.773570738772049 -0.4469108897942962 a26.790841771195407,26.790841771195407 0 0,0 0.03942894590598233,-0.4582241184429443 l 5.765048170168323 0.5459560556129212" fill="#ff3d05" stroke="none" /><path d="M 79.13060592940154 97.66154086499901 l -7.7216622893826825 -0.8652283653715971 a28.769986398670092,28.769986398670092 0 0,0 0.05920851383277332,-0.49033143080527436 l 7.7056716892902415 0.9976534731003077" fill="#ff5908" stroke="none" /><path d="M 79.17382384314186 97.30363454192245 l -3.0525035067447472 -0.39520769219733887 a24.07798095813813,24.07798095813813 0 0,0 0.05658954240778127,-0.40945373881368 l 3.045269447781758 0.4475497392110859" fill="#ff1602" stroke="none" /><path d="M 79.22317932658666 96.9465228501225 l -24.750757501770167 -3.6375090136155075 a46.0166238476651,46.0166238476651 0 0,0 0.12156826799538449,-0.7805554877215896 l 24.684667741636513 4.0618526832685475" fill="#c9ff1d" stroke="none" /><path d="M 79.2786578344484 96.59031103205396 l -9.971093685397454 -1.6407396714859983 a31.105183617953756,31.105183617953756 0 0,0 0.09121992428805929,-0.5261322825419724 l 9.94145894361716 1.8116649869485633" fill="#ff790b" stroke="none" /><path d="M 79.48165901384962 95.52812308129327 l -7.496975384822836 -1.6339308916900752 a28.672963578661026,28.672963578661026 0 0,0 0.10894243145380511,-0.4800204542130725 l 7.467822091811368 1.7623856798421558" fill="#ff5808" stroke="none" /><path d="M 79.73907114497095 94.47779374421319 l -26.304782435415856 -7.169485424944314 a48.264319177875166,48.264319177875166 0 0,0 0.22473132896220488,-0.7974922053780248 l 26.17783261437907 7.6199855542253525" fill="#afff20" stroke="none" /><path d="M 80.05021161711548 93.44210830539832 l -7.334605589533487 -2.4110305410581034 a28.720719359226237,28.720719359226237 0 0,0 0.15798389471044927,-0.46705131281301376 l 7.292136273250673 2.536583528345279" fill="#ff5808" stroke="none" /><path d="M 80.28708602549916 92.7611449362534 l -7.268229988914379 -2.668994727404832 a28.742783738854463,28.742783738854463 0 0,0 0.174057150159032,-0.46170727003026385 l 7.221342154940911 2.793370277629241" fill="#ff5808" stroke="none" /><path d="M 80.5471966667186 92.08871423366112 l -25.60669109516253 -10.414018345499983 a48.64334290463956,48.64334290463956 0 0,0 0.32121783315349384,-0.7708058643221434 l 25.424147417472557 10.85205671926339" fill="#aaff21" stroke="none" /><path d="M 80.83023694016515 91.42560881287825 l -14.026538131283122 -6.273892095760581 a36.36572464863231,36.36572464863231 0 0,0 0.25978207829040917,-0.5676707242651985 l 13.916771588137665 6.513751802240451" fill="#ffbf11" stroke="none" /><path d="M 81.46374523516351 90.13048839642627 l -6.099914778574978 -3.247861040524907 a27.910684600272027,27.910684600272027 0 0,0 0.22880734044552611,-0.4209797353119301 l 6.043262088514101 3.3520956093114562" fill="#ff4d07" stroke="none" /><line stroke="#e1ed5e" stroke-width="0.3" x1="26.387840678322718" x2="22.05771365940052" y1="57.49999999999999" y2="54.99999999999999" /><path d="M 25.521815274538284 56.99999999999999 a86.0,86.0 0 0,1 29.574782752854787,-30.34633250058573" fill="none" id="id11" stroke="none" /><text fill="#e1ed5e" style="font-size:6.75px; font-family:Arial;" text-anchor="middle"><textPath startOffset="21.40746469413373" xlink:href="#id11">November</textPath></text><path d="M 81.81346652052679 89.5 l -4.057244599866647 -2.342451261901165 a25.68490252380233,25.68490252380233 0 0,0 0.22373542496940127,-0.37995166483393605 l 4.016435464767467 2.4117540950286736" fill="#ff2d04" stroke="none" /><path d="M 81.99639281039701 89.18935116829357 l -9.848170197175481 -5.913543242491113 a32.487229862475445,32.487229862475445 0 0,0 0.291197019343776,-0.4756484467924555 l 9.74520521337631 6.081728805408112" fill="#ff8c0c" stroke="none" /><path d="M 82.576782715395 88.27688183743585 l -6.336992030368652 -4.263811049000715 a28.63790237267644,28.63790237267644 0 0,0 0.2779380199825022,-0.4055198774328291 l 6.262864273570837 4.3719656615035785" fill="#ff5708" stroke="none" /><path d="M 82.78059297857968 87.97951657250589 l -1.3011490873069613 -0.9083031152708272 a22.58682182257821,22.58682182257821 0 0,0 0.2246688595681105,-0.3160248870346598 l 1.2853651292088786 0.9305052290150073" fill="#ff0000" stroke="none" /><path d="M 82.98947788004972 87.6856937992154 l -16.08738512572513 -11.646026207260583 a40.86035967961312,40.86035967961312 0 0,0 0.41618801974038133,-0.5646389800013646 l 15.88509508640093 11.92047149653081" fill="#fff817" stroke="none" /><path d="M 83.42222388311158 87.10902102172516 l -1.7895222389179823 -1.391543316811119 a23.266888317968867,23.266888317968867 0 0,0 0.24788495101158697,-0.3131945378406785 l 1.7653708572648337 1.4220577985664804" fill="#ff0a01" stroke="none" /><path d="M 83.8745106332314 86.54754324733833 l -3.5288614906342737 -2.9439017637951963 a25.595587124074356,25.595587124074356 0 0,0 0.2843614107749451,-0.3349770268762883 l 3.477805516352214 3.0040455731210414" fill="#ff2c04" stroke="none" /><path d="M 84.58840730492382 85.73525988315684 l -26.063855052485962 -24.124315125818608 a56.51488589995466,56.51488589995466 0 0,0 0.6651106836778111,-0.7063244973668873 l 25.64588853507188 24.568181083130007" fill="#56ff2b" stroke="none" /><path d="M 85.34317274990677 84.96080404539775 l -3.2951149153544805 -3.381078186933902 a25.72117273688983,25.72117273688983 0 0,0 0.31885375996303505,-0.3054546892807355 l 3.236588669526145 3.4371450065202063" fill="#ff2e04" stroke="none" /><path d="M 85.86807049272753 84.46653392183569 l -3.0491699625570745 -3.351571924807834 a25.531056369956172,25.531056369956172 0 0,0 0.32671846422622103,-0.2921536653571114 l 2.9911864715074614 3.4034211200483466" fill="#ff2b04" stroke="none" /><path d="M 86.68645165197937 83.75963576809568 l -11.048490837455812 -13.477362362214777 a38.4272328849932,38.4272328849932 0 0,0 0.5137340966591151,-0.413827822939982 l 10.815505970441452 13.665038478948157" fill="#ffd914" stroke="none" /><path d="M 88.4268655584334 82.4767994020092 l -19.9746652023593 -30.244188986650016 a57.2449750642285,57.2449750642285 0 0,0 0.8246394018103522,-0.5345212972428688 l 19.45254016829192 30.582624125596794" fill="#4eff2b" stroke="none" /><path d="M 88.72937992617638 82.28071324371311 l -5.511903166856164 -8.665627281079676 a31.270061961614026,31.270061961614026 0 0,0 0.45540507823001586,-0.2842064504294884 l 5.36233395983645 8.7589695283507" fill="#ff7b0b" stroke="none" /><line stroke="#e1ed5e" stroke-width="0.3" x1="56.869717070023135" x2="54.33264160355391" y1="26.7553504044142" y2="22.446841604673864" /><path d="M 56.362301976729285 25.89364864446614 a86.0,86.0 0 0,1 42.16139366436587,-11.88097634709845" fill="none" id="id12" stroke="none" /><text fill="#e1ed5e" style="font-size:6.75px; font-family:Arial;" text-anchor="middle"><textPath startOffset="22.145653131862474" xlink:href="#id12">December</textPath></text><path d="M 89.65649057296885 81.72400993836675 l -3.8177871931820695 -6.745664157049362 a28.751095662687018,28.751095662687018 0 0,0 0.43161666688295014,-0.23941048936365708 l 3.701426338143017 6.810207561846164" fill="#ff5908" stroke="none" /><path d="M 90.61103034731259 81.2157712731953 l -16.61591615471171 -33.242962870390876 a58.164273840108805,58.164273840108805 0 0,0 0.8969478067730724,-0.4387421189204926 l 16.04280809867658 33.52329873940858" fill="#45ff2d" stroke="none" /><path d="M 91.5904679813234 80.7573450057729 l -3.028852511717483 -6.930607289672905 a28.56354843584706,28.56354843584706 0 0,0 0.45098432333320854,-0.192498390445421 l 2.909433113213843 6.981580329777731" fill="#ff5608" stroke="none" /><path d="M 92.25597844496254 80.48000691201159 l -2.8103892786904185 -7.084016864455675 a28.62112739912347,28.62112739912347 0 0,0 0.45824842429960666,-0.17726033481644715 l 2.6883685918972824 7.131217087410163" fill="#ff5708" stroke="none" /><path d="M 92.93061703081487 80.22567764915836 l -12.616088906858987 -35.28944604338835 a58.47680217621279,58.47680217621279 0 0,0 0.9481435052507898,-0.3298135289584465 l 12.008439629563194 35.50081800491538" fill="#42ff2d" stroke="none" /><path d="M 93.95794788825049 79.88797359093562 l -2.192769619346471 -7.299016903136344 a28.621278525011334,28.621278525011334 0 0,0 0.4717604282985479,-0.13732258516755924 l 2.0671491786662988 7.335583182606424" fill="#ff5708" stroke="none" /><path d="M 94.6519064749342 79.69241777938228 l -1.9834481157067758 -7.531475562508795 a28.78827263110171,28.78827263110171 0 0,0 0.47897476545198353,-0.12175351236164482 l 1.8538680570294142 7.564414306705703" fill="#ff5908" stroke="none" /><path d="M 95.35216902796891 79.52079915486377 l -13.943492916093277 -61.43760253540869 a84.0,84.0 0 0,0 1.4089503335235265,-0.3070741674651436 l 12.886780165950631 61.667908161007546" fill="#4dd2ff" stroke="none" /><path d="M 96.41257539226777 79.30868818359171 l -0.5332201173607766 -3.0754719392049124 a24.121354087955268,24.121354087955268 0 0,0 0.4085956336146865,-0.06723425602242332 l 0.4803469806930172 3.084172193723004" fill="#ff1702" stroke="none" /><path d="M 97.12497278360702 79.19773525538626 l -1.0669030954937182 -7.7195793218099995 a28.79295753362551,28.79295753362551 0 0,0 0.49019623293465064,-0.06346571642387358 l 0.9342290406682736 7.7367566344342675" fill="#ff5908" stroke="none" /></svg>
