<?xml version="1.0" encoding="utf-8" ?>
<svg baseProfile="full" height="200mm" version="1.1" viewBox="0,0,200,200" width="200mm" xmlns="http://www.w3.org/2000/svg" xmlns:ev="http://www.w3.org/2001/xml-events" xmlns:xlink="http://www.w3.org/1999/xlink"><defs /><rect fill="#1a1a1a" height="200" width="200" x="0" y="0" /><text alignment-baseline="middle" fill="#e1ed5e" style="dominant-baseline: central; font-size:9.0px; font-family:Arial;" text-anchor="middle" x="100.0" y="100.0">2020</text><line stroke="#e1ed5e" stroke-width="0.3" x1="100.0" x2="100.0" y1="15.0" y2="10.0" /><path d="M 100.0 14.0 a86.0,86.0 0 0,1 42.35913384403234,11.155469271406648" fill="none" id="id1" stroke="none" /><text fill="#e1ed5e" style="font-size:6.75px; font-family:Arial;" text-anchor="middle"><textPath startOffset="22.145653131862478" xlink:href="#id1">January</textPath></text><line stroke="#e1ed5e" stroke-width="0.3" x1="143.13028292997686" x2="145.6673583964461" y1="26.7553504044142" y2="22.446841604673864" /><path d="M 143.63769802327073 25.89364864446614 a86.0,86.0 0 0,1 29.32050498858742,28.57503671076993" fill="none" id="id2" stroke="none" /><text fill="#e1ed5e" style="font-size:6.75px; font-family:Arial;" text-anchor="middle"><textPath startOffset="20.669276256404974" xlink:href="#id2">February</textPath></text><line stroke="#e1ed5e" stroke-width="0.3" x1="172.87174338648825" x2="177.1583165268699" y1="56.24261187166439" y2="53.66864786411523" /><path d="M 173.72905801456457 55.72781907015455 a86.0,86.0 0 0,1 12.242430191666344,42.057860355516425" fill="none" id="id3" stroke="none" /><text fill="#e1ed5e" style="font-size:6.75px; font-family:Arial;" text-anchor="middle"><textPath startOffset="22.145653131862474" xlink:href="#id3">March</textPath></text><line stroke="#e1ed5e" stroke-width="0.3" x1="184.99686870605535" x2="189.99668451229388" y1="99.2704041080226" y2="99.22748670261217" /><path d="M 185.99683186730306 99.26182062694052 a86.0,86.0 0 0,1 -10.086455211305974,41.156179273409016" fill="none" id="id4" stroke="none" /><text fill="#e1ed5e" style="font-size:6.75px; font-family:Arial;" text-anchor="middle"><textPath startOffset="21.40746469413373" xlink:href="#id4">April</textPath></text><path d="M 118.5362547648365 109.86951160357373 l 21.97771357108798 11.701894576964495 a45.898880105401844,45.898880105401844 0 0,0 -0.37627169798061566,0.6922975439197487 l -21.773596523492024 -12.077446954358846" fill="#d2ff1c" stroke="none" /><line stroke="#e1ed5e" stroke-width="0.3" x1="174.33088141563837" x2="178.70328620479359" y1="141.23008692659167" y2="143.65538615756765" /><path d="M 175.20536237346943 141.71514677278685 a86.0,86.0 0 0,1 -30.301960400862466,31.631185727798858" fill="none" id="id5" stroke="none" /><text fill="#e1ed5e" style="font-size:6.75px; font-family:Arial;" text-anchor="middle"><textPath startOffset="22.145653131862474" xlink:href="#id5">May</textPath></text><line stroke="#e1ed5e" stroke-width="0.3" x1="143.1302829299769" x2="145.66735839644613" y1="173.24464959558577" y2="177.55315839532614" /><path d="M 143.63769802327073 174.10635135553383 a86.0,86.0 0 0,1 -40.68552437913181,11.842963189579606" fill="none" id="id6" stroke="none" /><text fill="#e1ed5e" style="font-size:6.75px; font-family:Arial;" text-anchor="middle"><textPath startOffset="21.407464694133747" xlink:href="#id6">June</textPath></text><path d="M 101.44090949804482 120.95050786540614 l 1.9847925407789777 28.85844794084081 a49.92662128531694,49.92662128531694 0 0,0 -0.8555417451649897,0.05146726689155992 l -1.4891064434815229 -28.888267185557062" fill="#a3ff22" stroke="none" /><line stroke="#e1ed5e" stroke-width="0.3" x1="101.45913802915013" x2="101.54496967792366" y1="184.9874750549273" y2="189.98673829345242" /><path d="M 101.47630435890484 185.9873277026323 a86.0,86.0 0 0,1 -42.54439059252881,-10.42667462771756" fill="none" id="id7" stroke="none" /><text fill="#e1ed5e" style="font-size:6.75px; font-family:Arial;" text-anchor="middle"><textPath startOffset="22.145653131862474" xlink:href="#id7">July</textPath></text><path d="M 96.76829788921471 120.74984581791261 l -1.4974593919137968 9.614763500973202 a30.73067632850242,30.73067632850242 0 0,0 -0.5205520436401426,-0.08565664068769949 l 1.662288938607003 -9.587640861789835" fill="#ff6709" stroke="none" /><path d="M 94.30408787586889 120.21278271476187 l -6.668300186702368 23.663444908076382 a45.58505343287952,45.58505343287952 0 0,0 -0.7513718967067005,-0.21871340851996418 l 7.073532095790675 -23.545487805253902" fill="#d6ff1c" stroke="none" /><path d="M 92.59220618246901 119.65005319985036 l -1.4667923370461313 3.890840939427747 a25.158139364661103,25.158139364661103 0 0,0 -0.4028030608786909,-0.15581287714317085 l 1.5333676604183504 -3.8650881741465355" fill="#ff1602" stroke="none" /><path d="M 91.92203290615298 119.3841803445677 l -8.2837299798563 19.87793636564145 a42.53491436100132,42.53491436100132 0 0,0 -0.6715755087017882,-0.2866556503165697 l 8.62374056372852 -19.732806065665475" fill="#fbff18" stroke="none" /><path d="M 91.26138138417905 119.09545874513695 l -6.258241909942042 13.675388006066278 a36.03934270238618,36.03934270238618 0 0,0 -0.5603453398562974,-0.2622699125476142 l 6.492075963669829 -13.565941861948136" fill="#ffaf10" stroke="none" /><line stroke="#e1ed5e" stroke-width="0.3" x1="58.13341422392154" x2="55.67067388415222" y1="173.97424548756322" y2="178.32567169271397" /><path d="M 57.64086615596768 174.84453072859336 a86.0,86.0 0 0,1 -31.369924170532247,-30.572349798747897" fill="none" id="id8" stroke="none" /><text fill="#e1ed5e" style="font-size:6.75px; font-family:Arial;" text-anchor="middle"><textPath startOffset="22.145653131862474" xlink:href="#id8">August</textPath></text><path d="M 88.72937992617639 117.7192867562869 l -1.453994135566836 2.2859202831178207 a23.709156785243742,23.709156785243742 0 0,0 -0.34154097974321146,-0.22138273668849923 l 1.493020747567057 -2.2606237047254267" fill="#ff0100" stroke="none" /><path d="M 87.83215693770417 117.11559508785305 l -2.038661452905515 2.8676326420799017 a24.51844532279315,24.51844532279315 0 0,0 -0.34094531573159575,-0.24681811563667355 l 2.0875877790110646 -2.8322137550701627" fill="#ff0d01" stroke="none" /><path d="M 87.2517909369889 116.68781488649013 l -15.170263032016807 19.858361280895505 a45.989825794173626,45.989825794173626 0 0,0 -0.6232498604276226,-0.4846428611615973 l 15.508922837079659 -19.595017368113112" fill="#d1ff1c" stroke="none" /><path d="M 86.96720088162412 116.46651593811092 l -5.081507009984038 6.420318107377679 a29.187930024886548,29.187930024886548 0 0,0 -0.39021375568625816,-0.31432857979841106 l 5.1909715360255575 -6.332141233785858" fill="#ff5107" stroke="none" /><path d="M 86.68645165197938 116.24036423190432 l -2.935503255283813 3.5808366652935018 a25.630288391157958,25.630288391157958 0 0,0 -0.33786293569071496,-0.2818572774649031 l 2.9965405251364206 -3.5299172039167286" fill="#ff1d03" stroke="none" /><path d="M 86.40962598614128 116.0094264158162 l -6.260836552546566 7.375249716250272 a30.674315619967796,30.674315619967796 0 0,0 -0.39850394025513164,-0.3442182123083062 l 6.38651997256456 -7.266687371477244" fill="#ff6609" stroke="none" /><path d="M 86.13680546590413 115.77377054828092 l -1.7622418270297044 2.0051077088894655 a23.669448104230714,23.669448104230714 0 0,0 -0.3028956429236217,-0.2708511516495211 l 1.796402496776697 -1.9745610273565621" fill="#ff0000" stroke="none" /><path d="M 85.60350026404147 115.28858382429668 l -12.496742042552686 13.271106987969434 a39.228846435368176,39.228846435368176 0 0,0 -0.48630228928051045,-0.46586659252790064 l 12.722716817698512 -13.054628265135952" fill="#ffd914" stroke="none" /><path d="M 85.34317274990678 115.03919595460226 l -10.4186632878993 10.690466367524515 a35.927646025472114,35.927646025472114 0 0,0 -0.4379889368205476,-0.4342454641282703 l 10.60064414484981 -10.510040893167584" fill="#ffae10" stroke="none" /><path d="M 84.83555147118756 114.52719865689866 l -2.4824541893345806 2.3781349579969167 a24.437747035573125,24.437747035573125 0 0,0 -0.28760221983195594,-0.3054235909143993 l 2.5229122429027893 -2.3351699071380274" fill="#ff0c01" stroke="none" /><path d="M 84.58840730492382 114.26474011684316 l -7.7734801099231445 7.195017138425279 a31.592226613965746,31.592226613965746 0 0,0 -0.3649688958129735,-0.40116474963864185 l 7.895846706577998 -7.060514813228964" fill="#ff730a" stroke="none" /><path d="M 84.3458050057657 113.99807769240083 l -5.894862771214861 5.271222639548 a28.907919777484995,28.907919777484995 0 0,0 -0.3276078605244769,-0.3727576071313728 l 5.98448169569793 -5.169252754605328" fill="#ff4d07" stroke="none" /><path d="M 83.8745106332314 113.45245675266167 l -18.90395532851456 15.77035187751643 a45.61835748792271,45.61835748792271 0 0,0 -0.49648670023685715,-0.6056330466807246 l 19.171888847990047 -15.443516549137211" fill="#d5ff1c" stroke="none" /><path d="M 83.4222238831116 112.89097897827486 l -9.753893306464747 7.5846864310032265 a33.355804421021816,33.355804421021816 0 0,0 -0.34761199244273744,-0.45503525660240335 l 9.882657276261778 -7.416130261159952" fill="#ff8b0c" stroke="none" /><path d="M 82.98947788004972 112.3143062007846 l -13.178527030566078 9.540237271105099 a37.2692870736349,37.2692870736349 0 0,0 -0.3707138742016589,-0.5214554898350019 l 13.340356003297698 -9.312604554560593" fill="#ffc011" stroke="none" /><path d="M 82.78059297857968 112.02048342749411 l -9.430005374988774 6.58287612286681 a32.500402576489535,32.500402576489535 0 0,0 -0.31542455251058193,-0.46021384868989557 l 9.54161966431468 -6.420027539106863" fill="#ff7f0b" stroke="none" /><path d="M 82.37810715431573 111.42229804090323 l -46.09462550723145 29.877979354321333 a75.93093983311375,75.93093983311375 0 0,0 -0.6995854055203101,-1.099864455525225 l 46.60072860437765 -29.082301224117433" fill="#43ffdd" stroke="none" /><line stroke="#e1ed5e" stroke-width="0.3" x1="26.387840678322732" x2="22.057713659400548" y1="142.50000000000003" y2="145.00000000000006" /><path d="M 25.521815274538298 143.00000000000003 a86.0,86.0 0 0,1 -11.493303480769221,-40.785679425670985" fill="none" id="id9" stroke="none" /><text fill="#e1ed5e" style="font-size:6.75px; font-family:Arial;" text-anchor="middle"><textPath startOffset="21.40746469413373" xlink:href="#id9">September</textPath></text><path d="M 81.81346652052679 110.50000000000001 l -11.33807406108182 6.54604011125751 a34.09208022251501,34.09208022251501 0 0,0 -0.2882674268825338,-0.5093409220500817 l 11.448774852985732 -6.350442419108306" fill="#ff950d" stroke="none" /><path d="M 81.4637452351635 109.86951160357371 l -11.241103799038543 5.985254615298556 a33.73521446347534,33.73521446347534 0 0,0 -0.26778038297432977,-0.5135041925202478 l 11.342192250987821 -5.791404179673806" fill="#ff900d" stroke="none" /><path d="M 81.29705330413844 109.54985784667822 l -6.889598624264814 3.5178781478833696 a28.735763431415606,28.735763431415606 0 0,0 -0.22055394494297914,-0.44125563311648097 l 6.9489724824195305 -3.3990906586031358" fill="#ff4a06" stroke="none" /><path d="M 81.1358732173502 109.22738970284198 l -11.62611239276178 5.686914163221302 a33.942468159859466,33.942468159859466 0 0,0 -0.251531051509971,-0.5256031568875976 l 11.722022702231662 -5.486498504268599" fill="#ff930d" stroke="none" /><path d="M 80.68587082218212 108.24405325689762 l -12.156742484378972 5.188990481989367 a34.217867076562726,34.217867076562726 0 0,0 -0.2259587532669111,-0.5422187504447418 l 12.244027082182368 -4.9795392221033445" fill="#ff970d" stroke="none" /><path d="M 80.16572619554312 106.89939002012753 l -26.45247339821457 9.201543387503317 a49.00717318108622,49.00717318108622 0 0,0 -0.26957347380681723,-0.7969460752426533 l 26.60653229359375 -8.746095637786503" fill="#adff20" stroke="none" /><path d="M 79.94057633289273 106.21446072829308 l -12.401447721193362 3.84200020480697 a33.98294539598888,33.98294539598888 0 0,0 -0.16784934064703222,-0.5587158649745101 l 12.465573381844024 -3.6285467362417365" fill="#ff940d" stroke="none" /><path d="M 79.73907114497094 105.5222062557868 l -12.47535575684236 3.400213686970274 a33.93042746303616,33.93042746303616 0 0,0 -0.14834143628089091,-0.5632765956466129 l 12.531886673927982 -3.185556586950858" fill="#ff930d" stroke="none" /><path d="M 79.64726062577567 105.17358676015961 l -5.167637298049714 1.313593193275776 a26.331979212413998,26.331979212413998 0 0,0 -0.10760058418756124,-0.4390471022746363 l 5.189425408753569 -1.2246902663930401" fill="#ff2803" stroke="none" /><path d="M 79.56144815229197 104.8234425847677 l -7.586040842806289 1.7902849831839829 a28.794429805299373,28.794429805299373 0 0,0 -0.10940394029062327,-0.4820539473021918 l 7.615655644654579 -1.6597967019427649" fill="#ff4b07" stroke="none" /><path d="M 79.48165901384964 104.47187691870673 l -25.795108008170512 5.621923731316603 a47.40063680281071,47.40063680281071 0 0,0 -0.1664491174391442,-0.7965192822051087 l 25.887814836434025 -5.178287997826085" fill="#c0ff1e" stroke="none" /><path d="M 79.2786578344484 103.40968896794605 l -13.008853151364088 2.1406018356077623 a34.183794466403164,34.183794466403164 0 0,0 -0.09030790047848547,-0.579841503588529 l 13.043682543980841 -1.9169721500877832" fill="#ff960d" stroke="none" /><path d="M 79.22317932658666 103.0534771498775 l -2.701655828306163 0.3970503701330239 a23.730676328502415,23.730676328502415 0 0,0 -0.055773285841190984,-0.4035477129156037 l 2.708073630702567 -0.35061434901733457" fill="#ff0100" stroke="none" /><path d="M 79.17382384314188 102.69636545807758 l -7.72737212476016 1.0004630289297523 a28.79186795491143,28.79186795491143 0 0,0 -0.05925354598564684,-0.49070436163092185 l 7.7434077570054685 -0.8676649903754311" fill="#ff4b07" stroke="none" /><line stroke="#e1ed5e" stroke-width="0.3" x1="15.003131293944662" x2="10.003315487706104" y1="100.72959589197737" y2="100.7725132973878" /><path d="M 14.003168132696942 100.73817937305945 a86.0,86.0 0 0,1 10.791469493833604,-42.45332614584628" fill="none" id="id10" stroke="none" /><text fill="#e1ed5e" style="font-size:6.75px; font-family:Arial;" text-anchor="middle"><textPath startOffset="22.145653131862435" xlink:href="#id10">October</textPath></text><path d="M 79.00696218219943 99.45929381324524 l -23.525867857546434 -0.6059429040119295 a44.533670033670035,44.533670033670035 0 0,0 0.02624371932598322,-0.764057253766622 l 23.511999451223602 1.0097064223426901" fill="#e2ff1b" stroke="none" /><path d="M 79.01933749520258 99.09900007780938 l -2.9298497498220875 -0.12582035462494584 a23.93255013907188,23.93255013907188 0 0,0 0.021150004325338596,-0.41030443364247476 l 2.9272581560401782 0.1760965816441326" fill="#ff0400" stroke="none" /><path d="M 79.06263194458094 98.37931529534042 l -9.78722086990128 -0.7575927940412095 a30.81649831649832,30.81649831649832 0 0,0 0.045353634481145745,-0.5270779804223318 l 9.77277361272239 0.9254918218392219" fill="#ff6809" stroke="none" /><path d="M 79.13060592940154 97.66154086499901 l -13.08957969484396 -1.4667147070577877 a34.17149758454106,34.17149758454106 0 0,0 0.07032480166603085,-0.5823902406906081 l 13.062472806918262 1.691198624671832" fill="#ff960d" stroke="none" /><path d="M 79.17382384314186 97.30363454192245 l -5.174531910734517 -0.6699467535825112 a26.217720685111992,26.217720685111992 0 0,0 0.06161848948734424,-0.44584069471421156 l 5.162268904691965 0.7586757564967898" fill="#ff2603" stroke="none" /><path d="M 79.22317932658666 96.9465228501225 l -41.95690004115402 -6.166219440845291 a63.407590396720835,63.407590396720835 0 0,0 0.16751230963418998,-1.0755491930743744 l 41.84486623938157 6.885556815851116" fill="#33ff50" stroke="none" /><path d="M 79.2786578344484 96.59031103205396 l -16.90276271460711 -2.7813431724330244 a38.13006880398185,38.13006880398185 0 0,0 0.11182129744413737,-0.644955528304358 l 16.85252659967074 3.0710917336579753" fill="#ffcb12" stroke="none" /><path d="M 79.48165901384962 95.52812308129327 l -12.708695756463511 -2.7698010895986167 a34.00702678963549,34.00702678963549 0 0,0 0.12920911278716818,-0.569319191621533 l 12.65927578211868 2.9875546151591577" fill="#ff940d" stroke="none" /><path d="M 79.73907114497095 94.47779374421319 l -44.59124643632072 -12.153542504684372 a67.21783047870005,67.21783047870005 0 0,0 0.3129838487467814,-1.1106692642161642 l 44.37604409549936 12.91721969280355" fill="#38ff7d" stroke="none" /><path d="M 80.05021161711548 93.44210830539832 l -12.433450311140446 -4.087122076975197 a34.087981261894306,34.087981261894306 0 0,0 0.18750756118651632,-0.5543327867377648 l 12.361457328381565 4.299956538187123" fill="#ff950d" stroke="none" /><path d="M 80.28708602549916 92.7611449362534 l -12.320931959322397 -4.524416878153435 a34.12538427755819,34.12538427755819 0 0,0 0.2066524658641273,-0.5481702174944948 l 12.241448809643835 4.735255375842074" fill="#ff960d" stroke="none" /><path d="M 80.5471966667186 92.08871423366112 l -43.407858470093444 -17.653598146143086 a67.86034255599472,67.86034255599472 0 0,0 0.44811789016275394,-1.075319804800694 l 43.09841473539421 18.396150460385044" fill="#38ff84" stroke="none" /><path d="M 80.83023694016515 91.42560881287825 l -23.777456437670285 -10.63535382753383 a47.04761381935295,47.04761381935295 0 0,0 0.33608918878111094,-0.7344155319282467 l 23.591382784034128 11.041958341676748" fill="#c4ff1e" stroke="none" /><path d="M 81.46374523516351 90.13048839642627 l -10.340431585010045 -5.505697391892593 a32.714829453959894,32.714829453959894 0 0,0 0.2681909536685665,-0.4934411477735212 l 10.244395281726128 5.682393373140734" fill="#ff820c" stroke="none" /><line stroke="#e1ed5e" stroke-width="0.3" x1="26.387840678322718" x2="22.05771365940052" y1="57.49999999999999" y2="54.99999999999999" /><path d="M 25.521815274538284 56.99999999999999 a86.0,86.0 0 0,1 29.574782752854787,-30.34633250058573" fill="none" id="id11" stroke="none" /><text fill="#e1ed5e" style="font-size:6.75px; font-family:Arial;" text-anchor="middle"><textPath startOffset="21.40746469413373" xlink:href="#id11">November</textPath></text><path d="M 81.81346652052679 89.5 l -6.877745301611154 -3.9708681013028846 a28.941736202605767,28.941736202605767 0 0,0 0.2521049726640629,-0.4281293589950043 l 6.808566618817311 4.088348628591461" fill="#ff4d07" stroke="none" /><path d="M 81.99639281039701 89.18935116829357 l -16.694385718158802 -10.024498955092444 a40.47288098375056,40.47288098375056 0 0,0 0.3627758462821897,-0.5925670812386709 l 16.51984190742122 10.309603152455656" fill="#ffe915" stroke="none" /><path d="M 82.576782715395 88.27688183743585 l -10.74231934763013 -7.227911871565809 a33.94759186063534,33.94759186063534 0 0,0 0.32946988721916265,-0.48070641177962675 l 10.616659723595653 7.4112530184154695" fill="#ff930d" stroke="none" /><path d="M 82.78059297857968 87.97951657250589 l -2.2056772278938346 -1.5397340065960123 a23.689942907334213,23.689942907334213 0 0,0 0.23564149476328994,-0.3314592725774318 l 2.1789206346005727 1.5773705058829646" fill="#ff0000" stroke="none" /><path d="M 82.98947788004972 87.6856937992154 l -27.270955630158927 -19.742068800106246 a54.66681305811741,54.66681305811741 0 0,0 0.5568152813771543,-0.755426868659247 l 26.928038329197953 20.207301978034355" fill="#6eff28" stroke="none" /><path d="M 83.42222388311158 87.10902102172516 l -3.0335558697277887 -2.3589113925989706 a24.842775581906018,24.842775581906018 0 0,0 0.2646744216052614,-0.33440748546705423 l 2.9926150174809654 2.410638821980708" fill="#ff1201" stroke="none" /><path d="M 83.8745106332314 86.54754324733833 l -5.982042723784542 -4.990432798903148 a28.79033084467867,28.79033084467867 0 0,0 0.31985431926154007,-0.37678758382784816 l 5.895493841015888 5.092387165180553" fill="#ff4b07" stroke="none" /><path d="M 84.58840730492382 85.73525988315684 l -44.18283202225507 -40.89496970841723 a81.20399648660519,81.20399648660519 0 0,0 0.9556711432840366,-1.014889636406926 l 43.47430504523476 41.647400804768665" fill="#49ecff" stroke="none" /><path d="M 85.34317274990677 84.96080404539775 l -5.58580104539248 -5.731523954786684 a29.003220611916262,29.003220611916262 0 0,0 0.3595398249428781,-0.3444310191754011 l 5.486588734584301 5.826567104267653" fill="#ff4e07" stroke="none" /><path d="M 85.86807049272753 84.46653392183569 l -5.168880965293559 -5.681505635528259 a28.680939833113747,28.680939833113747 0 0,0 0.3670272188919873,-0.3281980023353551 l 5.07058871957818 5.769399167747015" fill="#ff4a06" stroke="none" /><path d="M 86.68645165197937 83.75963576809568 l -18.729140942033222 -22.846506633561198 a50.542233933538284,50.542233933538284 0 0,0 0.6756996781602782,-0.544295830455374 l 18.3341904935177 23.16465075780997" fill="#9cff22" stroke="none" /><path d="M 88.4268655584334 82.4767994020092 l -33.860581082860506 -51.26923545866792 a82.44162640901772,82.44162640901772 0 0,0 1.1876084042298316,-0.7697934193440983 l 32.97548704637365 51.84294271971593" fill="#4be1ff" stroke="none" /><path d="M 88.72937992617638 82.28071324371311 l -9.343648176899817 -14.689766872797886 a38.40956668130581,38.40956668130581 0 0,0 0.5593820613708251,-0.3490957780137772 l 9.090101986739295 14.847998447653199" fill="#ffcf13" stroke="none" /><line stroke="#e1ed5e" stroke-width="0.3" x1="56.869717070023135" x2="54.33264160355391" y1="26.7553504044142" y2="22.446841604673864" /><path d="M 56.362301976729285 25.89364864446614 a86.0,86.0 0 0,1 42.16139366436587,-11.88097634709845" fill="none" id="id12" stroke="none" /><text fill="#e1ed5e" style="font-size:6.75px; font-family:Arial;" text-anchor="middle"><textPath startOffset="22.145653131862474" xlink:href="#id12">December</textPath></text><path d="M 89.65649057296885 81.72400993836675 l -6.471822756587625 -11.435090692811057 a34.13947445469184,34.13947445469184 0 0,0 0.5125079873875178,-0.2842795412636452 l 6.274570581044005 11.544503149507849" fill="#ff960d" stroke="none" /><path d="M 90.61103034731259 81.2157712731953 l -28.166908958062205 -56.35268618041411 a84.0,84.0 0 0,0 1.2953590029517876,-0.6336249996111434 l 27.195389705848363 56.827904930122465" fill="#4dd2ff" stroke="none" /><path d="M 91.5904679813234 80.7573450057729 l -5.134439302087619 -11.748601926890622 a33.821548821548824,33.821548821548824 0 0,0 0.5340018710779252,-0.2279336450491082 l 4.932002355839264 11.835010221599134" fill="#ff910d" stroke="none" /></svg>