<?xml version="1.0" encoding="utf-8" ?>
<svg baseProfile="full" height="200mm" version="1.1" viewBox="0,0,200,200" width="200mm" xmlns="http://www.w3.org/2000/svg" xmlns:ev="http://www.w3.org/2001/xml-events" xmlns:xlink="http://www.w3.org/1999/xlink"><defs /><rect fill="#1a1a1a" height="200" width="200" x="0" y="0" /><text alignment-baseline="middle" fill="#e1ed5e" style="dominant-baseline: central; font-size:9.0px; font-family:Arial;" text-anchor="middle" x="100.0" y="100.0">2020</text><line stroke="#e1ed5e" stroke-width="0.3" x1="100.0" x2="100.0" y1="15.0" y2="10.0" /><path d="M 100.0 14.0 a86.0,86.0 0 0,1 42.35913384403234,11.155469271406648" fill="none" id="id1" stroke="none" /><text fill="#e1ed5e" style="font-size:6.75px; font-family:Arial;" text-anchor="middle"><textPath startOffset="22.145653131862478" xlink:href="#id1">January</textPath></text><line stroke="#e1ed5e" stroke-width="0.3" x1="143.13028292997686" x2="145.6673583964461" y1="26.7553504044142" y2="22.446841604673864" /><path d="M 143.63769802327073 25.89364864446614 a86.0,86.0 0 0,1 29.32050498858742,28.57503671076993" fill="none" id="id2" stroke="none" /><text fill="#e1ed5e" style="font-size:6.75px; font-family:Arial;" text-anchor="middle"><textPath startOffset="20.669276256404974" xlink:href="#id2">February</textPath></text><line stroke="#e1ed5e" stroke-width="0.3" x1="172.87174338648825" x2="177.1583165268699" y1="56.24261187166439" y2="53.66864786411523" /><path d="M 173.72905801456457 55.72781907015455 a86.0,86.0 0 0,1 12.242430191666344,42.057860355516425" fill="none" id="id3" stroke="none" /><text fill="#e1ed5e" style="font-size:6.75px; font-family:Arial;" text-anchor="middle"><textPath startOffset="22.145653131862474" xlink:href="#id3">March</textPath></text><line stroke="#e1ed5e" stroke-width="0.3" x1="184.99686870605535" x2="189.99668451229388" y1="99.2704041080226" y2="99.22748670261217" /><path d="M 185.99683186730306 99.26182062694052 a86.0,86.0 0 0,1 -10.086455211305974,41.156179273409016" fill="none" id="id4" stroke="none" /><text fill="#e1ed5e" style="font-size:6.75px; font-family:Arial;" text-anchor="middle"><textPath startOffset="21.40746469413373" xlink:href="#id4">April</textPath></text><path d="M 118.5362547648365 109.86951160357373 l 21.794435973884088 11.60430957960514 a45.69124217691464,45.69124217691464 0 0,0 -0.37456951536226757,0.6891657196228123 l -21.592021108906483 -11.976730132702555" fill="#d4ff1c" stroke="none" /><line stroke="#e1ed5e" stroke-width="0.3" x1="174.33088141563837" x2="178.70328620479359" y1="141.23008692659167" y2="143.65538615756765" /><path d="M 175.20536237346943 141.71514677278685 a86.0,86.0 0 0,1 -30.301960400862466,31.631185727798858" fill="none" id="id5" stroke="none" /><text fill="#e1ed5e" style="font-size:6.75px; font-family:Arial;" text-anchor="middle"><textPath startOffset="22.145653131862474" xlink:href="#id5">May</textPath></text><line stroke="#e1ed5e" stroke-width="0.3" x1="143.1302829299769" x2="145.66735839644613" y1="173.24464959558577" y2="177.55315839532614" /><path d="M 143.63769802327073 174.10635135553383 a86.0,86.0 0 0,1 -40.68552437913181,11.842963189579606" fill="none" id="id6" stroke="none" /><text fill="#e1ed5e" style="font-size:6.75px; font-family:Arial;" text-anchor="middle"><textPath startOffset="21.407464694133747" xlink:href="#id6">June</textPath></text><path d="M 101.44090949804482 120.95050786540614 l 1.9682408641614089 28.61779019541505 a49.685395025485505,49.685395025485505 0 0,0 -0.8514080960214514,0.05121859682384099 l -1.4766884160074925 -28.64736077006358" fill="#a6ff21" stroke="none" /><line stroke="#e1ed5e" stroke-width="0.3" x1="101.45913802915013" x2="101.54496967792366" y1="184.9874750549273" y2="189.98673829345242" /><path d="M 101.47630435890484 185.9873277026323 a86.0,86.0 0 0,1 -42.54439059252881,-10.42667462771756" fill="none" id="id7" stroke="none" /><text fill="#e1ed5e" style="font-size:6.75px; font-family:Arial;" text-anchor="middle"><textPath startOffset="22.145653131862474" xlink:href="#id7">July</textPath></text><path d="M 96.76829788921471 120.74984581791261 l -1.4849717071338195 9.534583606625125 a30.649529808374734,30.649529808374734 0 0,0 -0.5191774892230772,-0.08543045828145067 l 1.6484266994099603 -9.507687149848007" fill="#ff6609" stroke="none" /><path d="M 94.30408787586889 120.21278271476187 l -6.612691579751515 23.466109579708824 a45.380032582747276,45.380032582747276 0 0,0 -0.7479925674435439,-0.2177297350223317 l 7.0145441595766655 -23.349136150383973" fill="#d8ff1c" stroke="none" /><path d="M 92.59220618246901 119.65005319985036 l -1.4545603924327228 3.8583942530982385 a25.12346361055552,25.12346361055552 0 0,0 -0.4022478727668217,-0.15559811845470084 l 1.5205805276930728 -3.832856246505497" fill="#ff1602" stroke="none" /><path d="M 91.92203290615298 119.3841803445677 l -8.214649903729036 19.712169330654724 a42.355329376088775,42.355329376088775 0 0,0 -0.6687400762245002,-0.28544537279725263 l 8.551825055123967 -19.568249308198066" fill="#fdff18" stroke="none" /><path d="M 91.26138138417905 119.09545874513695 l -6.20605288052982 13.561345558180344 a35.91392589844506,35.91392589844506 0 0,0 -0.5583953397631097,-0.2613572140427255 l 6.43793693416442 -13.452812112567091" fill="#ffae10" stroke="none" /><line stroke="#e1ed5e" stroke-width="0.3" x1="58.13341422392154" x2="55.67067388415222" y1="173.97424548756322" y2="178.32567169271397" /><path d="M 57.64086615596768 174.84453072859336 a86.0,86.0 0 0,1 -31.369924170532247,-30.572349798747897" fill="none" id="id8" stroke="none" /><text fill="#e1ed5e" style="font-size:6.75px; font-family:Arial;" text-anchor="middle"><textPath startOffset="22.145653131862474" xlink:href="#id8">August</textPath></text><path d="M 88.72937992617639 117.7192867562869 l -1.4418689183255933 2.2668574276695344 a23.68656445577134,23.68656445577134 0 0,0 -0.34121552715910736,-0.22117178225548956 l 1.4805700777417101 -2.24177180371015" fill="#ff0100" stroke="none" /><path d="M 87.83215693770417 117.11559508785305 l -2.02166055008675 2.8437187431839197 a24.489104135750694,24.489104135750694 0 0,0 -0.34053730697947354,-0.2465227487648748 l 2.0701788674401778 -2.80859522304598" fill="#ff0d01" stroke="none" /><path d="M 87.2517909369889 116.68781488649013 l -15.043754451018794 19.692757487389095 a45.7814294470611,45.7814294470611 0 0,0 -0.620425692429405,-0.4824467710443559 l 15.379590088083427 -19.431609664723947" fill="#d3ff1c" stroke="none" /><path d="M 86.96720088162412 116.46651593811092 l -5.039131064372032 6.366777484409837 a29.119648848312792,29.119648848312792 0 0,0 -0.38930090388995725,-0.3135932510086993 l 5.1476827386172515 -6.279335939607726" fill="#ff5007" stroke="none" /><path d="M 86.68645165197938 116.24036423190432 l -2.9110233665332195 3.5509751813920114 a25.591675269372217,25.591675269372217 0 0,0 -0.33735393077888515,-0.28143264746406765 l 2.9715516314739974 -3.5004803500160735" fill="#ff1d02" stroke="none" /><path d="M 86.40962598614128 116.0094264158162 l -6.208625885766988 7.313745682065783 a30.593639105748757,30.593639105748757 0 0,0 -0.397455835084648,-0.3433128840250676 l 6.3332612006144995 -7.206088665575994" fill="#ff6509" stroke="none" /><path d="M 86.13680546590413 115.77377054828092 l -1.747546055938433 1.9883866190530894 a23.647186915284856,23.647186915284856 0 0,0 -0.302610768637229,-0.2705964153060068 l 1.781421851399033 -1.9580946738637004" fill="#ff0000" stroke="none" /><path d="M 85.60350026404147 115.28858382429668 l -12.392528615299316 13.160435939631146 a39.07683156977869,39.07683156977869 0 0,0 -0.48441782965810903,-0.46406132283784135 l 12.616618930822739 -12.945762486487723" fill="#ffd714" stroke="none" /><path d="M 85.34317274990678 115.03919595460226 l -10.331779474107373 10.601315920527764 a35.8031606877863,35.8031606877863 0 0,0 -0.4364713533789801,-0.4327408514074087 l 10.512242747616314 -10.422395058891695" fill="#ffac10" stroke="none" /><path d="M 84.83555147118756 114.52719865689866 l -2.4617523889622013 2.3583031015338474 a24.40907881153623,24.40907881153623 0 0,0 -0.28726483010205783,-0.30506529471312754 l 2.501873052800512 -2.3156963468762295" fill="#ff0b01" stroke="none" /><path d="M 84.58840730492382 114.26474011684316 l -7.708655133846778 7.135016108349694 a31.503895412607264,31.503895412607264 0 0,0 -0.3639484504540703,-0.40004310143349153 l 7.830001285142729 -7.001635431358529" fill="#ff720a" stroke="none" /><path d="M 84.3458050057657 113.99807769240083 l -5.845704050447099 5.2272646083097545 a28.841973675721015,28.841973675721015 0 0,0 -0.3268605061151965,-0.37190725500356836 l 5.934575620520889 -5.126145075494885" fill="#ff4c07" stroke="none" /><path d="M 83.8745106332314 113.45245675266167 l -18.746310562645117 15.638839006997753 a45.41305890702626,45.41305890702626 0 0,0 -0.49425233625258674,-0.6029074859224167 l 19.012009718136333 -15.31472923937684" fill="#d8ff1c" stroke="none" /><path d="M 83.4222238831116 112.89097897827486 l -9.672553174207138 7.5214358521783184 a33.252766307503705,33.252766307503705 0 0,0 -0.3465381978046145,-0.45362962495182946 l 9.800243349366047 -7.354285313985619" fill="#ff8a0c" stroke="none" /><path d="M 82.98947788004972 112.3143062007846 l -13.068628029424028 9.460678869447552 a37.133613458932835,37.133613458932835 0 0,0 -0.36936434231408155,-0.5195572042286158 l 13.22910747026807 -9.234944438509432" fill="#ffbe11" stroke="none" /><path d="M 82.78059297857968 112.02048342749411 l -9.351366224416651 6.527979888343257 a32.404497870830376,32.404497870830376 0 0,0 -0.31449377330577044,-0.458855814013402 l 9.462049734537747 -6.366489339259804" fill="#ff7e0b" stroke="none" /><path d="M 82.37810715431573 111.42229804090323 l -45.71023100779215 29.62881948390737 a75.4728571198142,75.4728571198142 0 0,0 -0.6953648864348113,-1.0932290985132338 l 46.212113585852855 -28.839776710715466" fill="#42ffd8" stroke="none" /><line stroke="#e1ed5e" stroke-width="0.3" x1="26.387840678322732" x2="22.057713659400548" y1="142.50000000000003" y2="145.00000000000006" /><path d="M 25.521815274538298 143.00000000000003 a86.0,86.0 0 0,1 -11.493303480769221,-40.785679425670985" fill="none" id="id9" stroke="none" /><text fill="#e1ed5e" style="font-size:6.75px; font-family:Arial;" text-anchor="middle"><textPath startOffset="21.40746469413373" xlink:href="#id9">September</textPath></text><path d="M 81.81346652052679 110.50000000000001 l -11.243523053120343 6.4914510613588 a33.98290212271759,33.98290212271759 0 0,0 -0.28734426555899156,-0.5077097844469921 l 11.353300683700713 -6.297484506812687" fill="#ff940d" stroke="none" /><path d="M 81.4637452351635 109.86951160357371 l -11.147361450111145 5.935342094553518 a33.62901235563585,33.62901235563585 0 0,0 -0.26693738133458245,-0.5118876257220996 l 11.247606900420676 -5.743108225726916" fill="#ff8f0d" stroke="none" /><path d="M 81.29705330413844 109.54985784667822 l -6.832144554828963 3.4885416906529714 a28.671252984063486,28.671252984063486 0 0,0 -0.22005881163331417,-0.440265034820496 l 6.891023279674014 -3.3707447996687225" fill="#ff4a06" stroke="none" /><path d="M 81.1358732173502 109.22738970284198 l -11.529159361807237 5.639489577403097 a33.83453771211046,33.83453771211046 0 0,0 -0.25073123168295103,-0.5239318410659551 l 11.6242698514501 -5.440745234272038" fill="#ff920d" stroke="none" /><path d="M 80.68587082218212 108.24405325689762 l -12.055364397656865 5.145718205081367 a34.10764000903284,34.10764000903284 0 0,0 -0.22523086538600984,-0.5404720845088578 l 12.14192110757936 -4.938013611131228" fill="#ff960d" stroke="none" /><path d="M 80.16572619554312 106.89939002012753 l -26.23187967044379 9.124809438033363 a48.773614426737204,48.773614426737204 0 0,0 -0.26828873851887863,-0.7931479836463632 l 26.384653830535036 -8.673159779912838" fill="#b0ff20" stroke="none" /><path d="M 79.94057633289273 106.21446072829308 l -12.298028976889581 3.8099608134609917 a33.87467739854184,33.87467739854184 0 0,0 -0.16731458087936346,-0.5569358236291292 l 12.361619877772574 -3.598287386241139" fill="#ff920d" stroke="none" /><path d="M 79.73907114497094 105.5222062557868 l -12.371320675122774 3.3718584628241417 a33.82259742564037,33.82259742564037 0 0,0 -0.14787001096097888,-0.5614865169204042 l 12.427380166888486 -3.158991441530935" fill="#ff920d" stroke="none" /><path d="M 79.64726062577567 105.17358676015961 l -5.124543090631624 1.3026388142686849 a26.287514517065617,26.287514517065617 0 0,0 -0.10741888773563057,-0.43830571874669294 l 5.146149504883549 -1.2144772709138922" fill="#ff2703" stroke="none" /><path d="M 79.56144815229197 104.8234425847677 l -7.522778969205881 1.7753553532674378 a28.729430124524164,28.729430124524164 0 0,0 -0.10915697512261942,-0.48096577320383527 l 7.552146805886166 -1.645955246124576" fill="#ff4b06" stroke="none" /><path d="M 79.48165901384964 104.47187691870673 l -25.57999621321239 5.575041116807754 a47.180475353248596,47.180475353248596 0 0,0 -0.16567601223538536,-0.7928196939378884 l 25.671929936272143 -5.135104971584457" fill="#c3ff1e" stroke="none" /><path d="M 79.2786578344484 103.40968896794605 l -12.900369102727797 2.1227508266876827 a34.07385153880895,34.07385153880895 0 0,0 -0.0900174495464437,-0.5779766002493808 l 12.934908044412508 -1.9009860445068516" fill="#ff950d" stroke="none" /><path d="M 79.22317932658666 103.0534771498775 l -2.6791260511716004 0.3937392687497285 a23.70790454222853,23.70790454222853 0 0,0 -0.05571976619736008,-0.40316047143362405 l 2.685490333924173 -0.34769048911601885" fill="#ff0100" stroke="none" /><path d="M 79.17382384314188 102.69636545807758 l -7.662931654592716 0.9921199199234185 a28.726889638041165,28.726889638041165 0 0,0 -0.05911982087643295,-0.48959692589421977 l 7.67883356172881 -0.8604293171057995" fill="#ff4b06" stroke="none" /><line stroke="#e1ed5e" stroke-width="0.3" x1="15.003131293944662" x2="10.003315487706104" y1="100.72959589197737" y2="100.7725132973878" /><path d="M 14.003168132696942 100.73817937305945 a86.0,86.0 0 0,1 10.791469493833604,-42.45332614584628" fill="none" id="id10" stroke="none" /><text fill="#e1ed5e" style="font-size:6.75px; font-family:Arial;" text-anchor="middle"><textPath startOffset="22.145653131862435" xlink:href="#id10">October</textPath></text><path d="M 79.00696218219943 99.45929381324524 l -23.32967981828017 -0.6008897960473162 a44.337416930124526,44.337416930124526 0 0,0 0.0261280672505444,-0.7606901697777034 l 23.315927064032774 1.001286230389158" fill="#e5ff1a" stroke="none" /><path d="M 79.01933749520258 99.09900007780938 l -2.905417007053874 -0.12477110752285694 a23.908094877088843,23.908094877088843 0 0,0 0.021128392382870582,-0.4098851677322722 l 2.902847025214433 0.1746280686318411" fill="#ff0400" stroke="none" /><path d="M 79.06263194458094 98.37931529534042 l -9.70560281083716 -0.751275040080965 a30.734636105555197,30.734636105555197 0 0,0 0.04523315522504075,-0.5256778288420431 l 9.691276032914375 0.9177739162986888" fill="#ff6709" stroke="none" /><path d="M 79.13060592940154 97.66154086499901 l -12.980422447566164 -1.4544834098200812 a34.06165720369056,34.06165720369056 0 0,0 0.07009875061342123,-0.5805182136984398 l 12.953541610693076 1.6770953004419573" fill="#ff950d" stroke="none" /><path d="M 79.17382384314186 97.30363454192245 l -5.131380207433499 -0.6643599016629974 a26.174208819923866,26.174208819923866 0 0,0 0.06151622524248973,-0.44510076158132095 l 5.119219465635801 0.7523489714443854" fill="#ff2603" stroke="none" /><path d="M 79.22317932658666 96.9465228501225 l -41.60701105926363 -6.114797809596226 a63.05394299632234,63.05394299632234 0 0,0 0.1665780320111762,-1.0695504605290809 l 41.49591153511419 6.828136452056756" fill="#32ff4c" stroke="none" /><path d="M 79.2786578344484 96.59031103205396 l -16.76180638962724 -2.7581488627977593 a37.987216917220465,37.987216917220465 0 0,0 0.11140236603852886,-0.6425392432834969 l 16.711989206096476 3.045481139001849" fill="#ffc912" stroke="none" /><path d="M 79.48165901384962 95.52812308129327 l -12.602714794690298 -2.746703032251004 a33.89855797148203,33.89855797148203 0 0,0 0.12879698738010517,-0.5675032910357725 l 12.55370694575253 2.962640657225785" fill="#ff930d" stroke="none" /><path d="M 79.73907114497095 94.47779374421319 l -44.21938898733081 -12.052191103385546 a66.8324085424866,66.8324085424866 0 0,0 0.3111892231224726,-1.1043007709866393 l 44.00598127213375 12.809499798275198" fill="#37ff79" stroke="none" /><path d="M 80.05021161711548 93.44210830539832 l -12.329764689312269 -4.053038553622139 a33.9788373443448,33.9788373443448 0 0,0 0.18690719387110336,-0.5525579074480272 l 12.2583720738688 4.2640981355443275" fill="#ff940d" stroke="none" /><path d="M 80.28708602549916 92.7611449362534 l -12.218184655900082 -4.486686645138314 a34.015928446996575,34.015928446996575 0 0,0 0.20598963619150618,-0.546411983038965 l 12.13936433589414 4.695766908371424" fill="#ff940d" stroke="none" /><path d="M 80.5471966667186 92.08871423366112 l -43.045869586471305 -17.50638041852266 a67.46956255242273,67.46956255242273 0 0,0 0.44553736221192647,-1.0691274771269232 l 42.7390063797229 18.242740405090846" fill="#38ff80" stroke="none" /><path d="M 80.83023694016515 91.42560881287825 l -23.57917033891754 -10.546662977659082 a46.83039631589135,46.83039631589135 0 0,0 0.3345374744942232,-0.7310247561715546 l 23.39464839956827 10.949876716045308" fill="#c7ff1e" stroke="none" /><path d="M 81.46374523516351 90.13048839642627 l -10.254200164765994 -5.459784017616696 a32.61713658945739,32.61713658945739 0 0,0 0.26739008314792345,-0.49196763621946465 l 10.158964732002719 5.63500648731078" fill="#ff810b" stroke="none" /><line stroke="#e1ed5e" stroke-width="0.3" x1="26.387840678322718" x2="22.05771365940052" y1="57.49999999999999" y2="54.99999999999999" /><path d="M 25.521815274538284 56.99999999999999 a86.0,86.0 0 0,1 29.574782752854787,-30.34633250058573" fill="none" id="id11" stroke="none" /><text fill="#e1ed5e" style="font-size:6.75px; font-family:Arial;" text-anchor="middle"><textPath startOffset="21.40746469413373" xlink:href="#id11">November</textPath></text><path d="M 81.81346652052679 89.5 l -6.820390079968903 -3.9377540486483005 a28.8755080972966,28.8755080972966 0 0,0 0.25152807449314196,-0.4271496597787937 l 6.751788295345982 4.054254876720667" fill="#ff4d07" stroke="none" /><path d="M 81.99639281039701 89.18935116829357 l -16.55516710056592 -9.940902175303698 a40.310491805922965,40.310491805922965 0 0,0 0.3613202822110991,-0.5901895267184311 l 16.382078853899426 10.223628818146674" fill="#ffe715" stroke="none" /><path d="M 82.576782715395 88.27688183743585 l -10.652736485788644 -7.1676365241627575 a33.83961868507646,33.83961868507646 0 0,0 0.3284219804892797,-0.4791774845436555 l 10.52812476848405 7.349448743776448" fill="#ff920d" stroke="none" /><path d="M 82.78059297857968 87.97951657250589 l -2.187283539158735 -1.5268937833330563 a23.667510807148847,23.667510807148847 0 0,0 0.23541836490438584,-0.3311454124875654 l 2.1607500757243767 1.5642164225301418" fill="#ff0000" stroke="none" /><path d="M 82.98947788004972 87.6856937992154 l -27.043536376323313 -19.577434798402017 a54.38605716497838,54.38605716497838 0 0,0 0.5539556090660885,-0.7515471739533169 l 26.703478747673405 20.038788281624196" fill="#71ff27" stroke="none" /><path d="M 83.42222388311158 87.10902102172516 l -3.0082582959383615 -2.339239846209305 a24.810729724498355,24.810729724498355 0 0,0 0.2643330056975962,-0.3339761176208971 l 2.9676588595992035 2.390535907744885" fill="#ff1101" stroke="none" /><path d="M 83.8745106332314 86.54754324733833 l -5.932156987798404 -4.948816343695829 a28.725365346151364,28.725365346151364 0 0,0 0.31913256669054524,-0.3759373611140373 l 5.846329857600744 5.049920487259423" fill="#ff4a06" stroke="none" /><path d="M 84.58840730492382 85.73525988315684 l -43.81438044222561 -40.55393642660466 a80.70194044777082,80.70194044777082 0 0,0 0.9497625613252085,-1.0086149271222349 l 43.11176204716413 41.300092813671405" fill="#49f1ff" stroke="none" /><path d="M 85.34317274990677 84.96080404539775 l -5.539219666908903 -5.683727356867067 a28.936479772888575,28.936479772888575 0 0,0 0.3587124689088142,-0.34363843081031853 l 5.440834712134789 5.777977917982954" fill="#ff4e07" stroke="none" /><path d="M 85.86807049272753 84.46653392183569 l -5.125776386626276 -5.634126152762142 a28.61688657332731,28.61688657332731 0 0,0 0.3662075355086263,-0.3274650363995351 l 5.028303824294258 5.721286719045078" fill="#ff4906" stroke="none" /><path d="M 86.68645165197937 83.75963576809568 l -18.572953996633014 -22.65598395581503 a50.29587392735015,50.29587392735015 0 0,0 0.6724060885434879,-0.5416427478010637 l 18.18129713773428 22.971474997409494" fill="#9fff22" stroke="none" /><path d="M 88.4268655584334 82.4767994020092 l -33.57820931016809 -50.84168860512687 a81.92924946770759,81.92924946770759 0 0,0 1.1802273858276169,-0.7650091323907171 l 32.70049629208345 51.41061157922149" fill="#4ae5ff" stroke="none" /><path d="M 88.72937992617638 82.28071324371311 l -9.26572918039267 -14.56726526828733 a38.26438399251565,38.26438399251565 0 0,0 0.5572676768893589,-0.3477762457181421 l 9.014297374713612 14.724177310847008" fill="#ffcd13" stroke="none" /><line stroke="#e1ed5e" stroke-width="0.3" x1="56.869717070023135" x2="54.33264160355391" y1="26.7553504044142" y2="22.446841604673864" /><path d="M 56.362301976729285 25.89364864446614 a86.0,86.0 0 0,1 42.16139366436587,-11.88097634709845" fill="none" id="id12" stroke="none" /><text fill="#e1ed5e" style="font-size:6.75px; font-family:Arial;" text-anchor="middle"><textPath startOffset="22.145653131862474" xlink:href="#id12">December</textPath></text><path d="M 89.65649057296885 81.72400993836675 l -6.417852623592661 -11.339730639127218 a34.02990112265307,34.02990112265307 0 0,0 0.5108630526375976,-0.2833671236865073 l 6.2222453827989606 11.44823067824687" fill="#ff950d" stroke="none" /><path d="M 90.61103034731259 81.2157712731953 l -27.932018127503486 -55.882747172167214 a83.47462739531582,83.47462739531582 0 0,0 1.28725726326867,-0.6296620327487776 l 26.968600614972765 56.35400295501321" fill="#4cd7ff" stroke="none" /><path d="M 91.5904679813234 80.7573450057729 l -5.091621940980786 -11.65062742537113 a33.71462675011291,33.71462675011291 0 0,0 0.5323136992408647,-0.22721306487676968 l 4.89087316656949 11.736315139907303" fill="#ff900d" stroke="none" /><path d="M 92.25597844496254 80.48000691201159 l -4.7243765283121215 -11.908515042512827 a33.811419285115164,33.811419285115164 0 0,0 0.541349381338901,-0.20940557021112813 l 4.5192548844796905 11.987860500861995" fill="#ff920d" stroke="none" /><path d="M 92.93061703081487 80.22567764915836 l -21.208148907555373 -59.32296705252492 a84.0,84.0 0 0,0 1.3619769118199827,-0.47376626972565683 l 20.186666223690388 59.67829175481917" fill="#4dd2ff" stroke="none" /><path d="M 93.95794788825049 79.88797359093562 l -3.6861332343481132 -12.269938687283656 a33.811673333763466,33.811673333763466 0 0,0 0.5573129613859739,-0.16222568069333257 l 3.474960260580515 12.33140806227951" fill="#ff920d" stroke="none" /><path d="M 94.6519064749342 79.69241777938228 l -3.3342554335876473 -12.660710970137602 a34.092397090134845,34.092397090134845 0 0,0 0.5672239564072208,-0.14418611160668954 l 3.1164261839550482 12.716082313579554" fill="#ff950d" stroke="none" /></svg>