<?xml version="1.0" encoding="utf-8" ?>
<svg baseProfile="full" height="200mm" version="1.1" viewBox="0,0,200,200" width="200mm" xmlns="http://www.w3.org/2000/svg" xmlns:ev="http://www.w3.org/2001/xml-events" xmlns:xlink="http://www.w3.org/1999/xlink"><defs /><rect fill="#1a1a1a" height="200" width="200" x="0" y="0" /><text alignment-baseline="middle" fill="#e1ed5e" style="dominant-baseline: central; font-size:9.0px; font-family:Arial;" text-anchor="middle" x="100.0" y="100.0">2020</text><line stroke="#e1ed5e" stroke-width="0.3" x1="100.0" x2="100.0" y1="15.0" y2="10.0" /><path d="M 100.0 14.0 a86.0,86.0 0 0,1 42.35913384403234,11.155469271406648" fill="none" id="id1" stroke="none" /><text fill="#e1ed5e" style="font-size:6.75px; font-family:Arial;" text-anchor="middle"><textPath startOffset="22.145653131862478" xlink:href="#id1">January</textPath></text><line stroke="#e1ed5e" stroke-width="0.3" x1="143.13028292997686" x2="145.6673583964461" y1="26.7553504044142" y2="22.446841604673864" /><path d="M 143.63769802327073 25.89364864446614 a86.0,86.0 0 0,1 29.32050498858742,28.57503671076993" fill="none" id="id2" stroke="none" /><text fill="#e1ed5e" style="font-size:6.75px; font-family:Arial;" text-anchor="middle"><textPath startOffset="20.669276256404974" xlink:href="#id2">February</textPath></text><line stroke="#e1ed5e" stroke-width="0.3" x1="172.87174338648825" x2="177.1583165268699" y1="56.24261187166439" y2="53.66864786411523" /><path d="M 173.72905801456457 55.72781907015455 a86.0,86.0 0 0,1 12.242430191666344,42.057860355516425" fill="none" id="id3" stroke="none" /><text fill="#e1ed5e" style="font-size:6.75px; font-family:Arial;" text-anchor="middle"><textPath startOffset="22.145653131862474" xlink:href="#id3">March</textPath></text><line stroke="#e1ed5e" stroke-width="0.3" x1="184.99686870605535" x2="189.99668451229388" y1="99.2704041080226" y2="99.22748670261217" /><path d="M 185.99683186730306 99.26182062694052 a86.0,86.0 0 0,1 -10.086455211305974,41.156179273409016" fill="none" id="id4" stroke="none" /><text fill="#e1ed5e" style="font-size:6.75px; font-family:Arial;" text-anchor="middle"><textPath startOffset="21.40746469413373" xlink:href="#id4">April</textPath></text><path d="M 118.5362547648365 109.86951160357373 l 22.53514491561909 11.998695370481967 a46.530402405006825,46.530402405006825 0 0,0 -0.38144881706150197,0.701822859917505 l -22.325850748942248 -12.383773063874076" fill="#cbff1d" stroke="none" /><line stroke="#e1ed5e" stroke-width="0.3" x1="174.33088141563837" x2="178.70328620479359" y1="141.23008692659167" y2="143.65538615756765" /><path d="M 175.20536237346943 141.71514677278685 a86.0,86.0 0 0,1 -30.301960400862466,31.631185727798858" fill="none" id="id5" stroke="none" /><text fill="#e1ed5e" style="font-size:6.75px; font-family:Arial;" text-anchor="middle"><textPath startOffset="22.145653131862474" xlink:href="#id5">May</textPath></text><line stroke="#e1ed5e" stroke-width="0.3" x1="143.1302829299769" x2="145.66735839644613" y1="173.24464959558577" y2="177.55315839532614" /><path d="M 143.63769802327073 174.10635135553383 a86.0,86.0 0 0,1 -40.68552437913181,11.842963189579606" fill="none" id="id6" stroke="none" /><text fill="#e1ed5e" style="font-size:6.75px; font-family:Arial;" text-anchor="middle"><textPath startOffset="21.407464694133747" xlink:href="#id6">June</textPath></text><path d="M 101.44090949804482 120.95050786540614 l 2.0351337908386373 29.59039866832257 a50.66030112620031,50.66030112620031 0 0,0 -0.8681140706158675,0.052223586770846576 l -1.5268753680903047 -29.62097423291811" fill="#9bff22" stroke="none" /><line stroke="#e1ed5e" stroke-width="0.3" x1="101.45913802915013" x2="101.54496967792366" y1="184.9874750549273" y2="189.98673829345242" /><path d="M 101.47630435890484 185.9873277026323 a86.0,86.0 0 0,1 -42.54439059252881,-10.42667462771756" fill="none" id="id7" stroke="none" /><text fill="#e1ed5e" style="font-size:6.75px; font-family:Arial;" text-anchor="middle"><textPath startOffset="22.145653131862474" xlink:href="#id7">July</textPath></text><path d="M 96.76829788921471 120.74984581791261 l -1.5354401763805363 9.858627382826072 a30.977480163280283,30.977480163280283 0 0,0 -0.524732694895536,-0.08634456526085008 l 1.7044503743291357 -9.830816819069554" fill="#ff6909" stroke="none" /><path d="M 94.30408787586889 120.21278271476187 l -6.837431499056007 24.263632269181105 a46.208615995296725,46.208615995296725 0 0,0 -0.7616499889750045,-0.22170521138474575 l 7.252941500412619 -24.14268336349384" fill="#cfff1d" stroke="none" /><path d="M 92.59220618246901 119.65005319985036 l -1.5039952982159939 3.9895262139084857 a25.263604257962832,25.263604257962832 0 0,0 -0.40449164290065287,-0.15646605694413906 l 1.572259203610175 -3.963120268826306" fill="#ff1702" stroke="none" /><path d="M 91.92203290615298 119.3841803445677 l -8.493834216835639 20.382110048630015 a43.08111477569809,43.08111477569809 0 0,0 -0.6801993610561126,-0.2903366600806716 l 8.842468653062182 -20.23329873888994" fill="#f5ff19" stroke="none" /><path d="M 91.26138138417905 119.09545874513695 l -6.416972716537373 14.02224346482676 a36.420792801657825,36.420792801657825 0 0,0 -0.5662761856899656,-0.26504584786373275 l 6.6567376160988285 -13.9100213853925" fill="#ffb410" stroke="none" /><line stroke="#e1ed5e" stroke-width="0.3" x1="58.13341422392154" x2="55.67067388415222" y1="173.97424548756322" y2="178.32567169271397" /><path d="M 57.64086615596768 174.84453072859336 a86.0,86.0 0 0,1 -31.369924170532247,-30.572349798747897" fill="none" id="id8" stroke="none" /><text fill="#e1ed5e" style="font-size:6.75px; font-family:Arial;" text-anchor="middle"><textPath startOffset="22.145653131862474" xlink:href="#id8">August</textPath></text><path d="M 88.72937992617639 117.7192867562869 l -1.4908724897826988 2.34389918127698 a23.777870434844246,23.777870434844246 0 0,0 -0.3425308305176976,-0.2220243460014834 l 1.530888952557406 -2.317960993571602" fill="#ff0100" stroke="none" /><path d="M 87.83215693770417 117.11559508785305 l -2.0903690061530846 2.9403657912369074 a24.607685347721123,24.607685347721123 0 0,0 -0.34218625772748484,-0.24771646194297936 l 2.1405362742545235 -2.904048557920863" fill="#ff0d01" stroke="none" /><path d="M 87.2517909369889 116.68781488649013 l -15.5550337267242 20.362038471572713 a46.62365479312689,46.62365479312689 0 0,0 -0.6318394523278087,-0.4913221797768641 l 15.902283123687237 -20.092015240175055" fill="#caff1d" stroke="none" /><path d="M 86.96720088162412 116.46651593811092 l -5.2103917220200495 6.58315973070382 a29.395604441423824,29.395604441423824 0 0,0 -0.392990157231961,-0.316565052352476 l 5.3226326496072724 -6.492746384557933" fill="#ff5307" stroke="none" /><path d="M 86.68645165197938 116.24036423190432 l -3.009957839523227 3.6716591519195303 a25.74772862783687,25.74772862783687 0 0,0 -0.3394110533914209,-0.283148772311546 l 3.0725432270765403 -3.619448195696114" fill="#ff1e03" stroke="none" /><path d="M 86.40962598614128 116.0094264158162 l -6.419633168313124 7.562311730334866 a30.919689950924187,30.919689950924187 0 0,0 -0.40169170942772037,-0.34697173139556414 l 6.548504357503707 -7.45099586647458" fill="#ff6809" stroke="none" /><path d="M 86.13680546590413 115.77377054828092 l -1.8069384160471516 2.0559642223516423 a23.73715460341154,23.73715460341154 0 0,0 -0.30376207645891895,-0.2716259218594782 l 1.8419655193294415 -2.024642770608782" fill="#ff0000" stroke="none" /><path d="M 85.60350026404147 115.28858382429668 l -12.813702935527582 13.607708472368238 a39.69119345544608,39.69119345544608 0 0,0 -0.4920337964426276,-0.47135724673727164 l 13.045409217835523 -13.385739095325382" fill="#ffde14" stroke="none" /><path d="M 85.34317274990678 115.03919595460226 l -10.682916867599719 10.961613819766912 a36.30626310807937,36.30626310807937 0 0,0 -0.44260460502646565,-0.4388216824156336 l 10.869513392756147 -10.776612127122618" fill="#ffb210" stroke="none" /><path d="M 84.83555147118756 114.52719865689866 l -2.545417871704071 2.4384527414107717 a24.52494027093853,24.52494027093853 0 0,0 -0.2886283769490141,-0.3065133342123384 l 2.5869020823893383 -2.394397947253943" fill="#ff0c01" stroke="none" /><path d="M 84.58840730492382 114.26474011684316 l -7.970642633465203 7.377507826750243 a31.86088236397827,31.86088236397827 0 0,0 -0.3680725387955967,-0.40457619695477093 l 8.09611287310268 -7.239594054237798" fill="#ff760a" stroke="none" /><path d="M 84.3458050057657 113.99807769240083 l -6.044377017533341 5.40491920055658 a29.108492159127394,29.108492159127394 0 0,0 -0.3298809085104943,-0.375343918481797 l 6.136268990002428 -5.300363004263483" fill="#ff4f07" stroke="none" /><path d="M 83.8745106332314 113.45245675266167 l -19.38342546091233 16.170342914908836 a46.24276475714352,46.24276475714352 0 0,0 -0.5032824272592827,-0.6139227286783263 l 19.658154707410244 -15.835217904532016" fill="#ceff1d" stroke="none" /><path d="M 83.4222238831116 112.89097897827486 l -10.001286004647335 7.777060489451365 a33.66919064515726,33.66919064515726 0 0,0 -0.3508778950844729,-0.4593104279973183 l 10.133315877086103 -7.604229148213176" fill="#ff8f0d" stroke="none" /><path d="M 82.98947788004972 112.3143062007846 l -13.512780364873427 9.782210908261508 a37.68193284493794,37.68193284493794 0 0,0 -0.3748184204531191,-0.5272290481640902 l 13.678713883856508 -9.548804633387913" fill="#ffc412" stroke="none" /><path d="M 82.78059297857968 112.02048342749411 l -9.669183147422329 6.749840783507334 a32.792092831261755,32.792092831261755 0 0,0 -0.31825547953884537,-0.46434425582741107 l 9.783628363776499 -6.582861792609872" fill="#ff830c" stroke="none" /><path d="M 82.37810715431573 111.42229804090323 l -47.263745715711885 30.63578894854872 a77.32417974173697,77.32417974173697 0 0,0 -0.7124219423602793,-1.1200456235297547 l 47.782685349698056 -29.819929650340292" fill="#44ffeb" stroke="none" /><line stroke="#e1ed5e" stroke-width="0.3" x1="26.387840678322732" x2="22.057713659400548" y1="142.50000000000003" y2="145.00000000000006" /><path d="M 25.521815274538298 143.00000000000003 a86.0,86.0 0 0,1 -11.493303480769221,-40.785679425670985" fill="none" id="id9" stroke="none" /><text fill="#e1ed5e" style="font-size:6.75px; font-family:Arial;" text-anchor="middle"><textPath startOffset="21.40746469413373" xlink:href="#id9">September</textPath></text><path d="M 81.81346652052679 110.50000000000001 l -11.625647099460858 6.712070482377327 a34.42414096475464,34.42414096475464 0 0,0 -0.2910751844352955,-0.5143019606116792 l 11.739155648917533 -6.511511751666526" fill="#ff990e" stroke="none" /><path d="M 81.4637452351635 109.86951160357371 l -11.526217333913024 6.1370615135355004 a34.05822384742717,34.05822384742717 0 0,0 -0.2703443381148128,-0.5184209145722813 l 11.629869741002786 -5.938294355858717" fill="#ff940d" stroke="none" /><path d="M 81.29705330413844 109.54985784667822 l -7.06434283557603 3.607103787280677 a28.931969328657857,28.931969328657857 0 0,0 -0.22205987273087796,-0.4442684974733112 l 7.1252226215186445 -3.485303433643613" fill="#ff4c07" stroke="none" /><path d="M 81.1358732173502 109.22738970284198 l -11.920991086207511 5.831154108745376 a34.27073421922755,34.27073421922755 0 0,0 -0.25396367092642036,-0.5306863958639241 l 12.019334015093843 -5.625655210816348" fill="#ff970d" stroke="none" /><path d="M 80.68587082218212 108.24405325689762 l -12.465079804649653 5.320601349142519 a34.55311821142212,34.55311821142212 0 0,0 -0.2281725945999973,-0.5475311637235095 l 12.554578243786136 -5.105837675977728" fill="#ff9b0e" stroke="none" /><path d="M 80.16572619554312 106.89939002012753 l -27.123400233476353 9.434926568409127 a49.71753261644561,49.71753261644561 0 0,0 -0.2734809438405139,-0.8084978160853538 l 27.28136659888923 -8.96792707784961" fill="#a6ff21" stroke="none" /><path d="M 79.94057633289273 106.21446072829308 l -12.715991618355215 3.93944670818991 a34.312238099010564,34.312238099010564 0 0,0 -0.16947579069243038,-0.5641297882014318 l 12.781743729051275 -3.720579316397755" fill="#ff970e" stroke="none" /><path d="M 79.73907114497094 105.5222062557868 l -12.791774219142678 3.4864549459206278 a34.25838812840602,34.25838812840602 0 0,0 -0.14977525718390197,-0.5687210471583654 l 12.849738957131311 -3.26635339438946" fill="#ff970d" stroke="none" /><path d="M 79.64726062577567 105.17358676015961 l -5.298706574104451 1.346910490706473 a26.467216771670287,26.467216771670287 0 0,0 -0.10815320654316513,-0.44130199006834137 l 5.3210473071639095 -1.2557526760300322" fill="#ff2903" stroke="none" /><path d="M 79.56144815229197 104.8234425847677 l -7.7784492538539345 1.835692844290286 a28.992123686064886,28.992123686064886 0 0,0 -0.11015507478689,-0.4853635844863588 l 7.808815190198491 -1.701894925864901" fill="#ff4d07" stroke="none" /><path d="M 79.48165901384964 104.47187691870673 l -26.449361768135574 5.764515293185065 a48.07024888151338,48.07024888151338 0 0,0 -0.16880048541739132,-0.8077714291858112 l 26.544419964377333 -5.309627412713844" fill="#b9ff1f" stroke="none" /><path d="M 79.2786578344484 103.40968896794605 l -13.338802965275217 2.194894951926209 a34.51818140122502,34.51818140122502 0 0,0 -0.09119129515431286,-0.5855135311119226 l 13.374515752567797 -1.9655932388828363" fill="#ff9a0e" stroke="none" /><path d="M 79.22317932658666 103.0534771498775 l -2.7701792275197263 0.4071209500845702 a23.799935788652938,23.799935788652938 0 0,0 -0.05593606365732689,-0.40472549210548475 l 2.7767598077322657 -0.35950714977899983" fill="#ff0100" stroke="none" /><path d="M 79.17382384314188 102.69636545807758 l -7.923365189246349 1.0258382550453395 a28.989496858230517,28.989496858230517 0 0,0 -0.059660265456896455,-0.4940725823033311 l 7.9398075409629065 -0.8896719958186092" fill="#ff4d07" stroke="none" /><line stroke="#e1ed5e" stroke-width="0.3" x1="15.003131293944662" x2="10.003315487706104" y1="100.72959589197737" y2="100.7725132973878" /><path d="M 14.003168132696942 100.73817937305945 a86.0,86.0 0 0,1 10.791469493833604,-42.45332614584628" fill="none" id="id10" stroke="none" /><text fill="#e1ed5e" style="font-size:6.75px; font-family:Arial;" text-anchor="middle"><textPath startOffset="22.145653131862435" xlink:href="#id10">October</textPath></text><path d="M 79.00696218219943 99.45929381324524 l -24.122565785594098 -0.6213117260051688 a45.13056585207207,45.13056585207207 0 0,0 0.02659547040136399,-0.7742981025322465 l 24.10834562819588 1.035316093101554" fill="#dcff1b" stroke="none" /><path d="M 79.01933749520258 99.09900007780938 l -3.0041609414769805 -0.12901159693598543 a24.006929822001144,24.006929822001144 0 0,0 0.021215736167809616,-0.41157961382600966 l 3.001503615852601 0.18056300413870707" fill="#ff0400" stroke="none" /><path d="M 79.06263194458094 98.37931529534042 l -10.035458871142183 -0.7768079853040994 a31.065478895731616,31.065478895731616 0 0,0 0.04572006722984664,-0.5313364844067513 l 10.020645181214592 0.9489655170865314" fill="#ff6b09" stroke="none" /><path d="M 79.13060592940154 97.66154086499901 l -13.421577014994805 -1.503915699260832 a34.505572627620055,34.505572627620055 0 0,0 0.07101232673243969,-0.5880839345144199 l 13.393782602002696 1.7340933106986882" fill="#ff9a0e" stroke="none" /><path d="M 79.17382384314186 97.30363454192245 l -5.3057760581746 -0.6869389360680005 a26.35006025025747,26.35006025025747 0 0,0 0.06192952202146941,-0.4480911711904577 l 5.293202019597922 0.7779184154585251" fill="#ff2703" stroke="none" /><path d="M 79.22317932658666 96.9465228501225 l -43.02107312388383 -6.322616237193841 a64.48319455621203,64.48319455621203 0 0,0 0.1703538769588778,-1.0937940937017292 l 42.90619775478669 7.06019851282702" fill="#34ff5d" stroke="none" /><path d="M 79.2786578344484 96.59031103205396 l -17.331475633984162 -2.851887720172119 a38.56454699728562,38.56454699728562 0 0,0 0.11309546024557818,-0.6523045607474804 l 17.279965356246347 3.148985313840192" fill="#ffd013" stroke="none" /><path d="M 79.48165901384962 95.52812308129327 l -13.031032533665003 -2.8400528899264614 a34.33693028065362,34.33693028065362 0 0,0 0.13046257542133277,-0.5748421792670394 l 12.98035909668601 3.063329403132509" fill="#ff980e" stroke="none" /><path d="M 79.73907114497095 94.47779374421319 l -45.72223571666219 -12.461798662327375 a68.39007559426767,68.39007559426767 0 0,0 0.3184421294638484,-1.1300387768992768 l 45.50157509512376 13.244845363129665" fill="#39ff8a" stroke="none" /><path d="M 80.05021161711548 93.44210830539832 l -12.748805905419246 -4.190785724572652 a34.419938040219655,34.419938040219655 0 0,0 0.18933355391529957,-0.5597310097827676 l 12.674986929931583 4.4090184088295805" fill="#ff990e" stroke="none" /><path d="M 80.28708602549916 92.7611449362534 l -12.633433696400102 -4.639171844608455 a34.45828972660142,34.45828972660142 0 0,0 0.20866843530742615,-0.5535178159544231 l 12.55193457727824 4.855357940757023" fill="#ff990e" stroke="none" /><path d="M 80.5471966667186 92.08871423366112 l -44.50883291094845 -18.10135486654015 a69.04888401512719,69.04888401512719 0 0,0 0.4559664607855433,-1.0941535171235763 l 44.19154060562643 18.862740893104988" fill="#3aff92" stroke="none" /><path d="M 80.83023694016515 91.42560881287825 l -24.380535528163875 -10.905103433855265 a47.70827200593747,47.70827200593747 0 0,0 0.34080866456246195,-0.7447284382402697 l 24.18974239874637 11.322020854310205" fill="#bdff1f" stroke="none" /><path d="M 81.46374523516351 90.13048839642627 l -10.60270093631539 -5.645341049082728 a33.01195832099836,33.01195832099836 0 0,0 0.2706267687268614,-0.4979227731292163 l 10.504228817973178 5.826518655686565" fill="#ff860c" stroke="none" /><line stroke="#e1ed5e" stroke-width="0.3" x1="26.387840678322718" x2="22.05771365940052" y1="57.49999999999999" y2="54.99999999999999" /><path d="M 25.521815274538284 56.99999999999999 a86.0,86.0 0 0,1 29.574782752854787,-30.34633250058573" fill="none" id="id11" stroke="none" /><text fill="#e1ed5e" style="font-size:6.75px; font-family:Arial;" text-anchor="middle"><textPath startOffset="21.40746469413373" xlink:href="#id11">November</textPath></text><path d="M 81.81346652052679 89.5 l -7.0521888713855425 -4.071583143270527 a29.143166286541053,29.143166286541053 0 0,0 0.2538595849460881,-0.43110907424476735 l 6.9812555763096755 4.1920433858088675" fill="#ff4f07" stroke="none" /><path d="M 81.99639281039701 89.18935116829357 l -17.11781347131854 -10.278755154797349 a40.966781051815225,40.966781051815225 0 0,0 0.36720288509968646,-0.5997983164421683 l 16.93884262176346 10.571090587364061" fill="#ffef16" stroke="none" /><path d="M 82.576782715395 88.27688183743585 l -11.014781972004728 -7.411236884865622 a34.27598787489628,34.27598787489628 0 0,0 0.3326570528427495,-0.4853565816740386 l 10.885935182346666 7.599228201609695" fill="#ff970d" stroke="none" /><path d="M 82.78059297857968 87.97951657250589 l -2.2616208827590043 -1.5787870224950902 a23.758169226086487,23.758169226086487 0 0,0 0.23632013513806285,-0.3324138652530124 l 2.234185649090969 1.617378114457623" fill="#ff0000" stroke="none" /><path d="M 82.98947788004972 87.6856937992154 l -27.962642024851302 -20.2427964085298 a55.52072066813158,55.52072066813158 0 0,0 0.565512858198299,-0.767226802035124 l 27.611027147069183 20.719829519833787" fill="#66ff29" stroke="none" /><path d="M 83.42222388311158 87.10902102172516 l -3.1104974096974924 -2.4187415994561565 a24.940241751552122,24.940241751552122 0 0,0 0.26571282417795744,-0.33571947319572004 l 3.068518154877973 2.4717810165665592" fill="#ff1202" stroke="none" /><path d="M 83.8745106332314 86.54754324733833 l -6.133768157268599 -5.1170075518175855 a28.9879207615299,28.9879207615299 0 0,0 0.32204950029951956,-0.3793735015708838 l 6.045024093461964 5.221547835838026" fill="#ff4d07" stroke="none" /><path d="M 84.58840730492382 85.73525988315684 l -45.30346249092025 -41.93220854017225 a82.73097947321679,82.73097947321679 0 0,0 0.9736418545757043,-1.0339739090429092 l 44.57696480260828 42.70372390915967" fill="#4bdeff" stroke="none" /><path d="M 85.34317274990677 84.96080404539775 l -5.727476410163479 -5.876895359960151 a29.206210154565888,29.206210154565888 0 0,0 0.3620561946111313,-0.3468416443950028 l 5.625747729687047 5.974349134660722" fill="#ff5007" stroke="none" /><path d="M 85.86807049272753 84.46653392183569 l -5.299981785080161 -5.825608401957056 a28.87575521300238,28.87575521300238 0 0,0 0.3695202525057379,-0.330427288365579 l 5.199196505751031 5.915731220206037" fill="#ff4b07" stroke="none" /><path d="M 86.68645165197937 83.75963576809568 l -19.204177172870466 -23.425973595371932 a51.29152785479897,51.29152785479897 0 0,0 0.6857169967874893,-0.5523650732526758 l 18.79920940572773 23.752186962418005" fill="#94ff23" stroke="none" /><path d="M 88.4268655584334 82.4767994020092 l -34.71940332469979 -52.569601793972396 a84.0,84.0 0 0,0 1.210057470971896,-0.7843446331843746 l 33.811860221470866 53.157860268860674" fill="#4dd2ff" stroke="none" /><path d="M 88.72937992617638 82.28071324371311 l -9.580635630086332 -15.062350511776796 a38.851133914015165,38.851133914015165 0 0,0 0.5658128756238532,-0.35310908172863237 l 9.32065862567278 15.224595390346963" fill="#ffd413" stroke="none" /><line stroke="#e1ed5e" stroke-width="0.3" x1="56.869717070023135" x2="54.33264160355391" y1="26.7553504044142" y2="22.446841604673864" /><path d="M 56.362301976729285 25.89364864446614 a86.0,86.0 0 0,1 42.16139366436587,-11.88097634709845" fill="none" id="id12" stroke="none" /><text fill="#e1ed5e" style="font-size:6.75px; font-family:Arial;" text-anchor="middle"><textPath startOffset="22.145653131862474" xlink:href="#id12">December</textPath></text></svg>