<?xml version="1.0" encoding="utf-8" ?>
<svg baseProfile="full" height="200mm" version="1.1" viewBox="0,0,200,200" width="200mm" xmlns="http://www.w3.org/2000/svg" xmlns:ev="http://www.w3.org/2001/xml-events" xmlns:xlink="http://www.w3.org/1999/xlink"><defs /><rect fill="#1a1a1a" height="200" width="200" x="0" y="0" /><text alignment-baseline="middle" fill="#e1ed5e" style="dominant-baseline: central; font-size:9.0px; font-family:Arial;" text-anchor="middle" x="100.0" y="100.0">2021</text><line stroke="#e1ed5e" stroke-width="0.3" x1="100.0" x2="100.0" y1="15.0" y2="10.0" /><path d="M 100.0 14.0 a86.0,86.0 0 0,1 42.46469731375804,11.215312516191453" fill="none" id="id13" stroke="none" /><text fill="#e1ed5e" style="font-size:6.75px; font-family:Arial;" text-anchor="middle"><textPath startOffset="22.20632615414155" xlink:href="#id13">January</textPath></text><path d="M 100.0 79.0 l 0.0 -28.429536003952407 a49.42953600395241,49.42953600395241 0 0,0 0.8508482078536863,0.007323519147362664 l -0.48936772858115796 28.425323861413602" fill="#a4ff21" stroke="none" /><path d="M 101.44485096284872 79.0497635885617 l 0.6505156289477769 -9.432430448688683 a30.45483552225287,30.45483552225287 0 0,0 0.5226772144560097,0.040569811372783864 l -0.8127830327661277 9.419835375127436" fill="#ff6b09" stroke="none" /><path d="M 102.16513564639614 79.11191278185805 l 0.9768725592332619 -9.424351426774589 a30.474844579850963,30.474844579850963 0 0,0 0.5213132799261259,0.0585756211713006 l -1.138952542669113 9.406139852132688" fill="#ff6c09" stroke="none" /><path d="M 102.88285421437855 79.19881850522331 l 3.49024029548211 -25.183764577688347 a46.424471983202274,46.424471983202274 0 0,0 0.790611011829235,0.1165155115918724 l -3.923220287740001 25.119954581935506" fill="#c7ff1e" stroke="none" /><path d="M 103.95276090670814 79.375362276772 l 1.4372386795527854 -7.499195571703116 a28.63567870229322,28.63567870229322 0 0,0 0.48330697237140735,0.0969468319417709 l -1.566112061391318 7.473344783684137" fill="#ff5207" stroke="none" /><path d="M 104.66035177308747 79.52364482259891 l 1.2877688126154063 -5.658116141740055 a26.80281197249784,26.80281197249784 0 0,0 0.4489806845105725,0.10625922203952919 l -1.3849731840885022 5.635111007559657" fill="#ff3805" stroke="none" /><path d="M 106.0581310904928 79.89281104454417 l 2.7333262155610574 -9.072023347173323 a30.474844579850963,30.474844579850963 0 0,0 0.5009696244443828,0.15565370091004588 l -2.8890812127161585 9.023629511380756" fill="#ff6c09" stroke="none" /><path d="M 107.4271985657038 80.35727306442388 l 3.370159659250605 -8.913068006776903 a30.528943142986538,30.528943142986538 0 0,0 0.48994132352164005,0.1900896218312453 l -3.523084147771912 8.853735681055111" fill="#ff6c0a" stroke="none" /><path d="M 108.09893153111575 80.62456947434976 l 3.798718657344319 -9.087841914589747 a30.84982914076331,30.84982914076331 0 0,0 0.48818568061282336,0.20901563106738355 l -3.9545880957474573 9.021106755559572" fill="#ff710a" stroke="none" /><path d="M 108.76106565485865 80.91482961587045 l 5.064241500029458 -11.031981234022771 a33.1388282761744,33.1388282761744 0 0,0 0.5163688887602499,0.24244211702381027 l -5.2533886000893055 10.943174134358957" fill="#ff900d" stroke="none" /><path d="M 110.36928655335952 81.73862282372117 l 20.520085201686136 -36.137974741951936 a62.55751574786942,62.55751574786942 0 0,0 0.9318188254659635,0.5397696084533545 l -21.13910075961743 35.77940097610853" fill="#32ff49" stroke="none" /><line stroke="#e1ed5e" stroke-width="0.3" x1="143.23703022742887" x2="145.7803849466894" y1="26.81831364943548" y2="22.513508569990506" /><path d="M 143.74570117128098 25.957352633546492 a86.0,86.0 0 0,1 28.547481713284135,27.462654790039103" fill="none" id="id14" stroke="none" /><text fill="#e1ed5e" style="font-size:6.75px; font-family:Arial;" text-anchor="middle"><textPath startOffset="19.985693538727396" xlink:href="#id14">February</textPath></text><path d="M 111.2981086023043 82.29822771554956 l 4.150895184484098 -6.50358426519048 a28.71534439458191,28.71534439458191 0 0,0 0.4143664865485169,0.26951548920484575 l -4.262228696816895 6.431169851826106" fill="#ff5307" stroke="none" /><path d="M 112.19680574252982 82.90503203632743 l 24.21678172581921 -33.94209242364005 a62.695541191485866,62.695541191485866 0 0,0 0.873124031675429,0.6343617412356951 l -24.79745107384843 33.52021144758768" fill="#32ff4a" stroke="none" /><path d="M 113.06298171725822 83.55741782278167 l 6.0449990296784435 -7.6089361110699665 a30.717917575857385,30.717917575857385 0 0,0 0.41117629684521884,0.33247596998740053 l -6.175078725088153 7.503754043818436" fill="#ff6f0a" stroke="none" /><path d="M 114.16331599549186 84.49514656593476 l 14.615189610341288 -15.999528139564413 a42.66999464778294,42.66999464778294 0 0,0 0.5380322943451907,0.5000423807161437 l -14.888429788481325 15.745581172773628" fill="#f3ff19" stroke="none" /><path d="M 114.42810811169701 84.74124197986012 l 1.351179260502966 -1.4289688723036142 a22.96663098521965,22.96663098521965 0 0,0 0.2849139147342835,0.27408696023738194 l -1.3755764188496677 1.4054988253039304" fill="#ff0000" stroke="none" /><path d="M 115.19652480421416 85.50635884689758 l 6.806541183708808 -6.491718776593664 a30.40592449256865,30.40592449256865 0 0,0 0.3579684828696019,0.38185581889461745 l -6.917276988548873 6.373593540820991" fill="#ff6b09" stroke="none" /><path d="M 116.15771136456269 86.58626213691792 l 48.47313409368808 -40.241213589246215 a84.0,84.0 0 0,0 0.9140060316943646,1.1204633215675965 l -49.158638617458855 39.400866098070516" fill="#4dd2ff" stroke="none" /><path d="M 116.82858285166822 87.43820079747576 l 7.522249743528421 -5.615029599481484 a30.386841780229737,30.386841780229737 0 0,0 0.3092763893365757,0.4218526474832922 l -7.617788745378623 5.484714508326698" fill="#ff6b09" stroke="none" /><line stroke="#e1ed5e" stroke-width="0.3" x1="172.23445277983987" x2="176.4835382374775" y1="55.19839476539836" y2="52.563006222186495" /><path d="M 173.08426987136738 54.67131705675599 a86.0,86.0 0 0,1 12.851231095245387,41.99856678651699" fill="none" id="id15" stroke="none" /><text fill="#e1ed5e" style="font-size:6.75px; font-family:Arial;" text-anchor="middle"><textPath startOffset="22.20632615414155" xlink:href="#id15">March</textPath></text><line stroke="#e1ed5e" stroke-width="0.3" x1="184.98032266829074" x2="189.97916517819016" y1="98.17113171792111" y2="98.06355123074" /><path d="M 185.9800911702706 98.14961562048488 a86.0,86.0 0 0,1 -9.607161424134198,41.387399972396054" fill="none" id="id16" stroke="none" /><text fill="#e1ed5e" style="font-size:6.75px; font-family:Arial;" text-anchor="middle"><textPath startOffset="21.466115282336823" xlink:href="#id16">April</textPath></text><line stroke="#e1ed5e" stroke-width="0.3" x1="174.80103733775053" x2="179.2010983576182" y1="140.37084112569926" y2="142.7455964860345" /><path d="M 175.68104954172406 140.8457921977663 a86.0,86.0 0 0,1 -30.038265399797805,32.042727171017184" fill="none" id="id17" stroke="none" /><text fill="#e1ed5e" style="font-size:6.75px; font-family:Arial;" text-anchor="middle"><textPath startOffset="22.206326154141568" xlink:href="#id17">May</textPath></text><line stroke="#e1ed5e" stroke-width="0.3" x1="143.8653032363475" x2="146.44561519142675" y1="172.8068346515853" y2="177.08958963109032" /><path d="M 144.38136562736335 173.6633856474863 a86.0,86.0 0 0,1 -40.68145358897372,12.25698825130547" fill="none" id="id18" stroke="none" /><text fill="#e1ed5e" style="font-size:6.75px; font-family:Arial;" text-anchor="middle"><textPath startOffset="21.466115282336833" xlink:href="#id18">June</textPath></text><line stroke="#e1ed5e" stroke-width="0.3" x1="102.19456741930631" x2="102.32365962044197" y1="184.97166512339345" y2="189.96999836594603" /><path d="M 102.22038585953345 185.97133177190398 a86.0,86.0 0 0,1 -42.740103519485714,-10.115201625700543" fill="none" id="id19" stroke="none" /><text fill="#e1ed5e" style="font-size:6.75px; font-family:Arial;" text-anchor="middle"><textPath startOffset="22.20632615414155" xlink:href="#id19">July</textPath></text><line stroke="#e1ed5e" stroke-width="0.3" x1="58.666819895761336" x2="56.23545636021788" y1="174.27360380694188" y2="178.64263932499728" /><path d="M 58.180547188652646 175.14741091055294 a86.0,86.0 0 0,1 -31.652253787137756,-30.449443065178592" fill="none" id="id20" stroke="none" /><text fill="#e1ed5e" style="font-size:6.75px; font-family:Arial;" text-anchor="middle"><textPath startOffset="22.20632615414155" xlink:href="#id20">August</textPath></text><line stroke="#e1ed5e" stroke-width="0.3" x1="26.63291911575756" x2="22.317208475507996" y1="142.92168965132927" y2="145.44649492493687" /><path d="M 25.769776987707644 143.4266507060508 a86.0,86.0 0 0,1 -11.730757126820373,-40.83630448921669" fill="none" id="id21" stroke="none" /><text fill="#e1ed5e" style="font-size:6.75px; font-family:Arial;" text-anchor="middle"><textPath startOffset="21.46611528233685" xlink:href="#id21">September</textPath></text><line stroke="#e1ed5e" stroke-width="0.3" x1="15.007084014347285" x2="10.007500721073583" y1="101.09737516637583" y2="101.16192664675087" /><path d="M 14.007167355692545 101.11028546245083 a86.0,86.0 0 0,1 10.666146001902534,-42.60595125391555" fill="none" id="id22" stroke="none" /><text fill="#e1ed5e" style="font-size:6.75px; font-family:Arial;" text-anchor="middle"><textPath startOffset="22.20632615414155" xlink:href="#id22">October</textPath></text><line stroke="#e1ed5e" stroke-width="0.3" x1="26.266209847984243" x2="21.928928074336255" y1="57.711370442889674" y2="55.22380399835377" /><path d="M 25.398753493254645 57.213857153982495 a86.0,86.0 0 0,1 29.58750427330803,-30.492523968695096" fill="none" id="id23" stroke="none" /><text fill="#e1ed5e" style="font-size:6.75px; font-family:Arial;" text-anchor="middle"><textPath startOffset="21.46611528233685" xlink:href="#id23">November</textPath></text><line stroke="#e1ed5e" stroke-width="0.3" x1="56.762969772571076" x2="54.21961505331055" y1="26.818313649435495" y2="22.513508569990535" /><path d="M 56.25429882871897 25.957352633546506 a86.0,86.0 0 0,1 42.265352541879196,-11.944610805530505" fill="none" id="id24" stroke="none" /><text fill="#e1ed5e" style="font-size:6.75px; font-family:Arial;" text-anchor="middle"><textPath startOffset="22.20632615414155" xlink:href="#id24">December</textPath></text></svg>